<svg width="39" height="36" viewBox="0 0 39 36" fill="none" xmlns="http://www.w3.org/2000/svg">
<path d="M37.9879 12.0009C34.8302 12.329 30.3253 17.1288 28.0455 18.7038C26.2716 19.9318 24.7415 20.9912 23.4065 20.9912C22.0288 20.9912 21.8216 19.4725 22.1081 16.1257C22.1751 15.3758 22.8213 8.70099 19.5052 8.99161C17.9751 9.13223 15.5855 11.3165 9.17264 20.8037L11.7024 11.0822C13.5556 3.96679 8.45942 -3.12045 3.79608 1.44501L0.449441 4.90426C-0.00165405 5.34487 -0.135763 6.27296 0.150743 6.97606L1.19923 9.50722C1.48574 10.2103 2.08923 10.4166 2.54642 9.96657L6.08203 6.31983C7.20367 5.223 8.56305 6.99481 8.07538 8.86036L2.08923 31.8845C1.67471 33.4688 2.25382 36 3.89971 36C4.40567 36 4.90553 35.7 5.27738 35.1188C7.84984 31.1627 14.7077 20.9912 18.1519 16.7632C18.0178 19.435 18.0239 22.2849 19.4076 24.6192C20.3403 26.1941 21.6814 26.991 23.4004 26.991C25.5706 26.991 27.5456 25.6223 29.6365 24.1786C31.6481 22.7911 35.6714 18.31 38.0732 18.01C38.5913 17.9444 38.9998 17.3257 38.9998 16.5288V13.5196C39.012 12.6665 38.5426 11.9446 37.9879 12.0009V12.0009Z" fill="white"/>
</svg>
