<svg id="_26e08365-e7f3-4f87-b2fd-e29738693ebb" data-name="26e08365-e7f3-4f87-b2fd-e29738693ebb" xmlns="http://www.w3.org/2000/svg" viewBox="0 0 999 797.2"><defs><style>.cls-1{fill:#3287ca;opacity:0.1;}.cls-1,.cls-2{isolation:isolate;}.cls-2{fill:#be0449;opacity:0.5;}.cls-3,.cls-6{fill:#fff;}.cls-4{fill:#bf0449;}.cls-5{fill:#e7e8fe;}.cls-10,.cls-6{stroke:#000;}.cls-6{stroke-miterlimit:10;opacity:0.1;}.cls-7{fill:#a6034f;}.cls-8{fill:#bc1362;}.cls-9{fill:#d9042b;}.cls-10{fill:none;opacity:0.2;}</style></defs><ellipse class="cls-1" cx="489.44" cy="762.12" rx="385.79" ry="33"/><path class="cls-2" d="M692.25,200.52c-5.9,31.4,29.3,58.8,59,73,28.8,13.7,61.2,20.3,93.1,27.1,21.7,4.6,43.8,9.5,62.3,20.3,44.8,26.2,56.4,82.2,38.3,126.4s-59.4,78.2-103,105.5c-100,62.3-219.1,98.7-340.6,115.2-43.5,5.9-87.8,9.3-131.5,5.1-61.3-6-119.6-26.8-173.6-52.7-30.4-14.6-60-31-84.4-52.5-71.8-63.1-87.1-169.1-35.5-245.7,25.3-37.6,63.8-67,102.8-94.3,107.8-75.4,232.5-142.1,370.7-149,44-2.1,92.3,3.4,123.1,30.9C703.65,137.12,698.65,166.82,692.25,200.52Z"/><rect class="cls-3" x="306.22" y="72.3" width="334.85" height="643.66"/><path class="cls-4" d="M306.22,21.14H641.07V226.7a37.2,37.2,0,0,1-37.2,37.2H343.43a37.2,37.2,0,0,1-37.21-37.2Z"/><path class="cls-3" d="M450.32,181.12H448.2l-6.38-9.65v9.65H439.7v-13h2.12l6.38,9.64v-9.64h2.12Zm12.18-5.37a6.56,6.56,0,0,1-.08,1h-7.83a2.82,2.82,0,0,0,2.92,2.71,2.47,2.47,0,0,0,2.42-1.43h2.29a4.73,4.73,0,0,1-1.69,2.33,5,5,0,0,1-3,.89,5.38,5.38,0,0,1-2.64-.65,4.85,4.85,0,0,1-1.82-1.86,5.75,5.75,0,0,1-.65-2.79,5.81,5.81,0,0,1,.63-2.77,4.49,4.49,0,0,1,1.8-1.86,5.4,5.4,0,0,1,2.68-.66,5.26,5.26,0,0,1,2.59.64,4.52,4.52,0,0,1,1.77,1.78A5.33,5.33,0,0,1,462.5,175.75Zm-2.22-.67a2.41,2.41,0,0,0-.83-1.88,3,3,0,0,0-2-.71,2.72,2.72,0,0,0-1.88.71,2.88,2.88,0,0,0-.93,1.88Zm13.59-4.21v10.25h-2.12v-1.21a3.64,3.64,0,0,1-1.32,1,4.32,4.32,0,0,1-1.71.35,4.7,4.7,0,0,1-2.18-.5,3.73,3.73,0,0,1-1.51-1.49,4.89,4.89,0,0,1-.54-2.38v-6h2.1v5.71a3,3,0,0,0,.69,2.12,2.79,2.79,0,0,0,3.76,0,3,3,0,0,0,.71-2.12v-5.71Zm5.27,1.73v5.68a1.15,1.15,0,0,0,.26.83,1.44,1.44,0,0,0,.93.24h1.3v1.77H480a3.22,3.22,0,0,1-2.2-.67,2.74,2.74,0,0,1-.76-2.17V172.6h-1.21v-1.73H477v-2.55h2.14v2.55h2.49v1.73Zm6.57-.24a3.32,3.32,0,0,1,1.23-1.21,3.61,3.61,0,0,1,1.84-.45v2.2h-.54a2.62,2.62,0,0,0-1.9.63,3.08,3.08,0,0,0-.63,2.2v5.39h-2.12V170.87h2.12ZM490,176a5.73,5.73,0,0,1,.63-2.73,4.71,4.71,0,0,1,4.21-2.52,4.4,4.4,0,0,1,2.1.49,4.16,4.16,0,0,1,1.45,1.17v-1.49h2.14v10.25h-2.14V179.6a4.34,4.34,0,0,1-1.47,1.21,4.8,4.8,0,0,1-4.54-.19,5,5,0,0,1-1.75-1.9A6,6,0,0,1,490,176Zm8.39,0a3.61,3.61,0,0,0-.45-1.84,3,3,0,0,0-2.66-1.6,2.92,2.92,0,0,0-1.52.41,3,3,0,0,0-1.16,1.17,3.71,3.71,0,0,0-.42,1.82,3.93,3.93,0,0,0,.42,1.86,3.36,3.36,0,0,0,1.16,1.23,3.07,3.07,0,0,0,1.52.41,3,3,0,0,0,1.53-.41,3,3,0,0,0,1.13-1.19A3.77,3.77,0,0,0,498.41,176Zm6.8,3.4h4.65v1.73h-7.1v-1.73l4.67-6.79h-4.67v-1.73h7.1v1.73Z"/><rect class="cls-3" x="305.29" y="700.14" width="334.39" height="65.11"/><path class="cls-5" d="M436.05,751.3h99a2.32,2.32,0,0,1,2.32,2.33h0a2.32,2.32,0,0,1-2.32,2.32h-99a2.32,2.32,0,0,1-2.32-2.32h0A2.32,2.32,0,0,1,436.05,751.3Z"/><rect class="cls-6" x="306.45" y="699.4" width="333.22" height="65.11"/><path class="cls-5" d="M440.64,751.3h99a2.32,2.32,0,0,1,2.32,2.33h0a2.32,2.32,0,0,1-2.32,2.32h-99a2.33,2.33,0,0,1-2.33-2.32h0A2.33,2.33,0,0,1,440.64,751.3Z"/><path class="cls-3" d="M613.77,46.25h-8.92a3.2,3.2,0,0,0-2.2.87,2.89,2.89,0,0,0-.91,2.09v5.5h8.54l-2.94-2.79a.82.82,0,0,1-.24-.59.84.84,0,0,1,.26-.59,1,1,0,0,1,.62-.25,1,1,0,0,1,.63.24L613.06,55a.83.83,0,0,1,.26.6.81.81,0,0,1-.26.6l-4.45,4.23a1,1,0,0,1-.63.23.9.9,0,0,1-.62-.25.8.8,0,0,1-.26-.58.85.85,0,0,1,.24-.6l2.94-2.78h-8.54v5.49c0,1.7,1.88,3,3.56,3h8.47A3.2,3.2,0,0,0,616,64a2.89,2.89,0,0,0,.92-2.1V49.21a2.87,2.87,0,0,0-.92-2.09A3.16,3.16,0,0,0,613.77,46.25Zm-17.38,8.46a.93.93,0,0,0-.63.24.83.83,0,0,0-.26.6.81.81,0,0,0,.26.6.89.89,0,0,0,.63.25h5.35V54.71Z"/><path class="cls-3" d="M473.65,76.36a37.79,37.79,0,1,0,37.78,37.79A37.84,37.84,0,0,0,473.65,76.36Zm-9.13,21.23a12.83,12.83,0,0,1,18.23,0A12.18,12.18,0,0,1,486,107c-.54,7.13-6.06,13-12.31,13s-11.79-5.82-12.32-13A12.22,12.22,0,0,1,464.52,97.59Zm9.13,48.54a31.94,31.94,0,0,1-22.89-9.67,22.27,22.27,0,0,1,6.38-6.08,31.91,31.91,0,0,1,33,0,22.44,22.44,0,0,1,6.39,6.08,32,32,0,0,1-22.89,9.67Z"/><rect class="cls-7" x="318.31" y="230.42" width="313.46" height="57.67" rx="18.6"/><rect class="cls-7" x="318.31" y="302.04" width="313.46" height="57.67" rx="18.6"/><rect class="cls-7" x="317.38" y="373.66" width="313.46" height="57.67" rx="18.6"/><rect class="cls-7" x="318.31" y="445.28" width="313.46" height="57.67" rx="18.6"/><path class="cls-3" d="M406,263.9l-2.16-3.71h-1.44v3.71h-1.18v-9.07h2.93a3.92,3.92,0,0,1,1.73.35,2.43,2.43,0,0,1,1.07.95,2.71,2.71,0,0,1,.35,1.37,2.62,2.62,0,0,1-.55,1.65,2.55,2.55,0,0,1-1.61,1l2.28,3.8Zm-3.6-4.66h1.75a2,2,0,0,0,1.44-.47,1.72,1.72,0,0,0,.49-1.27,1.61,1.61,0,0,0-.49-1.25,2,2,0,0,0-1.44-.44h-1.75Zm13.25.82a6,6,0,0,1,0,.72h-5.7a2.23,2.23,0,0,0,2.32,2.24,2.21,2.21,0,0,0,1.27-.35,1.91,1.91,0,0,0,.73-1h1.28a3,3,0,0,1-1.15,1.68,3.43,3.43,0,0,1-2.13.64,3.7,3.7,0,0,1-1.83-.45,3.37,3.37,0,0,1-1.25-1.29,4.5,4.5,0,0,1,0-3.9,3.1,3.1,0,0,1,1.24-1.27,3.91,3.91,0,0,1,3.64,0,3,3,0,0,1,1.2,1.23A3.45,3.45,0,0,1,415.6,260.06Zm-1.22-.24a2.13,2.13,0,0,0-.3-1.16,1.92,1.92,0,0,0-.82-.75,2.5,2.5,0,0,0-1.13-.26,2.19,2.19,0,0,0-1.54.58,2.33,2.33,0,0,0-.72,1.59Zm2.34.49a3.88,3.88,0,0,1,.45-1.91,3.14,3.14,0,0,1,1.21-1.29,3.32,3.32,0,0,1,1.73-.46,3.18,3.18,0,0,1,1.63.41,2.63,2.63,0,0,1,1,1v-1.3H424v7.13h-1.19v-1.32a2.94,2.94,0,0,1-1.06,1,3.41,3.41,0,0,1-3.33-.07,3.26,3.26,0,0,1-1.21-1.31A4.07,4.07,0,0,1,416.72,260.31Zm6,0a2.87,2.87,0,0,0-.33-1.4,2.17,2.17,0,0,0-.89-.91,2.27,2.27,0,0,0-1.21-.33,2.28,2.28,0,0,0-2.08,1.22,2.88,2.88,0,0,0-.33,1.41,3,3,0,0,0,.33,1.43,2.44,2.44,0,0,0,.87.93,2.4,2.4,0,0,0,1.21.31,2.31,2.31,0,0,0,2.1-1.24A3,3,0,0,0,422.77,260.32Zm4.38-6v9.63H426v-9.63Zm2.63,1.34a.81.81,0,0,1-.57-.23.81.81,0,0,1,0-1.15.77.77,0,0,1,.57-.23.71.71,0,0,1,.55.23.83.83,0,0,1,0,1.15A.75.75,0,0,1,429.78,255.61Zm.58,1.16v7.13h-1.19v-7.13Zm2.9,6.16h3.5v1h-4.85v-1l3.46-5.2h-3.44v-1h4.81v1Zm4.6-2.62a4,4,0,0,1,.44-1.91,3.21,3.21,0,0,1,1.21-1.29,3.32,3.32,0,0,1,1.73-.46,3.16,3.16,0,0,1,1.63.41,2.63,2.63,0,0,1,1,1v-1.3h1.2v7.13h-1.2v-1.32a2.91,2.91,0,0,1-1,1,3.14,3.14,0,0,1-1.62.4,3.18,3.18,0,0,1-1.72-.47,3.33,3.33,0,0,1-1.21-1.31A4.19,4.19,0,0,1,437.86,260.31Zm6,0a3,3,0,0,0-.32-1.4,2.23,2.23,0,0,0-.89-.91,2.29,2.29,0,0,0-1.21-.33,2.37,2.37,0,0,0-1.21.31,2.25,2.25,0,0,0-.87.91,2.88,2.88,0,0,0-.33,1.41,3,3,0,0,0,.33,1.43,2.3,2.3,0,0,0,.87.93,2.52,2.52,0,0,0,2.42,0,2.42,2.42,0,0,0,.89-.93A3.06,3.06,0,0,0,443.9,260.32Zm8.12-2.57V262a1,1,0,0,0,.22.74,1.11,1.11,0,0,0,.77.21h.87v1h-1.07a2.13,2.13,0,0,1-1.48-.45,2,2,0,0,1-.5-1.5v-4.2h-.92v-1h.92V255H452v1.8h1.86v1Zm9.63-1v7.13h-1.19v-1a2.4,2.4,0,0,1-.95.86,2.92,2.92,0,0,1-1.33.3,3.24,3.24,0,0,1-1.5-.34,2.56,2.56,0,0,1-1.05-1,3.48,3.48,0,0,1-.38-1.68v-4.18h1.17v4a2.27,2.27,0,0,0,.54,1.63,2.18,2.18,0,0,0,3,0,2.37,2.37,0,0,0,.55-1.7v-3.92Zm6.65,1.31a2.88,2.88,0,0,1,1-1,3.14,3.14,0,0,1,1.63-.42,3.23,3.23,0,0,1,1.72.46,3.1,3.1,0,0,1,1.22,1.29,3.88,3.88,0,0,1,.45,1.91,4.07,4.07,0,0,1-.45,1.93,3.22,3.22,0,0,1-1.22,1.31,3.41,3.41,0,0,1-3.33.07,3.08,3.08,0,0,1-1.06-1v4.7h-1.18V256.77h1.18Zm4.85,2.23a2.88,2.88,0,0,0-.33-1.41,2.34,2.34,0,0,0-.88-.91,2.41,2.41,0,0,0-1.22-.31,2.37,2.37,0,0,0-1.21.33,2.24,2.24,0,0,0-.88.92,2.83,2.83,0,0,0-.33,1.39,3,3,0,0,0,.33,1.42,2.28,2.28,0,0,0,2.09,1.24,2.28,2.28,0,0,0,2.1-1.24A3,3,0,0,0,473.15,260.31Zm4-2.38A2.27,2.27,0,0,1,478,257a2.74,2.74,0,0,1,1.42-.34v1.22h-.32c-1.32,0-2,.72-2,2.16v3.88h-1.18v-7.13h1.18Zm10.19,2.13c0,.23,0,.47,0,.72h-5.71a2.39,2.39,0,0,0,.72,1.65,2.34,2.34,0,0,0,1.6.59,2.24,2.24,0,0,0,1.28-.35,2,2,0,0,0,.73-1h1.27a3.07,3.07,0,0,1-1.14,1.68,3.48,3.48,0,0,1-2.14.64,3.67,3.67,0,0,1-1.82-.45,3.3,3.3,0,0,1-1.25-1.29,4.41,4.41,0,0,1,0-3.9,3,3,0,0,1,1.23-1.27,3.93,3.93,0,0,1,3.65,0,3.09,3.09,0,0,1,1.2,1.23A3.56,3.56,0,0,1,487.29,260.06Zm-1.23-.24a2.13,2.13,0,0,0-.3-1.16,1.92,1.92,0,0,0-.82-.75,2.47,2.47,0,0,0-1.13-.26,2.2,2.2,0,0,0-1.54.58,2.36,2.36,0,0,0-.71,1.59Zm2.35.49a4,4,0,0,1,.44-1.91,3.21,3.21,0,0,1,1.21-1.29,3.34,3.34,0,0,1,1.75-.46,3.21,3.21,0,0,1,1.55.39,2.78,2.78,0,0,1,1.09,1v-3.77h1.2v9.63h-1.2v-1.34a2.78,2.78,0,0,1-1,1.06,3.14,3.14,0,0,1-1.62.4,3.24,3.24,0,0,1-1.73-.47,3.33,3.33,0,0,1-1.21-1.31A4.19,4.19,0,0,1,488.41,260.31Zm6,0a2.87,2.87,0,0,0-.33-1.4,2.15,2.15,0,0,0-.88-.91,2.32,2.32,0,0,0-1.21-.33,2.37,2.37,0,0,0-1.21.31,2.34,2.34,0,0,0-.88.91,3,3,0,0,0-.32,1.41,3.08,3.08,0,0,0,.32,1.43,2.42,2.42,0,0,0,3.3.93,2.32,2.32,0,0,0,.88-.93A3,3,0,0,0,494.45,260.32Zm3.81-4.71a.81.81,0,0,1-.57-.23.81.81,0,0,1,.57-1.38.71.71,0,0,1,.55.23.83.83,0,0,1,0,1.15A.75.75,0,0,1,498.26,255.61Zm.58,1.16v7.13h-1.19v-7.13Zm1.57,3.54a3.88,3.88,0,0,1,.45-1.91,3.08,3.08,0,0,1,1.21-1.29,3.29,3.29,0,0,1,1.73-.46,3.18,3.18,0,0,1,1.63.41,2.54,2.54,0,0,1,1,1v-1.3h1.2v7.13h-1.2v-1.32a2.83,2.83,0,0,1-1.05,1,3.41,3.41,0,0,1-3.33-.07,3.19,3.19,0,0,1-1.21-1.31A4.07,4.07,0,0,1,500.41,260.31Zm6,0a2.87,2.87,0,0,0-.32-1.4,2.17,2.17,0,0,0-.89-.91,2.27,2.27,0,0,0-1.21-.33A2.28,2.28,0,0,0,502,258.9a2.88,2.88,0,0,0-.33,1.41,3,3,0,0,0,.33,1.43,2.44,2.44,0,0,0,.87.93A2.4,2.4,0,0,0,504,263a2.31,2.31,0,0,0,2.1-1.24A3,3,0,0,0,506.45,260.32Zm6.15-3.67a3.13,3.13,0,0,1,1.61.41,2.63,2.63,0,0,1,1,1v-1.3h1.19v7.29a3.6,3.6,0,0,1-.41,1.73,3,3,0,0,1-1.2,1.2,3.58,3.58,0,0,1-1.8.43,3.94,3.94,0,0,1-2.34-.66,2.6,2.6,0,0,1-1.11-1.81h1.17a1.84,1.84,0,0,0,.81,1,2.61,2.61,0,0,0,1.47.4,2.15,2.15,0,0,0,1.59-.61,2.29,2.29,0,0,0,.63-1.72v-1.5a2.93,2.93,0,0,1-1,1.05,3.13,3.13,0,0,1-1.61.41,3.24,3.24,0,0,1-2.94-1.78,4.07,4.07,0,0,1-.45-1.93,3.88,3.88,0,0,1,.45-1.91,3.08,3.08,0,0,1,1.21-1.29A3.29,3.29,0,0,1,512.6,256.65Zm2.66,3.67a2.87,2.87,0,0,0-.33-1.4A2.17,2.17,0,0,0,514,258a2.27,2.27,0,0,0-1.21-.33,2.28,2.28,0,0,0-2.08,1.22,2.88,2.88,0,0,0-.33,1.41,3,3,0,0,0,.33,1.43,2.44,2.44,0,0,0,.87.93,2.4,2.4,0,0,0,1.21.31,2.31,2.31,0,0,0,2.1-1.24A3,3,0,0,0,515.26,260.32Zm6.67-3.68a2.88,2.88,0,0,1,2.11.79,3,3,0,0,1,.81,2.27v4.2h-1.17v-4a2.26,2.26,0,0,0-.54-1.63,1.88,1.88,0,0,0-1.45-.57,2,2,0,0,0-1.5.58,2.39,2.39,0,0,0-.55,1.71v3.94h-1.18v-7.13h1.18v1a2.42,2.42,0,0,1,1-.84A3,3,0,0,1,521.93,256.64Zm8,7.38a3.76,3.76,0,0,1-1.83-.45,3.42,3.42,0,0,1-1.27-1.29,4,4,0,0,1-.46-2,3.85,3.85,0,0,1,.47-1.92,3.23,3.23,0,0,1,1.3-1.29,3.91,3.91,0,0,1,3.68,0,3.19,3.19,0,0,1,1.28,1.27,3.76,3.76,0,0,1,.49,1.94,3.83,3.83,0,0,1-.5,2,3.45,3.45,0,0,1-1.31,1.29A3.86,3.86,0,0,1,529.9,264Zm0-1a2.54,2.54,0,0,0,1.2-.3,2.2,2.2,0,0,0,.89-.9,2.77,2.77,0,0,0,.36-1.46,2.93,2.93,0,0,0-.34-1.45,2.18,2.18,0,0,0-.89-.89,2.51,2.51,0,0,0-2.38,0,2.11,2.11,0,0,0-.86.89,2.93,2.93,0,0,0-.33,1.45,3.15,3.15,0,0,0,.32,1.48,2.17,2.17,0,0,0,.86.89A2.42,2.42,0,0,0,529.9,263Zm1.33-8.32-2.78,1.48v-.88l2.78-1.63Zm6.41,9.36a3.78,3.78,0,0,1-1.47-.27,2.5,2.5,0,0,1-1-.78,2.18,2.18,0,0,1-.42-1.16H536a1.22,1.22,0,0,0,.49.87,1.93,1.93,0,0,0,1.19.34,1.72,1.72,0,0,0,1.07-.3.92.92,0,0,0,.39-.76.74.74,0,0,0-.42-.69,6.16,6.16,0,0,0-1.29-.45,10.56,10.56,0,0,1-1.3-.42,2.45,2.45,0,0,1-.86-.64,1.67,1.67,0,0,1-.35-1.12,1.75,1.75,0,0,1,.32-1,2.18,2.18,0,0,1,.93-.71,3.12,3.12,0,0,1,1.36-.28,2.94,2.94,0,0,1,1.92.6,2.14,2.14,0,0,1,.78,1.64H539a1.24,1.24,0,0,0-.46-.9,1.67,1.67,0,0,0-1.09-.34,1.71,1.71,0,0,0-1,.28.84.84,0,0,0-.38.71.86.86,0,0,0,.22.59,1.78,1.78,0,0,0,.58.36,9.58,9.58,0,0,0,1,.3,9.49,9.49,0,0,1,1.25.42,2.1,2.1,0,0,1,.82.6,1.63,1.63,0,0,1,.37,1,1.78,1.78,0,0,1-.33,1.06,2.27,2.27,0,0,1-.92.74A3.27,3.27,0,0,1,537.64,264Zm5.72-6.27V262a1,1,0,0,0,.22.74,1.13,1.13,0,0,0,.77.21h.88v1h-1.07a2.16,2.16,0,0,1-1.49-.45,2,2,0,0,1-.49-1.5v-4.2h-.93v-1h.93V255h1.18v1.8h1.87v1Zm3.91-2.14a.81.81,0,0,1-.57-.23.81.81,0,0,1,.57-1.38.71.71,0,0,1,.55.23.83.83,0,0,1,0,1.15A.75.75,0,0,1,547.27,255.61Zm.58,1.16v7.13h-1.19v-7.13Zm1.57,3.55a3.92,3.92,0,0,1,.45-1.92,3.1,3.1,0,0,1,1.22-1.29,3.51,3.51,0,0,1,1.81-.46,3.44,3.44,0,0,1,2.16.64,3,3,0,0,1,1.13,1.77h-1.27a1.81,1.81,0,0,0-.72-1,2.15,2.15,0,0,0-1.3-.38,2.09,2.09,0,0,0-1.64.71,2.8,2.8,0,0,0-.63,2,2.91,2.91,0,0,0,.63,2,2.12,2.12,0,0,0,1.64.7,2.15,2.15,0,0,0,1.3-.37,1.83,1.83,0,0,0,.72-1h1.27a3.16,3.16,0,0,1-1.14,1.76,3.42,3.42,0,0,1-2.15.65,3.6,3.6,0,0,1-1.81-.45,3.23,3.23,0,0,1-1.22-1.29A4.08,4.08,0,0,1,549.42,260.32Zm11.47,3.7a3.76,3.76,0,0,1-1.83-.45,3.42,3.42,0,0,1-1.27-1.29,4,4,0,0,1-.46-2,3.85,3.85,0,0,1,.47-1.92,3.23,3.23,0,0,1,1.3-1.29,3.91,3.91,0,0,1,3.68,0,3.28,3.28,0,0,1,1.29,1.27,4.13,4.13,0,0,1,0,3.9,3.45,3.45,0,0,1-1.31,1.29A3.84,3.84,0,0,1,560.89,264Zm0-1a2.54,2.54,0,0,0,1.2-.3,2.2,2.2,0,0,0,.89-.9,2.77,2.77,0,0,0,.36-1.46,2.93,2.93,0,0,0-.34-1.45,2.18,2.18,0,0,0-.89-.89,2.51,2.51,0,0,0-2.38,0,2.11,2.11,0,0,0-.86.89,2.93,2.93,0,0,0-.33,1.45,3.15,3.15,0,0,0,.32,1.48,2.17,2.17,0,0,0,.86.89A2.42,2.42,0,0,0,560.89,263Z"/><path class="cls-3" d="M402.23,328.08l-2.16-3.71h-1.44v3.71h-1.18V319h2.93a3.92,3.92,0,0,1,1.73.35,2.43,2.43,0,0,1,1.07.95,2.71,2.71,0,0,1,.35,1.37,2.62,2.62,0,0,1-.55,1.65,2.55,2.55,0,0,1-1.61.95l2.28,3.8Zm-3.6-4.66h1.75a2,2,0,0,0,1.44-.47,1.71,1.71,0,0,0,.48-1.27,1.61,1.61,0,0,0-.48-1.25,2,2,0,0,0-1.44-.44h-1.75Zm13.25.82a6,6,0,0,1,0,.72h-5.7a2.23,2.23,0,0,0,2.32,2.24,2.21,2.21,0,0,0,1.27-.35,2,2,0,0,0,.73-1h1.28a3,3,0,0,1-1.15,1.68,3.43,3.43,0,0,1-2.13.64,3.7,3.7,0,0,1-1.83-.45,3.37,3.37,0,0,1-1.25-1.29,4.14,4.14,0,0,1-.45-2,4.05,4.05,0,0,1,.44-1.94,3.1,3.1,0,0,1,1.24-1.27,3.91,3.91,0,0,1,3.64,0,3.09,3.09,0,0,1,1.2,1.23A3.45,3.45,0,0,1,411.88,324.24Zm-1.22-.24a2.13,2.13,0,0,0-.3-1.16,2,2,0,0,0-.82-.75,2.52,2.52,0,0,0-1.14-.26,2.18,2.18,0,0,0-1.53.58,2.33,2.33,0,0,0-.72,1.59Zm2.34.49a3.88,3.88,0,0,1,.45-1.91,3.08,3.08,0,0,1,1.21-1.29,3.29,3.29,0,0,1,1.73-.46,3.18,3.18,0,0,1,1.63.41,2.54,2.54,0,0,1,1,1V321h1.2v7.13H419v-1.32a2.83,2.83,0,0,1-1.05,1,3.41,3.41,0,0,1-3.33-.07,3.19,3.19,0,0,1-1.21-1.31A4.07,4.07,0,0,1,413,324.49Zm6,0a2.87,2.87,0,0,0-.32-1.4,2.17,2.17,0,0,0-.89-.91,2.27,2.27,0,0,0-1.21-.33,2.28,2.28,0,0,0-2.08,1.22,2.88,2.88,0,0,0-.33,1.41,3,3,0,0,0,.33,1.43,2.44,2.44,0,0,0,.87.93,2.4,2.4,0,0,0,1.21.31,2.31,2.31,0,0,0,2.1-1.24A3,3,0,0,0,419,324.5Zm4.39-6.05v9.63h-1.18v-9.63Zm2.63,1.34a.8.8,0,0,1-.81-.81.78.78,0,0,1,.24-.57.75.75,0,0,1,.57-.23.71.71,0,0,1,.55.23.83.83,0,0,1,0,1.15A.75.75,0,0,1,426.06,319.79Zm.57,1.16v7.13h-1.18V321Zm2.91,6.16H433v1h-4.85v-1l3.46-5.2h-3.44v-1H433v1Zm4.6-2.62a4,4,0,0,1,.44-1.91,3.21,3.21,0,0,1,1.21-1.29,3.32,3.32,0,0,1,1.73-.46,3.16,3.16,0,0,1,1.63.41,2.63,2.63,0,0,1,1,1V321h1.2v7.13h-1.2v-1.32a2.91,2.91,0,0,1-1.05,1,3.14,3.14,0,0,1-1.62.4,3.18,3.18,0,0,1-1.72-.47,3.33,3.33,0,0,1-1.21-1.31A4.19,4.19,0,0,1,434.14,324.49Zm6,0a2.87,2.87,0,0,0-.33-1.4,2.15,2.15,0,0,0-.88-.91,2.32,2.32,0,0,0-1.21-.33,2.37,2.37,0,0,0-1.21.31,2.34,2.34,0,0,0-.88.91,3,3,0,0,0-.32,1.41,3.08,3.08,0,0,0,.32,1.43,2.42,2.42,0,0,0,3.3.93,2.32,2.32,0,0,0,.88-.93A3,3,0,0,0,440.18,324.5Zm13.18-.26a6,6,0,0,1,0,.72h-5.7a2.23,2.23,0,0,0,2.32,2.24,2.19,2.19,0,0,0,1.27-.35,1.9,1.9,0,0,0,.73-1h1.28a3,3,0,0,1-1.15,1.68,3.43,3.43,0,0,1-2.13.64,3.64,3.64,0,0,1-1.82-.45,3.3,3.3,0,0,1-1.25-1.29,4,4,0,0,1-.46-2,4.17,4.17,0,0,1,.44-1.94,3.1,3.1,0,0,1,1.24-1.27,3.93,3.93,0,0,1,3.65,0,3,3,0,0,1,1.19,1.23A3.45,3.45,0,0,1,453.36,324.24Zm-1.22-.24a2.13,2.13,0,0,0-.3-1.16,1.92,1.92,0,0,0-.82-.75,2.5,2.5,0,0,0-1.13-.26,2.2,2.2,0,0,0-1.54.58,2.33,2.33,0,0,0-.72,1.59Zm3.43-4.21a.82.82,0,0,1-.58-.23.86.86,0,0,1,0-1.15.78.78,0,0,1,.58-.23.73.73,0,0,1,.56.23.83.83,0,0,1,0,1.15A.77.77,0,0,1,455.57,319.79Zm.58,9.84a1.83,1.83,0,0,1-.48,1.4,2,2,0,0,1-1.41.44h-.69v-1h.5a1,1,0,0,0,.69-.2.87.87,0,0,0,.21-.66V321h1.18Zm8.52-5.39a6,6,0,0,1,0,.72h-5.7a2.22,2.22,0,0,0,2.31,2.24,2.22,2.22,0,0,0,1.28-.35,2,2,0,0,0,.73-1h1.28a3.14,3.14,0,0,1-1.15,1.68,3.46,3.46,0,0,1-2.14.64,3.69,3.69,0,0,1-1.82-.45,3.3,3.3,0,0,1-1.25-1.29,4.14,4.14,0,0,1-.45-2,4.05,4.05,0,0,1,.44-1.94,3,3,0,0,1,1.24-1.27,3.59,3.59,0,0,1,1.84-.46,3.64,3.64,0,0,1,1.8.44,3.09,3.09,0,0,1,1.2,1.23A3.45,3.45,0,0,1,464.67,324.24Zm-1.22-.24a2.22,2.22,0,0,0-.3-1.16,2,2,0,0,0-.82-.75,2.52,2.52,0,0,0-1.14-.26,2.16,2.16,0,0,0-1.53.58,2.33,2.33,0,0,0-.72,1.59Zm4-1.89a2.25,2.25,0,0,1,.88-.95,2.77,2.77,0,0,1,1.42-.34V322h-.31c-1.33,0-2,.72-2,2.16v3.88h-1.19V321h1.19Zm3.23,2.39a4,4,0,0,1,.44-1.92,3.17,3.17,0,0,1,1.22-1.29,3.53,3.53,0,0,1,1.81-.46,3.49,3.49,0,0,1,2.17.64,3,3,0,0,1,1.13,1.77h-1.28a1.84,1.84,0,0,0-.71-1,2.18,2.18,0,0,0-1.31-.38,2.11,2.11,0,0,0-1.64.71,2.84,2.84,0,0,0-.62,2,3,3,0,0,0,.62,2,2.13,2.13,0,0,0,1.64.7,2.18,2.18,0,0,0,1.31-.37,1.86,1.86,0,0,0,.71-1h1.28a3.13,3.13,0,0,1-1.15,1.76,3.42,3.42,0,0,1-2.15.65,3.63,3.63,0,0,1-1.81-.45,3.3,3.3,0,0,1-1.22-1.29A4.2,4.2,0,0,1,470.65,324.5Zm9-4.71a.81.81,0,0,1-.57-.23.81.81,0,0,1,.57-1.38.71.71,0,0,1,.55.23.83.83,0,0,1,0,1.15A.75.75,0,0,1,479.61,319.79Zm.58,1.16v7.13H479V321Zm1.57,3.55a3.92,3.92,0,0,1,.45-1.92,3.1,3.1,0,0,1,1.22-1.29,3.51,3.51,0,0,1,1.81-.46,3.44,3.44,0,0,1,2.16.64,3,3,0,0,1,1.13,1.77h-1.27a1.81,1.81,0,0,0-.72-1,2.17,2.17,0,0,0-1.3-.38,2.09,2.09,0,0,0-1.64.71,2.8,2.8,0,0,0-.63,2,2.91,2.91,0,0,0,.63,2,2.12,2.12,0,0,0,1.64.7,2.17,2.17,0,0,0,1.3-.37,1.83,1.83,0,0,0,.72-1h1.27a3.16,3.16,0,0,1-1.14,1.76,3.44,3.44,0,0,1-2.15.65,3.6,3.6,0,0,1-1.81-.45,3.23,3.23,0,0,1-1.22-1.29A4.08,4.08,0,0,1,481.76,324.5Zm9-4.71a.81.81,0,0,1-.58-1.38.78.78,0,0,1,.58-.23.69.69,0,0,1,.54.23.81.81,0,0,1,0,1.15A.73.73,0,0,1,490.73,319.79Zm.57,1.16v7.13h-1.18V321Zm5.13,7.25a3.72,3.72,0,0,1-1.82-.45,3.37,3.37,0,0,1-1.28-1.29,4.14,4.14,0,0,1-.45-2,3.74,3.74,0,0,1,.47-1.92,3.17,3.17,0,0,1,1.3-1.29,3.63,3.63,0,0,1,1.83-.46,3.67,3.67,0,0,1,1.84.46,3.15,3.15,0,0,1,1.29,1.27,4.16,4.16,0,0,1,0,3.9,3.41,3.41,0,0,1-1.32,1.29A3.81,3.81,0,0,1,496.43,328.2Zm0-1a2.48,2.48,0,0,0,1.2-.3,2.29,2.29,0,0,0,.9-.9,2.87,2.87,0,0,0,.35-1.46,2.83,2.83,0,0,0-.34-1.45,2.16,2.16,0,0,0-.88-.89,2.45,2.45,0,0,0-1.19-.3,2.48,2.48,0,0,0-1.2.3,2.17,2.17,0,0,0-.86.89,3,3,0,0,0-.32,1.45,3.15,3.15,0,0,0,.31,1.48,2.24,2.24,0,0,0,.86.89A2.47,2.47,0,0,0,496.43,327.16Zm7.75,1a3.86,3.86,0,0,1-1.48-.27,2.64,2.64,0,0,1-1-.78,2.09,2.09,0,0,1-.41-1.16h1.22a1.23,1.23,0,0,0,.5.87,1.9,1.9,0,0,0,1.18.34,1.72,1.72,0,0,0,1.07-.3.92.92,0,0,0,.39-.76.74.74,0,0,0-.42-.69,5.76,5.76,0,0,0-1.29-.45,11.15,11.15,0,0,1-1.3-.42,2.55,2.55,0,0,1-.86-.64,1.72,1.72,0,0,1-.35-1.12,1.69,1.69,0,0,1,.33-1,2.18,2.18,0,0,1,.92-.72,3.32,3.32,0,0,1,1.37-.27,2.89,2.89,0,0,1,1.91.6,2.14,2.14,0,0,1,.78,1.64h-1.18a1.24,1.24,0,0,0-.46-.9,1.67,1.67,0,0,0-1.09-.34,1.74,1.74,0,0,0-1,.28.83.83,0,0,0-.37.71.82.82,0,0,0,.22.59,1.73,1.73,0,0,0,.57.36q.36.14,1,.3a9,9,0,0,1,1.25.42,2,2,0,0,1,.82.6,1.58,1.58,0,0,1,.37,1.05,1.78,1.78,0,0,1-.33,1.06,2.15,2.15,0,0,1-.92.74A3.19,3.19,0,0,1,504.18,328.2Zm7.3-3.71a4,4,0,0,1,.44-1.91,3.17,3.17,0,0,1,1.22-1.29,3.33,3.33,0,0,1,1.74-.46,3.19,3.19,0,0,1,1.55.39,2.72,2.72,0,0,1,1.09,1v-3.77h1.2v9.63h-1.2v-1.34a2.78,2.78,0,0,1-1,1.06,3.13,3.13,0,0,1-1.61.4,3.21,3.21,0,0,1-1.73-.47,3.28,3.28,0,0,1-1.22-1.31A4.19,4.19,0,0,1,511.48,324.49Zm6,0a2.87,2.87,0,0,0-.32-1.4,2.17,2.17,0,0,0-.89-.91,2.29,2.29,0,0,0-1.21-.33,2.28,2.28,0,0,0-2.08,1.22,2.88,2.88,0,0,0-.33,1.41,3,3,0,0,0,.33,1.43,2.44,2.44,0,0,0,.87.93,2.4,2.4,0,0,0,1.21.31,2.37,2.37,0,0,0,1.21-.31,2.35,2.35,0,0,0,.89-.93A3,3,0,0,0,517.52,324.5Zm9.72-.26c0,.23,0,.47,0,.72h-5.71a2.23,2.23,0,0,0,2.32,2.24,2.24,2.24,0,0,0,1.28-.35,2,2,0,0,0,.73-1h1.27a3.07,3.07,0,0,1-1.14,1.68,3.48,3.48,0,0,1-2.14.64,3.67,3.67,0,0,1-1.82-.45,3.3,3.3,0,0,1-1.25-1.29,4,4,0,0,1-.46-2,4.17,4.17,0,0,1,.44-1.94,3.1,3.1,0,0,1,1.24-1.27,3.93,3.93,0,0,1,3.65,0,3.09,3.09,0,0,1,1.2,1.23A3.56,3.56,0,0,1,527.24,324.24ZM526,324a2.13,2.13,0,0,0-.3-1.16,1.92,1.92,0,0,0-.82-.75,2.47,2.47,0,0,0-1.13-.26,2.2,2.2,0,0,0-1.54.58,2.36,2.36,0,0,0-.71,1.59ZM404,343.78a6,6,0,0,1,0,.71h-5.7a2.2,2.2,0,0,0,2.31,2.24,2.15,2.15,0,0,0,1.28-.35,1.89,1.89,0,0,0,.73-1h1.28a3.22,3.22,0,0,1-1.15,1.68,3.53,3.53,0,0,1-2.14.64,3.7,3.7,0,0,1-1.82-.46,3.17,3.17,0,0,1-1.25-1.29A4.1,4.1,0,0,1,397,344a4,4,0,0,1,.45-1.94,3.1,3.1,0,0,1,1.23-1.28,3.76,3.76,0,0,1,1.85-.46,3.54,3.54,0,0,1,1.8.45,3,3,0,0,1,1.2,1.22A3.49,3.49,0,0,1,404,343.78Zm-1.23-.25a2.15,2.15,0,0,0-.29-1.16,1.86,1.86,0,0,0-.83-.74,2.33,2.33,0,0,0-1.13-.26,2.2,2.2,0,0,0-1.53.57,2.33,2.33,0,0,0-.72,1.59Zm2.35.49a4,4,0,0,1,.44-1.91,3.21,3.21,0,0,1,1.21-1.29,3.49,3.49,0,0,1,1.75-.46,3,3,0,0,1,1.61.42,2.61,2.61,0,0,1,1,1v-1.3h1.2V351h-1.2v-4.7a2.76,2.76,0,0,1-1,1,3.13,3.13,0,0,1-1.64.42,3.28,3.28,0,0,1-1.71-.47,3.36,3.36,0,0,1-1.21-1.32A4.16,4.16,0,0,1,405.08,344Zm6,0a3,3,0,0,0-.32-1.41,2.41,2.41,0,0,0-2.1-1.24,2.38,2.38,0,0,0-1.21.32,2.13,2.13,0,0,0-.87.91,2.87,2.87,0,0,0-.33,1.4,3,3,0,0,0,.33,1.44,2.27,2.27,0,0,0,.87.92,2.39,2.39,0,0,0,3.31-.92A3.06,3.06,0,0,0,411.12,344Zm9.53-3.56v7.14h-1.18v-1.06a2.4,2.4,0,0,1-1,.86,3,3,0,0,1-1.33.3,3.19,3.19,0,0,1-1.5-.34,2.56,2.56,0,0,1-1.05-1,3.37,3.37,0,0,1-.38-1.68v-4.18h1.17v4a2.31,2.31,0,0,0,.53,1.62,1.91,1.91,0,0,0,1.46.56,1.94,1.94,0,0,0,1.5-.58,2.44,2.44,0,0,0,.55-1.71v-3.92Zm2.61-1.16a.81.81,0,1,1,0-1.61.75.75,0,0,1,.55.23.81.81,0,0,1,0,1.15A.75.75,0,0,1,423.26,339.32Zm.58,1.16v7.14h-1.19v-7.14ZM427,338v9.64h-1.18V338Zm2.63,1.34a.81.81,0,0,1-.57-.23.83.83,0,0,1,0-1.15.81.81,0,0,1,.57-.23.75.75,0,0,1,.55.23.83.83,0,0,1,0,1.15A.75.75,0,0,1,429.67,339.32Zm.58,1.16v7.14h-1.19v-7.14Zm3.2,1.33a2.75,2.75,0,0,1,1.07-1,3.15,3.15,0,0,1,1.6-.41,3.36,3.36,0,0,1,1.73.46,3.14,3.14,0,0,1,1.21,1.29,3.91,3.91,0,0,1,.45,1.91,4,4,0,0,1-.45,1.93,3.25,3.25,0,0,1-2.94,1.79,3.21,3.21,0,0,1-1.63-.41,2.78,2.78,0,0,1-1-1v1.32h-1.18V338h1.18ZM438.3,344a2.87,2.87,0,0,0-.33-1.4,2.17,2.17,0,0,0-.89-.91,2.38,2.38,0,0,0-3.3.93,2.87,2.87,0,0,0-.33,1.4,3,3,0,0,0,.33,1.42,2.29,2.29,0,0,0,2.09,1.23,2.34,2.34,0,0,0,1.21-.31,2.32,2.32,0,0,0,.89-.92A3,3,0,0,0,438.3,344Zm3.95-2.38a2.27,2.27,0,0,1,.89-.95,2.74,2.74,0,0,1,1.42-.34v1.23h-.32c-1.32,0-2,.72-2,2.16v3.88h-1.18v-7.14h1.18Zm4.29-2.32a.81.81,0,1,1,0-1.61.73.73,0,0,1,.54.23.81.81,0,0,1,0,1.15A.73.73,0,0,1,446.54,339.32Zm.57,1.16v7.14h-1.19v-7.14Zm5.13,7.26a3.73,3.73,0,0,1-1.82-.46,3.24,3.24,0,0,1-1.28-1.29,4.1,4.1,0,0,1-.45-1.95,3.78,3.78,0,0,1,.47-1.93,3.23,3.23,0,0,1,1.3-1.29,3.74,3.74,0,0,1,1.83-.46,3.78,3.78,0,0,1,1.84.46,3.18,3.18,0,0,1,1.29,1.28,4.14,4.14,0,0,1,0,3.89,3.34,3.34,0,0,1-1.32,1.29A3.84,3.84,0,0,1,452.24,347.74Zm0-1.05a2.48,2.48,0,0,0,1.2-.3,2.33,2.33,0,0,0,.9-.89,3.26,3.26,0,0,0,0-2.92,2.16,2.16,0,0,0-.88-.89,2.45,2.45,0,0,0-1.19-.3,2.48,2.48,0,0,0-1.2.3,2.17,2.17,0,0,0-.86.89,3.09,3.09,0,0,0-.32,1.46,3.13,3.13,0,0,0,.31,1.47,2.2,2.2,0,0,0,.86.9A2.44,2.44,0,0,0,452.24,346.69Z"/><path class="cls-3" d="M397.58,399.71,395.41,396H394v3.72H392.8v-9.08h2.93a3.92,3.92,0,0,1,1.73.35,2.5,2.5,0,0,1,1.07.95,2.71,2.71,0,0,1,.35,1.37,2.61,2.61,0,0,1-.55,1.65,2.55,2.55,0,0,1-1.61.95l2.28,3.81ZM394,395h1.75a2,2,0,0,0,1.44-.46,1.75,1.75,0,0,0,.48-1.28,1.61,1.61,0,0,0-.48-1.25,2,2,0,0,0-1.44-.44H394Zm13.25.82a6,6,0,0,1,0,.72h-5.7a2.22,2.22,0,0,0,2.32,2.24,2.21,2.21,0,0,0,1.27-.35,1.93,1.93,0,0,0,.73-1h1.28a3.1,3.1,0,0,1-1.15,1.67,3.43,3.43,0,0,1-2.13.64,3.7,3.7,0,0,1-1.83-.45,3.37,3.37,0,0,1-1.25-1.29,4.14,4.14,0,0,1-.45-2,4.05,4.05,0,0,1,.44-1.94,3,3,0,0,1,1.24-1.27,3.6,3.6,0,0,1,1.85-.46,3.53,3.53,0,0,1,1.79.45,3,3,0,0,1,1.2,1.22A3.45,3.45,0,0,1,407.23,395.86Zm-1.22-.24a2.15,2.15,0,0,0-.3-1.16,1.89,1.89,0,0,0-.82-.74,2.39,2.39,0,0,0-1.14-.26,2.22,2.22,0,0,0-1.53.57,2.33,2.33,0,0,0-.72,1.59Zm2.34.49a4,4,0,0,1,.44-1.91,3.17,3.17,0,0,1,1.22-1.29,3.29,3.29,0,0,1,1.73-.46,3.18,3.18,0,0,1,1.63.41,2.61,2.61,0,0,1,1,1v-1.3h1.2v7.14h-1.2v-1.33a2.83,2.83,0,0,1-1.05,1,3.41,3.41,0,0,1-3.33-.07,3.28,3.28,0,0,1-1.22-1.31A4.19,4.19,0,0,1,408.35,396.11Zm6,0a2.87,2.87,0,0,0-.32-1.4,2.23,2.23,0,0,0-.89-.91,2.29,2.29,0,0,0-1.21-.33,2.5,2.5,0,0,0-1.21.31,2.34,2.34,0,0,0-.87.92,2.81,2.81,0,0,0-.33,1.4,2.93,2.93,0,0,0,.33,1.43,2.44,2.44,0,0,0,.87.93,2.4,2.4,0,0,0,1.21.31,2.37,2.37,0,0,0,1.21-.31,2.35,2.35,0,0,0,.89-.93A2.92,2.92,0,0,0,414.39,396.12Zm4.39-6.05v9.64h-1.19v-9.64Zm2.63,1.34a.8.8,0,0,1-.81-.81.78.78,0,0,1,.24-.57.75.75,0,0,1,.57-.23.71.71,0,0,1,.55.23.83.83,0,0,1,0,1.15A.75.75,0,0,1,421.41,391.41Zm.57,1.16v7.14H420.8v-7.14Zm2.91,6.16h3.5v1h-4.85v-1l3.46-5.2h-3.44v-1h4.81v1Zm4.6-2.62a4,4,0,0,1,.44-1.91,3.14,3.14,0,0,1,1.21-1.29,3.32,3.32,0,0,1,1.73-.46,3.16,3.16,0,0,1,1.63.41,2.7,2.7,0,0,1,1,1v-1.3h1.2v7.14h-1.2v-1.33a2.86,2.86,0,0,1-1.06,1,3.1,3.1,0,0,1-1.61.4,3.18,3.18,0,0,1-1.72-.47,3.26,3.26,0,0,1-1.21-1.31A4.19,4.19,0,0,1,429.49,396.11Zm6,0a2.87,2.87,0,0,0-.33-1.4,2.21,2.21,0,0,0-.88-.91,2.32,2.32,0,0,0-1.21-.33,2.45,2.45,0,0,0-1.21.31,2.3,2.3,0,0,0-.88.92,2.92,2.92,0,0,0-.32,1.4,3,3,0,0,0,.32,1.43,2.39,2.39,0,0,0,.88.93,2.34,2.34,0,0,0,1.21.31,2.4,2.4,0,0,0,1.21-.31,2.32,2.32,0,0,0,.88-.93A2.92,2.92,0,0,0,435.53,396.12Zm13.18-.26a6,6,0,0,1,0,.72H443a2.23,2.23,0,0,0,2.32,2.24,2.19,2.19,0,0,0,1.27-.35,1.93,1.93,0,0,0,.73-1h1.28a3,3,0,0,1-1.15,1.67,3.43,3.43,0,0,1-2.13.64,3.7,3.7,0,0,1-1.83-.45,3.44,3.44,0,0,1-1.25-1.29,4.5,4.5,0,0,1,0-3.9,3.1,3.1,0,0,1,1.24-1.27,3.63,3.63,0,0,1,1.85-.46,3.53,3.53,0,0,1,1.79.45,2.88,2.88,0,0,1,1.2,1.22A3.45,3.45,0,0,1,448.71,395.86Zm-1.22-.24a2.15,2.15,0,0,0-.3-1.16,1.84,1.84,0,0,0-.82-.74,2.38,2.38,0,0,0-1.13-.26,2.24,2.24,0,0,0-1.54.57,2.33,2.33,0,0,0-.72,1.59Zm3.43-4.21a.82.82,0,0,1-.58-.23.86.86,0,0,1,0-1.15.78.78,0,0,1,.58-.23.73.73,0,0,1,.56.23.83.83,0,0,1,0,1.15A.77.77,0,0,1,450.92,391.41Zm.58,9.85a1.82,1.82,0,0,1-.48,1.39,2,2,0,0,1-1.41.44h-.69v-1h.5a1,1,0,0,0,.69-.2.87.87,0,0,0,.21-.66v-8.66h1.18Zm8.52-5.4a6,6,0,0,1,0,.72h-5.7a2.32,2.32,0,0,0,.71,1.65,2.3,2.3,0,0,0,1.6.59,2.22,2.22,0,0,0,1.28-.35,1.93,1.93,0,0,0,.73-1h1.28a3.15,3.15,0,0,1-1.15,1.67,3.46,3.46,0,0,1-2.14.64,3.69,3.69,0,0,1-1.82-.45,3.3,3.3,0,0,1-1.25-1.29,4.14,4.14,0,0,1-.46-2,4.05,4.05,0,0,1,.45-1.94,3,3,0,0,1,1.23-1.27,3.65,3.65,0,0,1,1.85-.46,3.54,3.54,0,0,1,1.8.45,3,3,0,0,1,1.2,1.22A3.45,3.45,0,0,1,460,395.86Zm-1.23-.24a2.15,2.15,0,0,0-.3-1.16,1.84,1.84,0,0,0-.82-.74,2.33,2.33,0,0,0-1.13-.26A2.24,2.24,0,0,0,455,394a2.36,2.36,0,0,0-.71,1.59Zm4-1.89a2.25,2.25,0,0,1,.88-1,2.77,2.77,0,0,1,1.42-.34v1.22h-.31c-1.33,0-2,.72-2,2.17v3.88h-1.19v-7.14h1.19Zm3.23,2.39a3.92,3.92,0,0,1,.44-1.92,3.1,3.1,0,0,1,1.22-1.29,3.9,3.9,0,0,1,4,.18,3,3,0,0,1,1.13,1.77h-1.28a1.88,1.88,0,0,0-.71-1,2.18,2.18,0,0,0-1.31-.37,2.1,2.1,0,0,0-1.64.7,2.84,2.84,0,0,0-.62,2,3,3,0,0,0,.62,2,2.1,2.1,0,0,0,1.64.7,2.25,2.25,0,0,0,1.31-.36,1.89,1.89,0,0,0,.71-1h1.28a3.13,3.13,0,0,1-1.15,1.76,3.42,3.42,0,0,1-2.15.65,3.63,3.63,0,0,1-1.81-.45,3.23,3.23,0,0,1-1.22-1.29A4.08,4.08,0,0,1,466,396.12Zm9-4.71a.81.81,0,0,1-.57-.23.81.81,0,0,1,0-1.15.77.77,0,0,1,.57-.23.71.71,0,0,1,.55.23.83.83,0,0,1,0,1.15A.75.75,0,0,1,475,391.41Zm.58,1.16v7.14h-1.19v-7.14Zm1.57,3.55a4,4,0,0,1,.44-1.92,3.19,3.19,0,0,1,1.23-1.29,3.88,3.88,0,0,1,4,.18,3,3,0,0,1,1.13,1.77h-1.27a1.85,1.85,0,0,0-.72-1,2.17,2.17,0,0,0-1.3-.37,2.07,2.07,0,0,0-1.64.7,2.8,2.8,0,0,0-.63,2,2.91,2.91,0,0,0,.63,2,2.07,2.07,0,0,0,1.64.7,2.24,2.24,0,0,0,1.3-.36,1.85,1.85,0,0,0,.72-1h1.27a3.16,3.16,0,0,1-1.14,1.76,3.44,3.44,0,0,1-2.15.65,3.6,3.6,0,0,1-1.81-.45,3.32,3.32,0,0,1-1.23-1.29A4.2,4.2,0,0,1,477.11,396.12Zm9-4.71a.81.81,0,0,1-.58-1.38.78.78,0,0,1,.58-.23.69.69,0,0,1,.54.23.81.81,0,0,1,0,1.15A.73.73,0,0,1,486.08,391.41Zm.57,1.16v7.14h-1.19v-7.14Zm5.13,7.25a3.69,3.69,0,0,1-1.82-.45,3.37,3.37,0,0,1-1.28-1.29,4.14,4.14,0,0,1-.45-2,3.87,3.87,0,0,1,.46-1.92,3.25,3.25,0,0,1,1.31-1.29,3.63,3.63,0,0,1,1.83-.46,3.67,3.67,0,0,1,1.84.46,3.15,3.15,0,0,1,1.29,1.27,4.16,4.16,0,0,1,0,3.9,3.48,3.48,0,0,1-1.32,1.29A3.84,3.84,0,0,1,491.78,399.82Zm0-1a2.48,2.48,0,0,0,1.2-.3,2.29,2.29,0,0,0,.9-.9,3.24,3.24,0,0,0,0-2.91,2.16,2.16,0,0,0-.88-.89,2.45,2.45,0,0,0-1.19-.3,2.48,2.48,0,0,0-1.2.3,2.17,2.17,0,0,0-.86.89,3.08,3.08,0,0,0-.32,1.45,3.15,3.15,0,0,0,.31,1.48,2.17,2.17,0,0,0,.86.89A2.36,2.36,0,0,0,491.78,398.78Zm7.74,1a3.85,3.85,0,0,1-1.47-.27,2.64,2.64,0,0,1-1-.78,2.09,2.09,0,0,1-.41-1.16h1.22a1.19,1.19,0,0,0,.5.87,1.9,1.9,0,0,0,1.18.34,1.72,1.72,0,0,0,1.07-.3.91.91,0,0,0,.39-.75.72.72,0,0,0-.42-.69,5.23,5.23,0,0,0-1.29-.46,10.56,10.56,0,0,1-1.3-.42,2.42,2.42,0,0,1-.86-.64,1.71,1.71,0,0,1-.35-1.12,1.69,1.69,0,0,1,.33-1,2.09,2.09,0,0,1,.92-.71,3.17,3.17,0,0,1,1.37-.28,2.89,2.89,0,0,1,1.91.6,2.14,2.14,0,0,1,.78,1.64h-1.18a1.24,1.24,0,0,0-.46-.9,1.67,1.67,0,0,0-1.09-.33,1.74,1.74,0,0,0-1,.27.83.83,0,0,0-.37.71.82.82,0,0,0,.22.59,1.81,1.81,0,0,0,.57.37l1,.3a8,8,0,0,1,1.25.41,2,2,0,0,1,.82.6,1.58,1.58,0,0,1,.37,1.06,1.77,1.77,0,0,1-.33,1.05,2.15,2.15,0,0,1-.92.74A3.21,3.21,0,0,1,499.52,399.82Zm7.31-3.71a4,4,0,0,1,.44-1.91,3.21,3.21,0,0,1,1.21-1.29,3.39,3.39,0,0,1,1.75-.46,3.19,3.19,0,0,1,1.55.39,2.74,2.74,0,0,1,1.09,1v-3.78h1.2v9.64h-1.2v-1.35a2.78,2.78,0,0,1-1,1.06,3.13,3.13,0,0,1-1.61.4,3.27,3.27,0,0,1-1.74-.47,3.33,3.33,0,0,1-1.21-1.31A4.19,4.19,0,0,1,506.83,396.11Zm6,0a2.87,2.87,0,0,0-.32-1.4,2.23,2.23,0,0,0-.89-.91,2.29,2.29,0,0,0-1.21-.33,2.47,2.47,0,0,0-1.21.31,2.28,2.28,0,0,0-.87.92,2.81,2.81,0,0,0-.33,1.4,2.93,2.93,0,0,0,.33,1.43,2.37,2.37,0,0,0,4.18,0A2.92,2.92,0,0,0,512.87,396.12Zm9.71-.26q0,.34,0,.72h-5.71a2.33,2.33,0,0,0,.72,1.65,2.28,2.28,0,0,0,1.6.59,2.24,2.24,0,0,0,1.28-.35,2,2,0,0,0,.73-1h1.27a3.08,3.08,0,0,1-1.14,1.67,3.48,3.48,0,0,1-2.14.64,3.67,3.67,0,0,1-1.82-.45,3.3,3.3,0,0,1-1.25-1.29,4,4,0,0,1-.46-2,4.17,4.17,0,0,1,.44-1.94,3.1,3.1,0,0,1,1.24-1.27,3.63,3.63,0,0,1,1.85-.46,3.54,3.54,0,0,1,1.8.45,2.91,2.91,0,0,1,1.19,1.22A3.45,3.45,0,0,1,522.58,395.86Zm-1.22-.24a2.15,2.15,0,0,0-.3-1.16,1.84,1.84,0,0,0-.82-.74,2.38,2.38,0,0,0-1.13-.26,2.24,2.24,0,0,0-1.54.57,2.37,2.37,0,0,0-.72,1.59ZM395.7,413.08h-1.5v6.16H393v-6.16h-.93v-1H393v-.51a2.22,2.22,0,0,1,.61-1.74,3,3,0,0,1,2-.56v1a1.54,1.54,0,0,0-1.1.31,1.35,1.35,0,0,0-.32,1v.51h1.5Zm4.49,6.28a3.76,3.76,0,0,1-1.82-.46,3.22,3.22,0,0,1-1.27-1.29,4,4,0,0,1-.46-1.95,3.91,3.91,0,0,1,.47-1.93,3.29,3.29,0,0,1,1.3-1.29,3.77,3.77,0,0,1,1.84-.45,3.73,3.73,0,0,1,1.83.45,3.18,3.18,0,0,1,1.29,1.28,4.14,4.14,0,0,1,0,3.89A3.28,3.28,0,0,1,402,418.9,3.81,3.81,0,0,1,400.19,419.36Zm0-1.05a2.48,2.48,0,0,0,1.2-.3,2.14,2.14,0,0,0,.9-.89,2.8,2.8,0,0,0,.35-1.46,2.87,2.87,0,0,0-.34-1.46,2.16,2.16,0,0,0-.88-.89,2.45,2.45,0,0,0-1.19-.3,2.42,2.42,0,0,0-1.19.3,2.06,2.06,0,0,0-.86.89,3,3,0,0,0-.33,1.46,3.13,3.13,0,0,0,.31,1.47,2.27,2.27,0,0,0,.86.9A2.46,2.46,0,0,0,400.19,418.31Zm6.41-5.05a2.31,2.31,0,0,1,.88-.95,2.87,2.87,0,0,1,1.42-.34v1.23h-.31c-1.33,0-2,.72-2,2.16v3.88h-1.19V412.1h1.19Zm5.12-.18v4.21a1,1,0,0,0,.22.74,1.08,1.08,0,0,0,.76.21h.88v1h-1.07a2.13,2.13,0,0,1-1.49-.46,1.94,1.94,0,0,1-.49-1.49v-4.21h-.92v-1h.92v-1.79h1.19v1.79h1.86v1Zm2.85,2.56a4,4,0,0,1,.44-1.91,3.34,3.34,0,0,1,1.21-1.29A3.45,3.45,0,0,1,418,412a3.14,3.14,0,0,1,1.62.4,2.66,2.66,0,0,1,1,1V412.1h1.2v7.14h-1.2v-1.33a2.76,2.76,0,0,1-1.05,1,3.14,3.14,0,0,1-1.62.41,3.29,3.29,0,0,1-1.72-.47,3.36,3.36,0,0,1-1.21-1.32A4.13,4.13,0,0,1,414.57,415.64Zm6,0a3,3,0,0,0-.32-1.41,2.41,2.41,0,0,0-2.1-1.24,2.38,2.38,0,0,0-1.21.32,2.25,2.25,0,0,0-.87.91,2.87,2.87,0,0,0-.33,1.4,3,3,0,0,0,.33,1.44,2.28,2.28,0,0,0,.87.92,2.52,2.52,0,0,0,2.42,0,2.32,2.32,0,0,0,.89-.92A3.06,3.06,0,0,0,420.61,415.66ZM425,409.6v9.64h-1.19V409.6Zm8.53,5.8a6,6,0,0,1,0,.71h-5.7a2.2,2.2,0,0,0,2.31,2.24,2.15,2.15,0,0,0,1.28-.35,1.89,1.89,0,0,0,.73-1h1.28a3.22,3.22,0,0,1-1.15,1.68,3.51,3.51,0,0,1-2.14.64,3.7,3.7,0,0,1-1.82-.46,3.24,3.24,0,0,1-1.25-1.29,4.07,4.07,0,0,1-.45-1.95,4,4,0,0,1,.44-1.94,3.1,3.1,0,0,1,1.23-1.28,3.75,3.75,0,0,1,1.85-.45,3.53,3.53,0,0,1,1.8.44,3,3,0,0,1,1.2,1.22A3.49,3.49,0,0,1,433.53,415.4Zm-1.23-.25A2.15,2.15,0,0,0,432,414a1.86,1.86,0,0,0-.83-.74,2.33,2.33,0,0,0-1.13-.26,2.2,2.2,0,0,0-1.53.57,2.33,2.33,0,0,0-.72,1.59Zm2.35.51a4.07,4.07,0,0,1,.44-1.93,3.32,3.32,0,0,1,1.23-1.29,3.6,3.6,0,0,1,1.81-.45,3.54,3.54,0,0,1,2.16.63,3,3,0,0,1,1.13,1.77h-1.27a1.84,1.84,0,0,0-.72-1,2.11,2.11,0,0,0-1.3-.38,2.07,2.07,0,0,0-1.64.7,2.83,2.83,0,0,0-.63,2,2.88,2.88,0,0,0,.63,2,2.07,2.07,0,0,0,1.64.7,2.24,2.24,0,0,0,1.3-.36,1.83,1.83,0,0,0,.72-1h1.27a3.14,3.14,0,0,1-1.14,1.75,3.44,3.44,0,0,1-2.15.66,3.61,3.61,0,0,1-1.81-.46,3.19,3.19,0,0,1-1.23-1.29A4.15,4.15,0,0,1,434.65,415.66Zm9-4.72a.78.78,0,0,1-.58-.23.81.81,0,0,1,.58-1.38.74.74,0,0,1,.54.23.81.81,0,0,1,0,1.15A.7.7,0,0,1,443.62,410.94Zm.57,1.16v7.14H443V412.1Zm10.6-.13a3.11,3.11,0,0,1,1.48.35,2.44,2.44,0,0,1,1,1,3.48,3.48,0,0,1,.38,1.68v4.21h-1.17v-4a2.27,2.27,0,0,0-.54-1.63,1.82,1.82,0,0,0-1.42-.57,1.91,1.91,0,0,0-1.47.6,2.44,2.44,0,0,0-.54,1.71v3.93h-1.18v-4a2.27,2.27,0,0,0-.53-1.63,1.83,1.83,0,0,0-1.42-.57,1.88,1.88,0,0,0-1.47.6,2.39,2.39,0,0,0-.55,1.71v3.93h-1.18V412.1h1.18v1a2.43,2.43,0,0,1,.94-.86,2.91,2.91,0,0,1,1.32-.3,3.07,3.07,0,0,1,1.58.41,2.43,2.43,0,0,1,1,1.18,2.36,2.36,0,0,1,1-1.17A2.9,2.9,0,0,1,454.79,412Zm5.45-1a.78.78,0,0,1-.58-.23.81.81,0,0,1,.58-1.38.73.73,0,0,1,.54.23.81.81,0,0,1,0,1.15A.69.69,0,0,1,460.24,410.94Zm.57,1.16v7.14h-1.19V412.1Zm8.53,3.3a6,6,0,0,1,0,.71h-5.7a2.2,2.2,0,0,0,2.31,2.24,2.15,2.15,0,0,0,1.28-.35,1.89,1.89,0,0,0,.73-1h1.28a3.16,3.16,0,0,1-1.15,1.68,3.51,3.51,0,0,1-2.14.64,3.7,3.7,0,0,1-1.82-.46,3.24,3.24,0,0,1-1.25-1.29,4.07,4.07,0,0,1-.45-1.95,4,4,0,0,1,.44-1.94,3.06,3.06,0,0,1,1.24-1.28,3.69,3.69,0,0,1,1.84-.45,3.53,3.53,0,0,1,1.8.44,3,3,0,0,1,1.2,1.22A3.49,3.49,0,0,1,469.34,415.4Zm-1.22-.25a2.15,2.15,0,0,0-.3-1.16,1.89,1.89,0,0,0-.82-.74,2.39,2.39,0,0,0-1.14-.26,2.2,2.2,0,0,0-1.53.57,2.33,2.33,0,0,0-.72,1.59Zm6.26-3.18a2.88,2.88,0,0,1,2.11.8,3,3,0,0,1,.81,2.26v4.21h-1.17v-4a2.27,2.27,0,0,0-.54-1.63,1.89,1.89,0,0,0-1.46-.57,2,2,0,0,0-1.49.59,2.38,2.38,0,0,0-.55,1.7v3.95H470.9V412.1h1.19v1a2.3,2.3,0,0,1,1-.85A3,3,0,0,1,474.38,412Zm6.3,1.11v4.21a1,1,0,0,0,.22.74,1.11,1.11,0,0,0,.77.21h.87v1h-1.07a2.08,2.08,0,0,1-1.48-.46,1.94,1.94,0,0,1-.5-1.49v-4.21h-.92v-1h.92v-1.79h1.19v1.79h1.86v1Zm6.41,6.28a3.7,3.7,0,0,1-1.82-.46,3.24,3.24,0,0,1-1.28-1.29,4.07,4.07,0,0,1-.46-1.95,3.91,3.91,0,0,1,.47-1.93,3.36,3.36,0,0,1,1.3-1.29,4,4,0,0,1,3.68,0,3.31,3.31,0,0,1,1.29,1.28,4.11,4.11,0,0,1,0,3.89,3.32,3.32,0,0,1-1.31,1.29A3.84,3.84,0,0,1,487.09,419.36Zm0-1.05a2.54,2.54,0,0,0,1.2-.3,2.18,2.18,0,0,0,.89-.89,2.8,2.8,0,0,0,.36-1.46,3,3,0,0,0-.34-1.46,2.18,2.18,0,0,0-.89-.89,2.51,2.51,0,0,0-2.38,0,2.11,2.11,0,0,0-.86.89,3,3,0,0,0-.33,1.46,3.13,3.13,0,0,0,.32,1.47,2.14,2.14,0,0,0,.86.9A2.41,2.41,0,0,0,487.09,418.31Z"/><path class="cls-3" d="M395.72,471.33l-2.17-3.71h-1.43v3.71h-1.18v-9.08h2.93a3.92,3.92,0,0,1,1.73.35,2.5,2.5,0,0,1,1.07.95,2.71,2.71,0,0,1,.35,1.37,2.59,2.59,0,0,1-.55,1.65,2.55,2.55,0,0,1-1.61.95l2.28,3.81Zm-3.6-4.66h1.75a2,2,0,0,0,1.44-.47,1.74,1.74,0,0,0,.48-1.28,1.61,1.61,0,0,0-.48-1.25,2.05,2.05,0,0,0-1.44-.44h-1.75Zm13.25.82a6,6,0,0,1,0,.71h-5.7a2.2,2.2,0,0,0,2.32,2.24,2.21,2.21,0,0,0,1.27-.35,1.89,1.89,0,0,0,.73-1h1.28a3.16,3.16,0,0,1-1.15,1.68,3.49,3.49,0,0,1-2.13.63,3.7,3.7,0,0,1-1.83-.45,3.37,3.37,0,0,1-1.25-1.29,4.12,4.12,0,0,1-.45-1.95,4,4,0,0,1,.44-1.94,3,3,0,0,1,1.24-1.28,3.7,3.7,0,0,1,1.85-.46,3.53,3.53,0,0,1,1.79.45,3,3,0,0,1,1.2,1.22A3.47,3.47,0,0,1,405.37,467.49Zm-1.22-.25a2.15,2.15,0,0,0-.3-1.16,1.89,1.89,0,0,0-.82-.74,2.39,2.39,0,0,0-1.14-.26,2.2,2.2,0,0,0-1.53.57,2.33,2.33,0,0,0-.72,1.59Zm2.34.49a4,4,0,0,1,.44-1.91,3.17,3.17,0,0,1,1.22-1.29,3.39,3.39,0,0,1,1.73-.46,3.12,3.12,0,0,1,1.62.41,2.57,2.57,0,0,1,1,1v-1.3h1.2v7.14h-1.2V470a2.76,2.76,0,0,1-1,1,3.14,3.14,0,0,1-1.62.4,3.22,3.22,0,0,1-1.71-.46,3.38,3.38,0,0,1-1.22-1.32A4.16,4.16,0,0,1,406.49,467.73Zm6,0a2.88,2.88,0,0,0-.32-1.41,2.23,2.23,0,0,0-.89-.91,2.29,2.29,0,0,0-1.21-.33,2.5,2.5,0,0,0-1.21.31,2.34,2.34,0,0,0-.87.92,2.84,2.84,0,0,0-.33,1.4,3,3,0,0,0,.33,1.44,2.49,2.49,0,0,0,.87.92,2.4,2.4,0,0,0,1.21.31,2.32,2.32,0,0,0,2.1-1.23A3,3,0,0,0,412.53,467.75Zm4.39-6.06v9.64h-1.19v-9.64Zm2.63,1.34a.8.8,0,0,1-.81-.81.78.78,0,0,1,.24-.57.79.79,0,0,1,.57-.23.75.75,0,0,1,.55.23.83.83,0,0,1,0,1.15A.75.75,0,0,1,419.55,463Zm.57,1.16v7.14h-1.18v-7.14Zm2.91,6.16h3.5v1h-4.85v-1l3.46-5.2H421.7v-1h4.81v1Zm4.6-2.62a3.9,3.9,0,0,1,.44-1.91,3.14,3.14,0,0,1,1.21-1.29,3.42,3.42,0,0,1,1.73-.46,3.16,3.16,0,0,1,1.63.41,2.7,2.7,0,0,1,1,1v-1.3h1.2v7.14h-1.2V470a2.86,2.86,0,0,1-1.06,1,3.1,3.1,0,0,1-1.61.4,3.26,3.26,0,0,1-1.72-.46,3.36,3.36,0,0,1-1.21-1.32A4,4,0,0,1,427.63,467.73Zm6,0a2.88,2.88,0,0,0-.33-1.41,2.21,2.21,0,0,0-.88-.91,2.32,2.32,0,0,0-1.21-.33,2.45,2.45,0,0,0-1.21.31,2.3,2.3,0,0,0-.88.92,3,3,0,0,0-.32,1.4,3.12,3.12,0,0,0,.32,1.44,2.43,2.43,0,0,0,.88.92,2.34,2.34,0,0,0,1.21.31,2.4,2.4,0,0,0,1.21-.31,2.36,2.36,0,0,0,.88-.92A3,3,0,0,0,433.67,467.75Zm8.12-2.58v4.2a1,1,0,0,0,.22.75,1.17,1.17,0,0,0,.77.2h.87v1h-1.07a2.08,2.08,0,0,1-1.48-.46,2,2,0,0,1-.5-1.5v-4.2h-.92v-1h.92v-1.8h1.19v1.8h1.86v1Zm2.85,2.56a4,4,0,0,1,.44-1.91,3.17,3.17,0,0,1,1.22-1.29,3.39,3.39,0,0,1,1.73-.46,3.18,3.18,0,0,1,1.63.41,2.61,2.61,0,0,1,1,1v-1.3h1.2v7.14h-1.2V470a2.76,2.76,0,0,1-1.05,1,3.14,3.14,0,0,1-1.62.4,3.22,3.22,0,0,1-1.71-.46,3.38,3.38,0,0,1-1.22-1.32A4.16,4.16,0,0,1,444.64,467.73Zm6,0a2.88,2.88,0,0,0-.32-1.41,2.23,2.23,0,0,0-.89-.91,2.27,2.27,0,0,0-1.21-.33,2.5,2.5,0,0,0-1.21.31,2.34,2.34,0,0,0-.87.92,2.84,2.84,0,0,0-.33,1.4,3,3,0,0,0,.33,1.44,2.49,2.49,0,0,0,.87.92,2.4,2.4,0,0,0,1.21.31,2.34,2.34,0,0,0,1.21-.31,2.39,2.39,0,0,0,.89-.92A3,3,0,0,0,450.68,467.75Zm4.39-6.06v9.64h-1.18v-9.64Zm5.13,9.75a3.72,3.72,0,0,1-1.82-.45,3.37,3.37,0,0,1-1.28-1.29,4.12,4.12,0,0,1-.45-1.95,3.78,3.78,0,0,1,.47-1.93,3.17,3.17,0,0,1,1.3-1.29,3.74,3.74,0,0,1,1.83-.46,3.78,3.78,0,0,1,1.84.46,3.12,3.12,0,0,1,1.29,1.28,4.14,4.14,0,0,1,0,3.89,3.41,3.41,0,0,1-1.32,1.29A3.81,3.81,0,0,1,460.2,471.44Zm0-1a2.48,2.48,0,0,0,1.2-.3,2.29,2.29,0,0,0,.9-.9,2.83,2.83,0,0,0,.35-1.45,2.87,2.87,0,0,0-.34-1.46,2.16,2.16,0,0,0-.88-.89,2.45,2.45,0,0,0-1.19-.3,2.48,2.48,0,0,0-1.2.3,2.17,2.17,0,0,0-.86.89,3.09,3.09,0,0,0-.32,1.46,3.13,3.13,0,0,0,.31,1.47,2.2,2.2,0,0,0,.86.9A2.46,2.46,0,0,0,460.2,470.4Zm1.33-8.32-2.77,1.49v-.89l2.77-1.63Zm7.37,2a2.93,2.93,0,0,1,2.11.79,3.06,3.06,0,0,1,.8,2.27v4.21h-1.17v-4a2.32,2.32,0,0,0-.53-1.63,2.18,2.18,0,0,0-3,0,2.41,2.41,0,0,0-.55,1.7v3.95h-1.18v-7.14h1.18v1a2.43,2.43,0,0,1,.95-.85A3,3,0,0,1,468.9,464.06Zm9.8,2v1h-5.2v-1Zm3.41-.54a2.76,2.76,0,0,1,1-1,3.12,3.12,0,0,1,1.63-.42,3.32,3.32,0,0,1,1.71.46,3.19,3.19,0,0,1,1.23,1.29,4,4,0,0,1,.44,1.91,4.16,4.16,0,0,1-.44,1.93,3.4,3.4,0,0,1-1.23,1.32,3.22,3.22,0,0,1-1.71.46,3.19,3.19,0,0,1-1.62-.4,3,3,0,0,1-1.05-1v4.7h-1.19V464.19h1.19Zm4.84,2.22a2.84,2.84,0,0,0-.33-1.4,2.23,2.23,0,0,0-.88-.92,2.5,2.5,0,0,0-1.21-.31,2.39,2.39,0,0,0-2.1,1.25,2.87,2.87,0,0,0-.32,1.4,3,3,0,0,0,.32,1.42,2.54,2.54,0,0,0,.89.92,2.52,2.52,0,0,0,2.42,0,2.36,2.36,0,0,0,.88-.92A3,3,0,0,0,487,467.73Zm9.1-3.54v7.14h-1.19v-1.06a2.27,2.27,0,0,1-.95.86,2.91,2.91,0,0,1-1.32.3,3.19,3.19,0,0,1-1.5-.34,2.59,2.59,0,0,1-1.06-1,3.48,3.48,0,0,1-.37-1.68v-4.18h1.17v4a2.32,2.32,0,0,0,.53,1.63,1.9,1.9,0,0,0,1.46.56,2,2,0,0,0,1.5-.58,2.44,2.44,0,0,0,.54-1.71v-3.92Zm5.48-.13a2.92,2.92,0,0,1,2.11.79,3,3,0,0,1,.8,2.27v4.21h-1.17v-4a2.32,2.32,0,0,0-.53-1.63,1.91,1.91,0,0,0-1.46-.57,2,2,0,0,0-1.5.59,2.41,2.41,0,0,0-.54,1.7v3.95h-1.19v-7.14h1.19v1a2.3,2.3,0,0,1,.95-.85A3,3,0,0,1,501.53,464.06Zm6.3,1.11v4.2a1,1,0,0,0,.22.75,1.14,1.14,0,0,0,.76.2h.88v1h-1.07a2.13,2.13,0,0,1-1.49-.46,2,2,0,0,1-.49-1.5v-4.2h-.92v-1h.92v-1.8h1.19v1.8h1.86v1Zm2.85,2.56a4,4,0,0,1,.44-1.91,3.21,3.21,0,0,1,1.21-1.29,3.45,3.45,0,0,1,1.74-.46,3.14,3.14,0,0,1,1.62.41,2.63,2.63,0,0,1,1,1v-1.3h1.2v7.14h-1.2V470a2.76,2.76,0,0,1-1.05,1,3.14,3.14,0,0,1-1.62.4,3.28,3.28,0,0,1-1.72-.46,3.43,3.43,0,0,1-1.21-1.32A4.16,4.16,0,0,1,510.68,467.73Zm6,0a3,3,0,0,0-.32-1.41,2.41,2.41,0,0,0-2.1-1.24,2.47,2.47,0,0,0-1.21.31,2.28,2.28,0,0,0-.87.92,2.84,2.84,0,0,0-.33,1.4,3,3,0,0,0,.33,1.44,2.41,2.41,0,0,0,.87.92,2.52,2.52,0,0,0,2.42,0,2.46,2.46,0,0,0,.89-.92A3.09,3.09,0,0,0,516.72,467.75Zm6.23,0a4.07,4.07,0,0,1,.44-1.93,3.19,3.19,0,0,1,1.23-1.29,3.61,3.61,0,0,1,1.81-.46,3.51,3.51,0,0,1,2.16.64,3,3,0,0,1,1.13,1.77h-1.27a1.85,1.85,0,0,0-.72-1,2.17,2.17,0,0,0-1.3-.37,2.07,2.07,0,0,0-1.64.7,2.81,2.81,0,0,0-.63,2,2.88,2.88,0,0,0,.63,2,2.07,2.07,0,0,0,1.64.7,2.24,2.24,0,0,0,1.3-.36,1.86,1.86,0,0,0,.72-1h1.27a3.17,3.17,0,0,1-1.14,1.75,3.44,3.44,0,0,1-2.15.65,3.6,3.6,0,0,1-1.81-.45,3.32,3.32,0,0,1-1.23-1.29A4.18,4.18,0,0,1,523,467.75Zm11.47,3.69a3.76,3.76,0,0,1-1.83-.45,3.42,3.42,0,0,1-1.27-1.29,4,4,0,0,1-.46-1.95,3.88,3.88,0,0,1,.47-1.93,3.23,3.23,0,0,1,1.3-1.29,3.91,3.91,0,0,1,3.68,0,3.16,3.16,0,0,1,1.28,1.28,3.71,3.71,0,0,1,.49,1.94,3.82,3.82,0,0,1-.5,1.95,3.45,3.45,0,0,1-1.31,1.29A3.86,3.86,0,0,1,534.42,471.44Zm0-1a2.47,2.47,0,0,0,1.19-.3,2.17,2.17,0,0,0,.9-.9,2.74,2.74,0,0,0,.36-1.45,3,3,0,0,0-.34-1.46,2.18,2.18,0,0,0-.89-.89,2.51,2.51,0,0,0-2.38,0,2.11,2.11,0,0,0-.86.89,3,3,0,0,0-.33,1.46,3.13,3.13,0,0,0,.32,1.47,2.18,2.18,0,0,0,.85.9A2.48,2.48,0,0,0,534.42,470.4Zm8.69-6.34a2.92,2.92,0,0,1,2.11.79,3,3,0,0,1,.81,2.27v4.21h-1.17v-4a2.27,2.27,0,0,0-.54-1.63,1.89,1.89,0,0,0-1.46-.57,1.93,1.93,0,0,0-1.49.59,2.37,2.37,0,0,0-.55,1.7v3.95h-1.19v-7.14h1.19v1a2.3,2.3,0,0,1,.95-.85A3,3,0,0,1,543.11,464.06ZM394.05,491a3.59,3.59,0,0,1-1.82-.46,3.24,3.24,0,0,1-1.28-1.29,4.07,4.07,0,0,1-.46-2,3.91,3.91,0,0,1,.47-1.93,3.36,3.36,0,0,1,1.3-1.29,4,4,0,0,1,3.68,0,3.31,3.31,0,0,1,1.29,1.28,4.11,4.11,0,0,1,0,3.89,3.32,3.32,0,0,1-1.31,1.29A3.73,3.73,0,0,1,394.05,491Zm0-1a2.54,2.54,0,0,0,1.2-.3,2.29,2.29,0,0,0,.9-.9,2.89,2.89,0,0,0,.35-1.46,3,3,0,0,0-.34-1.46,2.24,2.24,0,0,0-.89-.89,2.59,2.59,0,0,0-2.38,0,2.17,2.17,0,0,0-.86.89,3,3,0,0,0-.33,1.46,3.13,3.13,0,0,0,.32,1.47,2.14,2.14,0,0,0,.86.9A2.42,2.42,0,0,0,394.05,489.94Zm6.4-4.89a2.82,2.82,0,0,1,1.07-1,3.14,3.14,0,0,1,1.6-.4,3.36,3.36,0,0,1,1.73.45,3.2,3.2,0,0,1,1.21,1.29,4,4,0,0,1,.45,1.92,4,4,0,0,1-.45,1.92,3.18,3.18,0,0,1-1.22,1.32,3.27,3.27,0,0,1-1.72.47,3.21,3.21,0,0,1-1.63-.41,2.78,2.78,0,0,1-1-1v1.32h-1.18v-9.64h1.18Zm4.85,2.22a2.88,2.88,0,0,0-.33-1.41,2.23,2.23,0,0,0-.89-.91,2.37,2.37,0,0,0-3.3.94,2.8,2.8,0,0,0-.33,1.39,3,3,0,0,0,.33,1.42,2.37,2.37,0,0,0,.88.92,2.46,2.46,0,0,0,1.21.32,2.35,2.35,0,0,0,1.21-.32,2.26,2.26,0,0,0,.89-.92A3,3,0,0,0,405.3,487.27Zm5.29,3.71a3.67,3.67,0,0,1-1.47-.28,2.56,2.56,0,0,1-1-.78,2.06,2.06,0,0,1-.41-1.16h1.22a1.22,1.22,0,0,0,.49.88,2,2,0,0,0,1.19.33,1.72,1.72,0,0,0,1.07-.3.91.91,0,0,0,.39-.75.74.74,0,0,0-.42-.69,5.56,5.56,0,0,0-1.29-.46,9.21,9.21,0,0,1-1.3-.41,2.45,2.45,0,0,1-.86-.64,1.74,1.74,0,0,1-.35-1.12,1.7,1.7,0,0,1,.32-1,2.13,2.13,0,0,1,.93-.72,3.28,3.28,0,0,1,1.37-.27,2.91,2.91,0,0,1,1.91.6,2.1,2.1,0,0,1,.78,1.64H412a1.21,1.21,0,0,0-.46-.9,1.62,1.62,0,0,0-1.09-.34,1.71,1.71,0,0,0-1,.27.86.86,0,0,0-.38.72.84.84,0,0,0,.23.59,2,2,0,0,0,.57.36,9.58,9.58,0,0,0,1,.3,9.49,9.49,0,0,1,1.25.42,2.11,2.11,0,0,1,.82.59,1.6,1.6,0,0,1,.37,1.06,1.77,1.77,0,0,1-.33,1.05,2.23,2.23,0,0,1-.92.75A3.4,3.4,0,0,1,410.59,491Zm5.72-6.28v4.21a1,1,0,0,0,.23.74,1.08,1.08,0,0,0,.76.21h.88v1h-1.07a2.11,2.11,0,0,1-1.49-.46,2,2,0,0,1-.49-1.49V484.7h-.92v-1h.92v-1.79h1.18v1.79h1.87v1Zm2.86,2.57a4.06,4.06,0,0,1,.44-1.92,3.34,3.34,0,0,1,1.21-1.29,3.42,3.42,0,0,1,1.74-.45,3.14,3.14,0,0,1,1.62.4,2.66,2.66,0,0,1,1,1v-1.31h1.2v7.14h-1.2v-1.33a2.69,2.69,0,0,1-1,1,3.14,3.14,0,0,1-1.62.41,3.22,3.22,0,0,1-2.93-1.79A4.12,4.12,0,0,1,419.17,487.27Zm6,0a3,3,0,0,0-.32-1.41,2.37,2.37,0,0,0-2.1-1.23,2.37,2.37,0,0,0-1.21.31,2.19,2.19,0,0,0-.87.91,2.88,2.88,0,0,0-.33,1.41,3,3,0,0,0,.33,1.43,2.21,2.21,0,0,0,.87.92,2.45,2.45,0,0,0,2.42,0,2.32,2.32,0,0,0,.89-.92A3.06,3.06,0,0,0,425.21,487.28Zm-.92-5.57-2.78,1.48v-.89l2.78-1.62Zm3.68,5.57a4.07,4.07,0,0,1,.44-1.93,3.32,3.32,0,0,1,1.23-1.29,3.6,3.6,0,0,1,1.81-.45,3.54,3.54,0,0,1,2.16.63,3,3,0,0,1,1.13,1.78h-1.27a1.83,1.83,0,0,0-.72-1,2.11,2.11,0,0,0-1.3-.38,2.07,2.07,0,0,0-1.64.7,2.83,2.83,0,0,0-.63,2,2.88,2.88,0,0,0,.63,2,2.07,2.07,0,0,0,1.64.7,2.24,2.24,0,0,0,1.3-.36,1.83,1.83,0,0,0,.72-1h1.27a3.2,3.2,0,0,1-1.14,1.76,3.84,3.84,0,0,1-4,.19,3.19,3.19,0,0,1-1.23-1.29A4.13,4.13,0,0,1,428,487.28Zm14.68-3.56v7.14h-1.18v-1.05a2.37,2.37,0,0,1-1,.85,3,3,0,0,1-1.33.3,3.31,3.31,0,0,1-1.5-.33,2.65,2.65,0,0,1-1.05-1.05,3.37,3.37,0,0,1-.38-1.68v-4.18h1.17v4a2.35,2.35,0,0,0,.53,1.63,2.19,2.19,0,0,0,3,0,2.44,2.44,0,0,0,.55-1.71v-3.92Zm3.19-2.5v9.64h-1.19v-9.64ZM451,491a3.59,3.59,0,0,1-1.82-.46,3.24,3.24,0,0,1-1.28-1.29,4.07,4.07,0,0,1-.46-2,3.91,3.91,0,0,1,.47-1.93,3.32,3.32,0,0,1,1.31-1.29,3.7,3.7,0,0,1,1.83-.45,3.77,3.77,0,0,1,1.84.45,3.31,3.31,0,0,1,1.29,1.28,4.11,4.11,0,0,1,0,3.89,3.32,3.32,0,0,1-1.31,1.29A3.73,3.73,0,0,1,451,491Zm0-1a2.51,2.51,0,0,0,1.2-.3,2.29,2.29,0,0,0,.9-.9,2.89,2.89,0,0,0,.35-1.46,3,3,0,0,0-.34-1.46,2.24,2.24,0,0,0-.89-.89,2.59,2.59,0,0,0-2.38,0,2.17,2.17,0,0,0-.86.89,3,3,0,0,0-.32,1.46,3.13,3.13,0,0,0,.31,1.47,2.2,2.2,0,0,0,.86.9A2.42,2.42,0,0,0,451,489.94Zm7.74,1a3.67,3.67,0,0,1-1.47-.28,2.56,2.56,0,0,1-1-.78,2.06,2.06,0,0,1-.41-1.16H457a1.22,1.22,0,0,0,.49.88,2,2,0,0,0,1.19.33,1.72,1.72,0,0,0,1.07-.3.91.91,0,0,0,.39-.75.74.74,0,0,0-.42-.69,5.56,5.56,0,0,0-1.29-.46,9.21,9.21,0,0,1-1.3-.41,2.45,2.45,0,0,1-.86-.64,1.74,1.74,0,0,1-.35-1.12,1.7,1.7,0,0,1,.32-1,2.13,2.13,0,0,1,.93-.72,3.28,3.28,0,0,1,1.37-.27,2.91,2.91,0,0,1,1.91.6,2.1,2.1,0,0,1,.78,1.64h-1.18a1.21,1.21,0,0,0-.46-.9,1.62,1.62,0,0,0-1.09-.34,1.71,1.71,0,0,0-1,.27.86.86,0,0,0-.38.72.84.84,0,0,0,.23.59,2,2,0,0,0,.57.36,9.58,9.58,0,0,0,1,.3,9.49,9.49,0,0,1,1.25.42,2.11,2.11,0,0,1,.82.59,1.6,1.6,0,0,1,.37,1.06A1.77,1.77,0,0,1,461,490a2.23,2.23,0,0,1-.92.75A3.37,3.37,0,0,1,458.71,491Z"/><path class="cls-8" d="M344.54,250h12.14a9.31,9.31,0,0,1,9.3,9.3h0a9.31,9.31,0,0,1-9.3,9.31H344.54a9.31,9.31,0,0,1-9.31-9.31h0A9.31,9.31,0,0,1,344.54,250Z"/><path class="cls-3" d="M343.39,256.85a2.05,2.05,0,0,1,1.51.57,2.16,2.16,0,0,1,.58,1.62v3h-.84v-2.88a1.64,1.64,0,0,0-.38-1.16,1.37,1.37,0,0,0-1-.41,1.39,1.39,0,0,0-1.07.42,1.72,1.72,0,0,0-.39,1.22V262h-.85V257h.85v.72a1.62,1.62,0,0,1,.67-.6A2.25,2.25,0,0,1,343.39,256.85Zm8.12,2.45a4.63,4.63,0,0,1,0,.51h-4.07a1.59,1.59,0,0,0,1.65,1.6,1.58,1.58,0,0,0,.92-.25,1.39,1.39,0,0,0,.52-.69h.91a2.23,2.23,0,0,1-.82,1.2,2.46,2.46,0,0,1-1.53.46,2.59,2.59,0,0,1-1.3-.33,2.26,2.26,0,0,1-.89-.92,2.86,2.86,0,0,1-.33-1.39,2.94,2.94,0,0,1,.32-1.39,2.15,2.15,0,0,1,.88-.91,2.64,2.64,0,0,1,1.32-.33,2.57,2.57,0,0,1,1.29.32,2.16,2.16,0,0,1,.85.87A2.49,2.49,0,0,1,351.51,259.3Zm-.87-.18a1.54,1.54,0,0,0-.22-.82,1.29,1.29,0,0,0-.58-.53,1.73,1.73,0,0,0-.81-.19,1.59,1.59,0,0,0-1.1.41,1.64,1.64,0,0,0-.51,1.13Zm8.78-2.17L357.83,262H357l-1.23-4-1.22,4h-.88L352,257h.87l1.17,4.28,1.26-4.28h.87l1.24,4.29,1.15-4.29Z"/><path class="cls-8" d="M344.54,321.57h12.14a9.31,9.31,0,0,1,9.3,9.31h0a9.31,9.31,0,0,1-9.3,9.3H344.54a9.31,9.31,0,0,1-9.31-9.3h0A9.31,9.31,0,0,1,344.54,321.57Z"/><path class="cls-3" d="M343.39,328.48a2,2,0,0,1,1.51.56,2.16,2.16,0,0,1,.58,1.62v3h-.84v-2.89a1.64,1.64,0,0,0-.38-1.16,1.37,1.37,0,0,0-1-.41,1.39,1.39,0,0,0-1.07.42,1.72,1.72,0,0,0-.39,1.22v2.82h-.85v-5.1h.85v.72a1.62,1.62,0,0,1,.67-.6A2.24,2.24,0,0,1,343.39,328.48Zm8.12,2.44a4.63,4.63,0,0,1,0,.51h-4.07a1.64,1.64,0,0,0,.51,1.18,1.67,1.67,0,0,0,1.14.42,1.58,1.58,0,0,0,.92-.25,1.39,1.39,0,0,0,.52-.69h.91a2.23,2.23,0,0,1-.82,1.2,2.46,2.46,0,0,1-1.53.46,2.59,2.59,0,0,1-1.3-.33,2.26,2.26,0,0,1-.89-.92,2.83,2.83,0,0,1-.33-1.39,2.94,2.94,0,0,1,.32-1.39,2.15,2.15,0,0,1,.88-.91,2.64,2.64,0,0,1,1.32-.33,2.57,2.57,0,0,1,1.29.32,2.12,2.12,0,0,1,.85.88A2.43,2.43,0,0,1,351.51,330.92Zm-.87-.18a1.54,1.54,0,0,0-.22-.82,1.35,1.35,0,0,0-.58-.53,1.73,1.73,0,0,0-.81-.19,1.59,1.59,0,0,0-1.1.41,1.64,1.64,0,0,0-.51,1.13Zm8.78-2.17-1.59,5.1H357l-1.23-4.05-1.22,4.05h-.88l-1.6-5.1h.87l1.17,4.28,1.26-4.28h.87l1.24,4.29,1.15-4.29Z"/><path class="cls-8" d="M344.54,393.19h12.14a9.31,9.31,0,0,1,9.3,9.31h0a9.31,9.31,0,0,1-9.3,9.3H344.54a9.31,9.31,0,0,1-9.31-9.3h0A9.31,9.31,0,0,1,344.54,393.19Z"/><path class="cls-3" d="M343.39,400.1a2.09,2.09,0,0,1,1.51.56,2.2,2.2,0,0,1,.58,1.62v3h-.84V402.4a1.64,1.64,0,0,0-.38-1.16,1.37,1.37,0,0,0-1-.41,1.39,1.39,0,0,0-1.07.42,1.74,1.74,0,0,0-.39,1.22v2.82h-.85v-5.1h.85v.73a1.58,1.58,0,0,1,.67-.61A2.24,2.24,0,0,1,343.39,400.1Zm8.12,2.44a4.63,4.63,0,0,1,0,.51h-4.07a1.68,1.68,0,0,0,.51,1.19,1.72,1.72,0,0,0,1.14.41,1.58,1.58,0,0,0,.92-.25,1.39,1.39,0,0,0,.52-.69h.91a2.23,2.23,0,0,1-.82,1.2,2.46,2.46,0,0,1-1.53.46,2.59,2.59,0,0,1-1.3-.33,2.26,2.26,0,0,1-.89-.92,2.83,2.83,0,0,1-.33-1.39,2.94,2.94,0,0,1,.32-1.39,2.21,2.21,0,0,1,.88-.91,2.63,2.63,0,0,1,1.32-.32,2.57,2.57,0,0,1,1.29.31,2.12,2.12,0,0,1,.85.88A2.43,2.43,0,0,1,351.51,402.54Zm-.87-.17a1.55,1.55,0,0,0-.22-.83,1.35,1.35,0,0,0-.58-.53,1.73,1.73,0,0,0-.81-.19,1.59,1.59,0,0,0-1.1.41,1.65,1.65,0,0,0-.51,1.14Zm8.78-2.18-1.59,5.1H357l-1.23-4.05-1.22,4.05h-.88l-1.6-5.1h.87l1.17,4.28,1.26-4.28h.87l1.24,4.29,1.15-4.29Z"/><path class="cls-8" d="M344.54,464.82h12.14a9.3,9.3,0,0,1,9.3,9.3h0a9.31,9.31,0,0,1-9.3,9.3H344.54a9.31,9.31,0,0,1-9.31-9.3h0A9.3,9.3,0,0,1,344.54,464.82Z"/><path class="cls-3" d="M343.39,471.72a2.09,2.09,0,0,1,1.51.56,2.2,2.2,0,0,1,.58,1.62v3h-.84V474a1.65,1.65,0,0,0-.38-1.16,1.37,1.37,0,0,0-1-.41,1.39,1.39,0,0,0-1.07.42,1.74,1.74,0,0,0-.39,1.22v2.82h-.85v-5.1h.85v.73a1.65,1.65,0,0,1,.67-.61A2.24,2.24,0,0,1,343.39,471.72Zm8.12,2.44a4.81,4.81,0,0,1,0,.52h-4.07a1.59,1.59,0,0,0,1.65,1.6A1.59,1.59,0,0,0,350,476a1.41,1.41,0,0,0,.52-.68h.91a2.23,2.23,0,0,1-.82,1.2,2.52,2.52,0,0,1-1.53.45,2.69,2.69,0,0,1-1.3-.32,2.39,2.39,0,0,1-.89-.92,2.9,2.9,0,0,1-.33-1.4,2.94,2.94,0,0,1,.32-1.39,2.21,2.21,0,0,1,.88-.91,2.74,2.74,0,0,1,1.32-.32,2.57,2.57,0,0,1,1.29.31,2.18,2.18,0,0,1,.85.88A2.43,2.43,0,0,1,351.51,474.16Zm-.87-.17a1.55,1.55,0,0,0-.22-.83,1.35,1.35,0,0,0-.58-.53,1.86,1.86,0,0,0-.81-.19,1.59,1.59,0,0,0-1.1.41,1.65,1.65,0,0,0-.51,1.14Zm8.78-2.18-1.59,5.1H357l-1.23-4.05-1.22,4.05h-.88l-1.6-5.1h.87l1.17,4.28,1.26-4.28h.87l1.24,4.29,1.15-4.29Z"/><path class="cls-9" d="M422.62,722.17l-8,8.12v8.77a1,1,0,0,0,.21.6.64.64,0,0,0,.49.25h4.89a.64.64,0,0,0,.49-.25,1,1,0,0,0,.2-.61v-5.12a1,1,0,0,1,.2-.6.66.66,0,0,1,.5-.25h2.79a.64.64,0,0,1,.49.25,1,1,0,0,1,.21.6V739a1,1,0,0,0,.05.33.76.76,0,0,0,.15.28.68.68,0,0,0,.23.18.59.59,0,0,0,.26.07h4.89a.64.64,0,0,0,.49-.25,1,1,0,0,0,.2-.6v-8.77l-8-8.12A.49.49,0,0,0,423,722a.49.49,0,0,0-.33.14Zm12.7,5.52L431.67,724V716.6a.73.73,0,0,0-.15-.46.48.48,0,0,0-.37-.19h-2.44a.48.48,0,0,0-.37.19.73.73,0,0,0-.15.46v3.88l-3.91-3.94A1.84,1.84,0,0,0,423,716a1.88,1.88,0,0,0-1.33.58l-11,11.15a.5.5,0,0,0-.13.19,1.05,1.05,0,0,0-.06.24.69.69,0,0,0,0,.25.55.55,0,0,0,.1.22l1.11,1.66a.49.49,0,0,0,.16.16.34.34,0,0,0,.19.07.5.5,0,0,0,.21,0l.18-.12L422.62,720a.46.46,0,0,1,.33-.15.46.46,0,0,1,.34.15l10.25,10.36.18.12a.5.5,0,0,0,.21,0,.37.37,0,0,0,.19-.07.49.49,0,0,0,.16-.16l1.11-1.65a.67.67,0,0,0,.1-.23.69.69,0,0,0,0-.25,1.05,1.05,0,0,0-.06-.24.64.64,0,0,0-.13-.19Z"/><path class="cls-4" d="M560.47,729.1c-1.88.16-4.57,2.44-5.93,3.19a6.57,6.57,0,0,1-2.76,1.08c-.82,0-.95-.72-.78-2.31,0-.36.43-3.53-1.55-3.39-.91.07-2.33,1.11-6.16,5.62l1.51-4.63c1.11-3.38-1.93-6.75-4.71-4.58l-2,1.65a.83.83,0,0,0-.17,1l.62,1.21a.51.51,0,0,0,.8.21l2.11-1.73c.67-.52,1.48.32,1.19,1.21l-3.57,10.94c-.25.76.1,2,1.08,2a1,1,0,0,0,.82-.42c1.54-1.88,5.62-6.72,7.68-8.73a5.47,5.47,0,0,0,.74,3.74,2.81,2.81,0,0,0,2.38,1.13,7.94,7.94,0,0,0,3.72-1.34c1.2-.66,3.6-2.79,5-2.93a.67.67,0,0,0,.55-.71v-1.43c0-.4-.27-.75-.6-.72Z"/><rect class="cls-10" x="306.69" y="21.6" width="332.99" height="743.18"/></svg>