<svg id="_26e08365-e7f3-4f87-b2fd-e29738693ebb" data-name="26e08365-e7f3-4f87-b2fd-e29738693ebb" xmlns="http://www.w3.org/2000/svg" xmlns:xlink="http://www.w3.org/1999/xlink" viewBox="0 0 999 797.2"><defs><style>.cls-1{fill:#fff;}.cls-2{fill:none;}.cls-3{fill:#3287ca;opacity:0.1;}.cls-3,.cls-4{isolation:isolate;}.cls-4{fill:#be0449;opacity:0.5;}.cls-5{clip-path:url(#clip-path);}.cls-6{fill:#f6f9ff;}.cls-15,.cls-7{fill:#bf0449;}.cls-15,.cls-8{stroke:#fff;}.cls-8{stroke-width:3px;fill:url(#Degradado_sin_nombre_4);}.cls-9{fill:#e7e8fe;}.cls-10{fill:#d9042b;}.cls-11{fill:#a6034f;}.cls-12{mask:url(#mask);}.cls-13{mask:url(#mask-2);}.cls-14{fill-opacity:0.2;}.cls-16{fill:#fefefe;}.cls-17{fill:#d8d8d8;}.cls-18{fill:#d9d9d9;}.cls-19{fill:#d7d7d7;}.cls-20{fill:#d6d6d6;}.cls-21{fill:#d4d4d4;}.cls-22{fill:#d3d3d3;}.cls-23{fill:#d5d5d5;}.cls-24{fill:#d2d2d2;}.cls-25{fill:#d1d1d1;}.cls-26{fill:#d0d0d0;}.cls-27{fill:#cfcfcf;}.cls-28{fill:#cecece;}.cls-29{fill:#cdcdcd;}.cls-30{fill:#ccc;}</style><clipPath id="clip-path"><rect id="SVGID" class="cls-2" x="344.31" y="18.56" width="335.92" height="746.5" rx="9.33"/></clipPath><linearGradient id="Degradado_sin_nombre_4" x1="514.23" y1="181.67" x2="553.57" y2="-108.57" gradientTransform="matrix(1, 0, 0, -1, 0, 798)" gradientUnits="userSpaceOnUse"><stop offset="0" stop-color="#a6034f"/><stop offset="1" stop-color="#bf0449"/></linearGradient><mask id="mask" x="343.37" y="17.63" width="337.79" height="692.38" maskUnits="userSpaceOnUse"><g id="path-25-inside-1_5_132" data-name="path-25-inside-1 5 132"><path class="cls-1" d="M344.31,18.56H680.23V710H344.31Z"/></g></mask><mask id="mask-2" x="343.37" y="699.74" width="337.79" height="66.25" maskUnits="userSpaceOnUse"><g id="path-30-inside-2_5_132" data-name="path-30-inside-2 5 132"><path class="cls-1" d="M344.31,699.74H680.23v65.32H344.31Z"/></g></mask></defs><ellipse class="cls-3" cx="516.06" cy="761" rx="385.79" ry="33"/><path class="cls-4" d="M321.05,108.7c30.8-27.5,79.1-33,123.1-30.9,138.2,6.9,262.9,73.6,370.7,149,39,27.3,77.5,56.7,102.8,94.3,51.6,76.6,36.3,182.6-35.5,245.7-24.4,21.5-54,37.9-84.4,52.5-54,25.9-112.3,46.7-173.6,52.7-43.7,4.2-88,.8-131.5-5.1-121.5-16.5-240.6-52.9-340.6-115.2-43.6-27.3-84.9-61.3-103-105.5S42.55,346,87.35,319.8c18.5-10.8,40.6-15.7,62.3-20.3,31.9-6.8,64.3-13.4,93.1-27.1,29.7-14.2,64.9-41.6,59-73C295.35,165.7,290.35,136,321.05,108.7Z"/><g class="cls-5"><rect class="cls-6" x="344.31" y="18.56" width="335.92" height="746.5" rx="9.33"/><rect class="cls-7" x="344.31" y="18.56" width="335.92" height="691.45"/><path class="cls-1" d="M364.43,40.64a2.23,2.23,0,0,1-1.36-2.14,2.38,2.38,0,0,1,1.41-2.22,4.4,4.4,0,0,1,3.44,0,2.37,2.37,0,0,1,1.42,2.22,2.31,2.31,0,0,1-.38,1.3,2.44,2.44,0,0,1-1,.84,2.44,2.44,0,0,1,1.18.91,2.51,2.51,0,0,1,.43,1.45,2.74,2.74,0,0,1-.43,1.5,2.79,2.79,0,0,1-1.21,1,4.05,4.05,0,0,1-1.75.36,4.12,4.12,0,0,1-1.75-.36,2.85,2.85,0,0,1-1.19-1,2.74,2.74,0,0,1-.43-1.5,2.55,2.55,0,0,1,.43-1.47A2.49,2.49,0,0,1,364.43,40.64Zm3.49-2a1.42,1.42,0,0,0-.46-1.13,1.88,1.88,0,0,0-1.26-.39,1.86,1.86,0,0,0-1.24.39,1.43,1.43,0,0,0-.45,1.14,1.35,1.35,0,0,0,.47,1.07,1.83,1.83,0,0,0,1.22.4,1.79,1.79,0,0,0,1.23-.41A1.37,1.37,0,0,0,367.92,38.69ZM366.2,41.3a2.21,2.21,0,0,0-1.41.43,1.46,1.46,0,0,0-.53,1.21,1.55,1.55,0,0,0,.52,1.22,2.11,2.11,0,0,0,1.42.46,2,2,0,0,0,1.4-.47,1.56,1.56,0,0,0,.52-1.21,1.46,1.46,0,0,0-.53-1.21A2.1,2.1,0,0,0,366.2,41.3ZM372,45.71a1,1,0,1,1,0-1.9,1,1,0,0,1,0,1.9Zm0-5.48a.9.9,0,0,1-.68-.28.94.94,0,0,1-.28-.68,1,1,0,0,1,.28-.68.93.93,0,0,1,.68-.27.9.9,0,0,1,.66.27.91.91,0,0,1,.28.68.9.9,0,0,1-.28.68A.87.87,0,0,1,372,40.23Zm8.54-2.85h-4.37V40a2,2,0,0,1,.81-.62,2.83,2.83,0,0,1,1.16-.24,3,3,0,0,1,1.78.47,2.62,2.62,0,0,1,1,1.19,4,4,0,0,1-.08,3.24,2.84,2.84,0,0,1-1.11,1.17,4,4,0,0,1-4.09-.27,2.83,2.83,0,0,1-1-1.87H376a1.64,1.64,0,0,0,.64,1,2.11,2.11,0,0,0,1.24.35,1.67,1.67,0,0,0,1.38-.56,2.22,2.22,0,0,0,.47-1.49,2,2,0,0,0-.47-1.44,2.05,2.05,0,0,0-2.47-.18,1.83,1.83,0,0,0-.62.86h-1.41v-5.5h5.74ZM384.55,43a1.68,1.68,0,0,0,.56,1,1.89,1.89,0,0,0,1.17.34,1.49,1.49,0,0,0,1.36-.73,5.35,5.35,0,0,0,.43-2.5,2,2,0,0,1-.89.69,3.14,3.14,0,0,1-1.23.24,3.38,3.38,0,0,1-1.54-.34,2.73,2.73,0,0,1-1.1-1,3.37,3.37,0,0,1-.39-1.68,2.93,2.93,0,0,1,3.16-3.14,2.72,2.72,0,0,1,2.52,1.19,6.74,6.74,0,0,1,.76,3.61,10.94,10.94,0,0,1-.29,2.76,2.92,2.92,0,0,1-1,1.62,3,3,0,0,1-1.93.55,3,3,0,0,1-2.15-.73,2.76,2.76,0,0,1-.85-1.84Zm1.66-2.23a1.6,1.6,0,0,0,1.23-.48,2.16,2.16,0,0,0,0-2.7,1.66,1.66,0,0,0-1.29-.51,1.7,1.7,0,0,0-1.31.52,1.93,1.93,0,0,0-.47,1.35,2,2,0,0,0,.46,1.32A1.85,1.85,0,0,0,386.21,40.81Z"/><path class="cls-1" d="M634.4,45a9.12,9.12,0,0,0-13.78,0,.47.47,0,0,0,0,.59l.75.86a.32.32,0,0,0,.49,0,7.53,7.53,0,0,1,11.31,0,.32.32,0,0,0,.49,0l.75-.86A.47.47,0,0,0,634.4,45Zm-6.89,5a1.65,1.65,0,1,0,1.4,1.64A1.54,1.54,0,0,0,627.51,50.06Zm4.43-2.13a6,6,0,0,0-8.86,0,.44.44,0,0,0,0,.59l.75.87a.32.32,0,0,0,.48,0,4.41,4.41,0,0,1,6.42,0,.32.32,0,0,0,.48,0l.76-.87a.45.45,0,0,0,0-.59Z"/><path class="cls-1" d="M592.52,46.45c0-4.45-2.92-8.06-6.53-8.06s-6.54,3.61-6.54,8.06c0,4,2.39,7.36,5.52,8V48.78h-1.66V46.45H585V44.67c0-2,1-3.13,2.46-3.13a8.14,8.14,0,0,1,1.47.16v2h-.83c-.81,0-1.06.62-1.06,1.26v1.51h1.81l-.29,2.33H587v5.63C590.13,53.81,592.52,50.47,592.52,46.45Z"/><path class="cls-1" d="M658.91,44V46h.89v2.06h-.89v2.06h-13.3V44Zm.44-2.06H645.17a1.45,1.45,0,0,0-1.33,1.54v7.22a1.45,1.45,0,0,0,1.33,1.54h14.18a1.44,1.44,0,0,0,1.33-1.54v-.52h.22a.73.73,0,0,0,.67-.77V44.72a.73.73,0,0,0-.67-.77h-.22v-.52A1.44,1.44,0,0,0,659.35,41.89ZM652.71,45H646.5V49.1h6.21Z"/><path class="cls-1" d="M604.88,47.68h-.76c-.14,0-.25.15-.25.33v3.86a.29.29,0,0,0,.25.32h.76a.29.29,0,0,0,.25-.32V48C605.13,47.83,605,47.68,604.88,47.68Zm-2,1.94h-.76a.29.29,0,0,0-.25.32v1.93a.29.29,0,0,0,.25.32h.76a.29.29,0,0,0,.25-.32V49.94A.29.29,0,0,0,602.86,49.62Zm4-3.87h-.75a.3.3,0,0,0-.26.32v5.8a.3.3,0,0,0,.26.32h.75a.3.3,0,0,0,.26-.32v-5.8A.3.3,0,0,0,606.89,45.75Zm2-1.93h-.75a.3.3,0,0,0-.26.32v7.73a.3.3,0,0,0,.26.32h.75a.29.29,0,0,0,.25-.32V44.14A.29.29,0,0,0,608.91,43.82Zm2-1.93h-.76a.29.29,0,0,0-.25.32v9.66a.29.29,0,0,0,.25.32h.76a.29.29,0,0,0,.25-.32V42.21A.29.29,0,0,0,610.93,41.89Z"/><path class="cls-1" d="M646.3,74.55H382c-5.86,0-10.61,7.23-10.61,16.15V606.14c0,8.92,4.75,16.15,10.61,16.15H646.3c5.85,0,10.6-7.23,10.6-16.15V90.7C656.9,81.78,652.15,74.55,646.3,74.55Z"/><path class="cls-1" d="M497.44,665.64v1.24h-3.19v10.47h-1.53V666.88h-3.21v-1.24Zm2.67,1a1,1,0,0,1-.74-.3,1,1,0,0,1-.3-.74,1,1,0,0,1,1-1,.94.94,0,0,1,.71.3,1,1,0,0,1,.3.74,1,1,0,0,1-.3.74A.94.94,0,0,1,500.11,666.65Zm.74,1.49v9.21h-1.53v-9.21Zm11,4.25a7.65,7.65,0,0,1-.05.93h-7.35a2.87,2.87,0,0,0,3,2.89,2.81,2.81,0,0,0,1.64-.46,2.47,2.47,0,0,0,.94-1.24h1.65a4,4,0,0,1-1.48,2.17,4.55,4.55,0,0,1-2.75.82,4.75,4.75,0,0,1-2.36-.59,4.22,4.22,0,0,1-1.61-1.66,5.27,5.27,0,0,1-.59-2.52,5.13,5.13,0,0,1,.58-2.5,4,4,0,0,1,1.59-1.65,4.81,4.81,0,0,1,2.39-.59,4.6,4.6,0,0,1,2.31.57,3.87,3.87,0,0,1,1.55,1.58A4.52,4.52,0,0,1,511.85,672.39Zm-1.58-.32a2.73,2.73,0,0,0-.38-1.49,2.4,2.4,0,0,0-1.06-1,3.2,3.2,0,0,0-1.46-.33,2.87,2.87,0,0,0-2,.73,3.05,3.05,0,0,0-.93,2.05ZM524.94,668a4,4,0,0,1,1.91.45,3.1,3.1,0,0,1,1.33,1.33,4.37,4.37,0,0,1,.49,2.16v5.43h-1.51v-5.21a2.92,2.92,0,0,0-.69-2.1,2.37,2.37,0,0,0-1.83-.74,2.46,2.46,0,0,0-1.9.77,3.14,3.14,0,0,0-.71,2.21v5.07h-1.51v-5.21a2.92,2.92,0,0,0-.69-2.1,2.34,2.34,0,0,0-1.83-.74,2.45,2.45,0,0,0-1.89.77,3.09,3.09,0,0,0-.71,2.21v5.07h-1.53v-9.21h1.53v1.33a3.08,3.08,0,0,1,1.21-1.11,3.69,3.69,0,0,1,1.7-.38,3.92,3.92,0,0,1,2,.52,3.1,3.1,0,0,1,1.33,1.52,3,3,0,0,1,1.28-1.51A3.72,3.72,0,0,1,524.94,668Zm7.76,1.86a3.62,3.62,0,0,1,1.35-1.31,4,4,0,0,1,2.1-.54,4.25,4.25,0,0,1,2.21.59,4.08,4.08,0,0,1,1.58,1.66,5.15,5.15,0,0,1,.57,2.47,5.31,5.31,0,0,1-.57,2.49,4.33,4.33,0,0,1-5.88,1.78,3.94,3.94,0,0,1-1.36-1.33v6.06h-1.52V668.14h1.52Zm6.25,2.87a3.72,3.72,0,0,0-.42-1.81,2.88,2.88,0,0,0-1.14-1.18,3.17,3.17,0,0,0-3.12,0,3.14,3.14,0,0,0-1.15,1.19,3.74,3.74,0,0,0-.42,1.8,3.86,3.86,0,0,0,.42,1.83,3.29,3.29,0,0,0,1.15,1.19,3.13,3.13,0,0,0,1.56.41,3.08,3.08,0,0,0,1.56-.41,3,3,0,0,0,1.14-1.19A3.89,3.89,0,0,0,539,672.71Zm7.59,4.79a4.77,4.77,0,0,1-2.35-.59,4.38,4.38,0,0,1-1.65-1.66,5.26,5.26,0,0,1-.58-2.52,5,5,0,0,1,.6-2.49,4.13,4.13,0,0,1,1.68-1.66,5.06,5.06,0,0,1,4.74,0,4.12,4.12,0,0,1,1.66,1.65,4.93,4.93,0,0,1,.62,2.5,4.87,4.87,0,0,1-.64,2.52,4.35,4.35,0,0,1-1.69,1.66A5,5,0,0,1,546.54,677.5Zm0-1.34a3.24,3.24,0,0,0,1.55-.39,3,3,0,0,0,1.16-1.16,3.69,3.69,0,0,0,.45-1.88,3.76,3.76,0,0,0-.44-1.88,2.72,2.72,0,0,0-1.14-1.14,3.22,3.22,0,0,0-3.07,0,2.66,2.66,0,0,0-1.11,1.14,3.87,3.87,0,0,0-.42,1.88,4.07,4.07,0,0,0,.4,1.9,2.89,2.89,0,0,0,1.11,1.16A3.21,3.21,0,0,0,546.54,676.16Z"/><path class="cls-8" d="M514.85,658.72c19.93,0,36.09-16.93,36.09-37.81s-16.16-37.81-36.09-37.81S478.77,600,478.77,620.91,494.93,658.72,514.85,658.72Z"/><rect class="cls-1" x="344.31" y="699.74" width="335.92" height="65.32"/><path class="cls-9" d="M477.28,751.06H578.06a2.34,2.34,0,0,1,2.33,2.34h0a2.33,2.33,0,0,1-2.33,2.33H477.28a2.33,2.33,0,0,1-2.34-2.33h0A2.34,2.34,0,0,1,477.28,751.06Z"/><rect class="cls-1" x="348.97" y="699.74" width="335.93" height="65.32"/><path class="cls-9" d="M481.94,751.06H582.72a2.33,2.33,0,0,1,2.33,2.34h0a2.33,2.33,0,0,1-2.33,2.33H481.94a2.33,2.33,0,0,1-2.33-2.33h0A2.34,2.34,0,0,1,481.94,751.06Z"/><path class="cls-10" d="M416.29,716.24l-8.06,8.15v8.79a1,1,0,0,0,.2.61.64.64,0,0,0,.5.25h4.9a.65.65,0,0,0,.49-.26,1,1,0,0,0,.2-.6V728a1,1,0,0,1,.21-.6.65.65,0,0,1,.49-.26H418a.66.66,0,0,1,.5.26,1,1,0,0,1,.2.6v5.13a.88.88,0,0,0,.06.33.69.69,0,0,0,.15.28.66.66,0,0,0,.22.19.68.68,0,0,0,.27.07h4.9a.64.64,0,0,0,.5-.25,1,1,0,0,0,.2-.61v-8.8L417,716.24a.47.47,0,0,0-.33-.14.49.49,0,0,0-.34.14ZM429,721.78l-3.66-3.7v-7.43a.7.7,0,0,0-.15-.45.48.48,0,0,0-.37-.19H422.4a.47.47,0,0,0-.37.19.71.71,0,0,0-.16.45v3.9l-3.91-4a1.93,1.93,0,0,0-1.34-.58,1.9,1.9,0,0,0-1.33.58l-11.07,11.19a.46.46,0,0,0-.13.2.84.84,0,0,0-.06.24.72.72,0,0,0,0,.25.62.62,0,0,0,.1.22l1.11,1.66a.61.61,0,0,0,.16.16.48.48,0,0,0,.2.07.44.44,0,0,0,.2,0,.57.57,0,0,0,.18-.12L416.29,714a.49.49,0,0,1,.34-.14.47.47,0,0,1,.33.14l10.29,10.4a.57.57,0,0,0,.18.12.44.44,0,0,0,.2,0,.48.48,0,0,0,.2-.07.61.61,0,0,0,.16-.16l1.11-1.66a.62.62,0,0,0,.1-.22.72.72,0,0,0,0-.25,1,1,0,0,0-.06-.25.64.64,0,0,0-.13-.19Z"/><path class="cls-7" d="M528.45,722.73c-1.89.16-4.58,2.44-5.94,3.2a6.68,6.68,0,0,1-2.78,1.09c-.82,0-.94-.73-.77-2.32,0-.36.42-3.54-1.56-3.41-.91.07-2.34,1.11-6.18,5.64l1.52-4.64c1.1-3.39-1.94-6.77-4.73-4.59l-2,1.64a.83.83,0,0,0-.18,1l.62,1.21a.53.53,0,0,0,.81.22l2.11-1.74c.68-.52,1.49.32,1.2,1.21l-3.58,11c-.25.76.1,2,1.08,2a1,1,0,0,0,.82-.42c1.54-1.88,5.64-6.73,7.7-8.75a5.52,5.52,0,0,0,.75,3.75,2.81,2.81,0,0,0,2.39,1.13,8.09,8.09,0,0,0,3.73-1.34c1.2-.67,3.61-2.8,5-2.95a.67.67,0,0,0,.56-.7v-1.44a.65.65,0,0,0-.61-.72Z"/><path class="cls-7" d="M528.45,722.73c-1.89.16-4.58,2.44-5.94,3.2a6.68,6.68,0,0,1-2.78,1.09c-.82,0-.94-.73-.77-2.32,0-.36.42-3.54-1.56-3.41-.91.07-2.34,1.11-6.18,5.64l1.52-4.64c1.1-3.39-1.94-6.77-4.73-4.59l-2,1.64a.83.83,0,0,0-.18,1l.62,1.21a.53.53,0,0,0,.81.22l2.11-1.74c.68-.52,1.49.32,1.2,1.21l-3.58,11c-.25.76.1,2,1.08,2a1,1,0,0,0,.82-.42c1.54-1.88,5.64-6.73,7.7-8.75a5.52,5.52,0,0,0,.75,3.75,2.81,2.81,0,0,0,2.39,1.13,8.09,8.09,0,0,0,3.73-1.34c1.2-.67,3.61-2.8,5-2.95a.67.67,0,0,0,.56-.7v-1.44a.65.65,0,0,0-.61-.72Z"/><path class="cls-7" d="M605.58,730.4a1.7,1.7,0,0,1,.49-1.18,1.67,1.67,0,0,1,1.18-.48h3.33a1.67,1.67,0,0,1,1.18.48,1.7,1.7,0,0,1,.49,1.18v5a1.67,1.67,0,0,1-1.67,1.67h-3.33a1.67,1.67,0,0,1-1.67-1.67Zm8.33-6.66a1.67,1.67,0,0,1,1.67-1.67h3.33a1.67,1.67,0,0,1,1.67,1.67V735.4a1.67,1.67,0,0,1-1.67,1.67h-3.33a1.67,1.67,0,0,1-1.67-1.67Zm8.34-8.33a1.66,1.66,0,0,1,1.66-1.67h3.33a1.67,1.67,0,0,1,1.67,1.67v20a1.64,1.64,0,0,1-.49,1.18,1.66,1.66,0,0,1-1.18.49h-3.33a1.7,1.7,0,0,1-1.18-.49,1.67,1.67,0,0,1-.48-1.18Z"/><rect class="cls-2" x="389.1" y="228.51" width="250.08" height="239.81"/><rect class="cls-11" x="371.37" y="74.55" width="285.54" height="46.66" rx="4.67"/><path class="cls-1" d="M642.75,89.79c-3.4.32-8.25,4.92-10.7,6.43-1.91,1.18-3.56,2.19-5,2.19s-1.7-1.45-1.4-4.66c.08-.72.77-7.12-2.8-6.85-1.65.14-4.22,2.23-11.12,11.33l2.72-9.32c2-6.82-3.49-13.62-8.51-9.24L602.33,83a1.81,1.81,0,0,0-.32,2l1.13,2.43a.9.9,0,0,0,1.45.44l3.81-3.5c1.21-1,2.67.65,2.14,2.44l-6.44,22.08c-.45,1.52.18,4,1.95,4a1.85,1.85,0,0,0,1.48-.85c2.77-3.79,10.16-13.55,13.86-17.6-.14,2.56-.13,5.29,1.36,7.53a4.87,4.87,0,0,0,4.29,2.28c2.34,0,4.47-1.32,6.72-2.7s6.5-5.63,9.08-5.92a1.31,1.31,0,0,0,1-1.42V91.25C643.85,90.43,643.35,89.74,642.75,89.79Z"/><path class="cls-1" d="M453.76,89.9a7.08,7.08,0,0,1,3.3.72,4.88,4.88,0,0,1,2.15,2,6.11,6.11,0,0,1,.76,3.12,6.18,6.18,0,0,1-.76,3.13,4.87,4.87,0,0,1-2.15,2,7.34,7.34,0,0,1-3.3.69h-3.65V89.9Zm0,10.45a4.72,4.72,0,0,0,3.46-1.19,5.4,5.4,0,0,0,0-6.79,4.57,4.57,0,0,0-3.44-1.22h-2.12v9.2Zm9-9.44a1,1,0,0,1-.74-.3,1,1,0,0,1,0-1.48,1,1,0,0,1,.74-.3.92.92,0,0,1,.7.3,1.06,1.06,0,0,1,0,1.48A.92.92,0,0,1,462.78,90.91Zm.74,1.5v9.2H462v-9.2Zm4.13,1.71A3.59,3.59,0,0,1,469,92.77a4.12,4.12,0,0,1,2.06-.52,4.36,4.36,0,0,1,2.24.59,4.17,4.17,0,0,1,1.56,1.66,5.15,5.15,0,0,1,.57,2.47,5.31,5.31,0,0,1-.57,2.49,4.25,4.25,0,0,1-1.58,1.7,4.2,4.2,0,0,1-2.22.6,4.14,4.14,0,0,1-2.1-.52,3.56,3.56,0,0,1-1.34-1.33v1.7h-1.53V89.18h1.53ZM473.9,97a3.72,3.72,0,0,0-.42-1.81A2.85,2.85,0,0,0,472.33,94a3.18,3.18,0,0,0-1.56-.4,3,3,0,0,0-2.7,1.61,3.74,3.74,0,0,0-.42,1.8,3.83,3.83,0,0,0,.42,1.83,3,3,0,0,0,2.7,1.6,3.08,3.08,0,0,0,1.56-.41,2.93,2.93,0,0,0,1.15-1.19A3.86,3.86,0,0,0,473.9,97Zm11.73-4.56v9.2H484.1v-1.36a3.05,3.05,0,0,1-1.22,1.11,3.76,3.76,0,0,1-1.71.38,4.23,4.23,0,0,1-1.94-.43,3.4,3.4,0,0,1-1.36-1.35,4.48,4.48,0,0,1-.48-2.16V92.41h1.51V97.6a2.94,2.94,0,0,0,.69,2.09,2.44,2.44,0,0,0,1.88.73,2.54,2.54,0,0,0,1.93-.76,3.11,3.11,0,0,0,.7-2.2v-5Zm3.41-1.5a1,1,0,0,1-.74-.3,1.09,1.09,0,0,1,0-1.48,1,1,0,0,1,.74-.3,1,1,0,0,1,.72.3,1.06,1.06,0,0,1,0,1.48A1,1,0,0,1,489,90.91Zm.75,12.7a2.33,2.33,0,0,1-.62,1.8,2.59,2.59,0,0,1-1.81.57h-.89v-1.3h.64a1.25,1.25,0,0,0,.89-.25,1.18,1.18,0,0,0,.26-.86V92.41h1.53Zm2-6.64a5.15,5.15,0,0,1,.57-2.47,4.17,4.17,0,0,1,1.56-1.66,4.38,4.38,0,0,1,2.24-.59,4.19,4.19,0,0,1,2.1.52,3.53,3.53,0,0,1,1.32,1.31V92.41h1.55v9.2H499.6V99.9a3.65,3.65,0,0,1-1.36,1.34,4,4,0,0,1-2.08.52,4.2,4.2,0,0,1-2.22-.6,4.28,4.28,0,0,1-1.56-1.7A5.31,5.31,0,0,1,491.81,97Zm7.79,0a3.72,3.72,0,0,0-.42-1.81A2.88,2.88,0,0,0,498,94a3,3,0,0,0-1.56-.42,3.18,3.18,0,0,0-1.56.4,2.93,2.93,0,0,0-1.13,1.18,3.72,3.72,0,0,0-.42,1.81,3.86,3.86,0,0,0,.42,1.85,3,3,0,0,0,1.13,1.19,3.17,3.17,0,0,0,3.12,0,3,3,0,0,0,1.14-1.19A3.83,3.83,0,0,0,499.6,97Zm17-.34c0,.3,0,.6-.05.93H509.2a2.87,2.87,0,0,0,3,2.89,2.79,2.79,0,0,0,1.65-.46,2.48,2.48,0,0,0,.94-1.24h1.64a4,4,0,0,1-1.48,2.17,4.45,4.45,0,0,1-2.75.82,4.71,4.71,0,0,1-2.35-.59,4.15,4.15,0,0,1-1.61-1.66,5.16,5.16,0,0,1-.59-2.52,5.24,5.24,0,0,1,.57-2.5,4,4,0,0,1,1.59-1.65,4.81,4.81,0,0,1,2.39-.59,4.54,4.54,0,0,1,2.32.58,3.88,3.88,0,0,1,1.54,1.57A4.52,4.52,0,0,1,516.61,96.65ZM515,96.34a2.75,2.75,0,0,0-.39-1.5,2.52,2.52,0,0,0-1.06-1,3.17,3.17,0,0,0-1.46-.33,2.83,2.83,0,0,0-2,.74,3,3,0,0,0-.92,2Zm5.12-7.16v12.43h-1.53V89.18Zm9,4.48v5.43a1.28,1.28,0,0,0,.29,1,1.43,1.43,0,0,0,1,.27h1.12v1.29h-1.38a2.75,2.75,0,0,1-1.91-.59,2.49,2.49,0,0,1-.64-1.93V93.66h-1.19V92.41h1.19V90.09h1.53v2.32h2.4v1.25Zm5.78.24A3,3,0,0,1,536,92.67a3.66,3.66,0,0,1,1.84-.43v1.58h-.41c-1.71,0-2.57.93-2.57,2.78v5h-1.53v-9.2h1.53ZM539.05,97a5.15,5.15,0,0,1,.57-2.47,4.17,4.17,0,0,1,1.56-1.66,4.38,4.38,0,0,1,2.24-.59,4.19,4.19,0,0,1,2.1.52,3.53,3.53,0,0,1,1.32,1.31V92.41h1.55v9.2h-1.55V99.9a3.65,3.65,0,0,1-1.36,1.34,4,4,0,0,1-2.08.52,4.2,4.2,0,0,1-2.22-.6,4.28,4.28,0,0,1-1.56-1.7A5.31,5.31,0,0,1,539.05,97Zm7.79,0a3.72,3.72,0,0,0-.42-1.81A2.88,2.88,0,0,0,545.28,94a3,3,0,0,0-1.56-.42,3.18,3.18,0,0,0-1.56.4A2.93,2.93,0,0,0,541,95.16a3.72,3.72,0,0,0-.42,1.81,3.86,3.86,0,0,0,.42,1.85,3,3,0,0,0,1.13,1.19,3.17,3.17,0,0,0,3.12,0,3,3,0,0,0,1.14-1.19A3.83,3.83,0,0,0,546.84,97Zm5.27,3.36h4.52v1.26h-6.26v-1.26l4.46-6.7H550.4V92.41h6.2v1.24Zm10.52,1.41a4.77,4.77,0,0,1-2.35-.59,4.18,4.18,0,0,1-1.65-1.66A5.27,5.27,0,0,1,558,97a4.94,4.94,0,0,1,.61-2.49,4.19,4.19,0,0,1,1.68-1.66,5,5,0,0,1,4.73,0,4.14,4.14,0,0,1,1.67,1.65,5.32,5.32,0,0,1,0,5,4.24,4.24,0,0,1-1.7,1.66A4.88,4.88,0,0,1,562.63,101.76Zm0-1.34a3.18,3.18,0,0,0,1.54-.39,2.88,2.88,0,0,0,1.16-1.16,3.66,3.66,0,0,0,.46-1.88,3.76,3.76,0,0,0-.44-1.88A2.72,2.72,0,0,0,564.21,94a3.11,3.11,0,0,0-1.53-.39,3.16,3.16,0,0,0-1.55.39A2.66,2.66,0,0,0,560,95.11,3.87,3.87,0,0,0,559.6,97a4.07,4.07,0,0,0,.41,1.9,2.89,2.89,0,0,0,1.11,1.16A3.21,3.21,0,0,0,562.63,100.42Z"/><path class="cls-1" d="M501.15,620.67a3.3,3.3,0,0,1,1.19-2.42,4.31,4.31,0,0,1,2.79-.87,4.26,4.26,0,0,1,2,.42,2.86,2.86,0,0,1,1.26,1.11,3,3,0,0,1,.44,1.59,2.74,2.74,0,0,1-.61,1.8,2.6,2.6,0,0,1-1.54,1v.09a3.1,3.1,0,0,1,1.73,1.06,3.13,3.13,0,0,1,.64,2.06,3.45,3.45,0,0,1-.44,1.73,3.06,3.06,0,0,1-1.31,1.2,4.65,4.65,0,0,1-2.1.43,4.51,4.51,0,0,1-2.92-.92,3.65,3.65,0,0,1-1.28-2.66h1.48a2.52,2.52,0,0,0,.82,1.65,2.68,2.68,0,0,0,1.88.64,2.41,2.41,0,0,0,1.79-.61,2.16,2.16,0,0,0,.62-1.59,2,2,0,0,0-.84-1.82,4.77,4.77,0,0,0-2.54-.55h-.39V622.7h.41a4.61,4.61,0,0,0,2.33-.5,1.7,1.7,0,0,0,.79-1.55,1.81,1.81,0,0,0-.59-1.42,2.3,2.3,0,0,0-1.64-.54,2.49,2.49,0,0,0-1.68.54,2.17,2.17,0,0,0-.76,1.44Zm9.92,2.89a9,9,0,0,1,.94-4.5,4.13,4.13,0,0,1,6.57,0,8.92,8.92,0,0,1,.94,4.5,9.19,9.19,0,0,1-.94,4.57,4.13,4.13,0,0,1-6.57,0A9.3,9.3,0,0,1,511.07,623.56Zm6.94,0a13.24,13.24,0,0,0-.2-2.47,3.12,3.12,0,0,0-.79-1.64,2.24,2.24,0,0,0-1.72-.63,2.29,2.29,0,0,0-1.74.63,3.2,3.2,0,0,0-.79,1.64,14.26,14.26,0,0,0-.19,2.47,15,15,0,0,0,.19,2.54,3.2,3.2,0,0,0,.79,1.64,2.29,2.29,0,0,0,1.74.62,2.24,2.24,0,0,0,1.72-.62,3.12,3.12,0,0,0,.79-1.64A13.9,13.9,0,0,0,518,623.56Zm7.12,6.35a5,5,0,0,1-1.9-.35,3.43,3.43,0,0,1-1.33-1,2.75,2.75,0,0,1-.53-1.5h1.57a1.59,1.59,0,0,0,.64,1.13,2.52,2.52,0,0,0,1.53.44,2.22,2.22,0,0,0,1.38-.39,1.19,1.19,0,0,0,.5-1,.94.94,0,0,0-.53-.89,6.89,6.89,0,0,0-1.67-.59,14,14,0,0,1-1.68-.54,3.27,3.27,0,0,1-1.11-.82,2.22,2.22,0,0,1-.45-1.45,2.16,2.16,0,0,1,.42-1.29,2.79,2.79,0,0,1,1.19-.92,4.18,4.18,0,0,1,1.77-.36,3.75,3.75,0,0,1,2.47.78,2.77,2.77,0,0,1,1,2.11h-1.52a1.59,1.59,0,0,0-.59-1.16,2.57,2.57,0,0,0-2.72-.08,1.13,1.13,0,0,0-.21,1.68,2.53,2.53,0,0,0,.74.47c.31.11.72.24,1.25.38a12.48,12.48,0,0,1,1.61.54,2.71,2.71,0,0,1,1.06.78,2.05,2.05,0,0,1,.47,1.36,2.35,2.35,0,0,1-.42,1.36,2.84,2.84,0,0,1-1.19,1A4.2,4.2,0,0,1,525.13,629.91Z"/><path class="cls-7" d="M344.31,18.56H680.23V710H344.31Z"/><g class="cls-12"><path d="M344.31,18.56v-.93h-.94v.93Zm335.92,0h.94v-.93h-.94Zm-335.92.93H680.23V17.63H344.31Zm335-.93V710h1.87V18.56ZM345.24,710V18.56h-1.87V710Z"/></g><path class="cls-1" d="M646.3,74.55H382c-5.86,0-10.61,7.23-10.61,16.15V606.14c0,8.92,4.75,16.15,10.61,16.15H646.3c5.85,0,10.6-7.23,10.6-16.15V90.7C656.9,81.78,652.15,74.55,646.3,74.55Z"/><rect class="cls-1" x="344.31" y="699.74" width="335.92" height="65.32"/><path class="cls-9" d="M477.28,751.06H578.06a2.34,2.34,0,0,1,2.33,2.34h0a2.33,2.33,0,0,1-2.33,2.33H477.28a2.33,2.33,0,0,1-2.34-2.33h0A2.34,2.34,0,0,1,477.28,751.06Z"/><path class="cls-1" d="M344.31,699.74H680.23v65.32H344.31Z"/><g class="cls-13"><path class="cls-14" d="M680.23,765.06V766h.94v-.93Zm-335.92,0h-.94V766h.94Zm335-65.32v65.32h1.87V699.74Zm.93,64.39H344.31V766H680.23Zm-335,.93V699.74h-1.87v65.32Z"/></g><path class="cls-9" d="M481.94,751.06H582.72a2.33,2.33,0,0,1,2.33,2.34h0a2.33,2.33,0,0,1-2.33,2.33H481.94a2.33,2.33,0,0,1-2.33-2.33h0A2.34,2.34,0,0,1,481.94,751.06Z"/><path class="cls-10" d="M456.41,716.24l-8.06,8.15v8.79a.92.92,0,0,0,.21.61.64.64,0,0,0,.49.25H454a.67.67,0,0,0,.5-.26,1,1,0,0,0,.2-.6V728a1,1,0,0,1,.2-.6.66.66,0,0,1,.5-.26h2.8a.65.65,0,0,1,.49.26,1,1,0,0,1,.21.6v5.13a.88.88,0,0,0,0,.33,1.06,1.06,0,0,0,.15.28.69.69,0,0,0,.23.19.64.64,0,0,0,.27.07h4.9a.64.64,0,0,0,.49-.25,1,1,0,0,0,.21-.61v-8.8l-8.07-8.14a.47.47,0,0,0-.33-.14.51.51,0,0,0-.34.14Zm12.74,5.54-3.65-3.7v-7.43a.71.71,0,0,0-.16-.45A.48.48,0,0,0,465,710h-2.45a.48.48,0,0,0-.37.19.7.7,0,0,0-.15.45v3.9l-3.92-4a1.9,1.9,0,0,0-1.33-.58,1.93,1.93,0,0,0-1.34.58l-11.07,11.19a.77.77,0,0,0-.13.2.84.84,0,0,0-.06.24.74.74,0,0,0,0,.25.85.85,0,0,0,.09.22l1.12,1.66a.49.49,0,0,0,.16.16.44.44,0,0,0,.19.07.5.5,0,0,0,.21,0l.18-.12L456.41,714a.51.51,0,0,1,.34-.14.47.47,0,0,1,.33.14l10.29,10.4.18.12a.5.5,0,0,0,.21,0,.44.44,0,0,0,.19-.07.49.49,0,0,0,.16-.16l1.12-1.66a.85.85,0,0,0,.09-.22.72.72,0,0,0,0-.25.54.54,0,0,0-.06-.25.5.5,0,0,0-.13-.19Z"/><path class="cls-7" d="M594.71,723.19c-1.89.16-4.59,2.45-6,3.2a6.56,6.56,0,0,1-2.77,1.09c-.83,0-1-.72-.78-2.32,0-.36.43-3.54-1.56-3.4-.91.07-2.34,1.11-6.18,5.63l1.52-4.63c1.11-3.4-1.94-6.78-4.73-4.6l-2,1.65a.82.82,0,0,0-.18,1l.63,1.21a.52.52,0,0,0,.8.22l2.12-1.74c.67-.53,1.48.32,1.19,1.21l-3.58,11c-.25.75.1,2,1.08,2a1.08,1.08,0,0,0,.83-.42c1.53-1.89,5.63-6.74,7.69-8.75a5.48,5.48,0,0,0,.75,3.74,2.81,2.81,0,0,0,2.39,1.13,8,8,0,0,0,3.73-1.34c1.2-.66,3.61-2.8,5-2.94a.67.67,0,0,0,.55-.7v-1.44a.65.65,0,0,0-.6-.73Z"/><rect class="cls-11" x="371.37" y="74.55" width="285.54" height="46.66" rx="4.67"/><path class="cls-1" d="M642.75,89.79c-3.4.32-8.25,4.92-10.7,6.43-1.91,1.18-3.56,2.19-5,2.19s-1.7-1.45-1.4-4.66c.08-.72.77-7.12-2.8-6.85-1.65.14-4.22,2.23-11.12,11.33l2.72-9.32c2-6.82-3.49-13.62-8.51-9.24L602.33,83a1.81,1.81,0,0,0-.32,2l1.13,2.43a.9.9,0,0,0,1.45.44l3.81-3.5c1.21-1,2.67.65,2.14,2.44l-6.44,22.08c-.45,1.52.18,4,1.95,4a1.85,1.85,0,0,0,1.48-.85c2.77-3.79,10.16-13.55,13.86-17.6-.14,2.56-.13,5.29,1.36,7.53a4.87,4.87,0,0,0,4.29,2.28c2.34,0,4.47-1.32,6.72-2.7s6.5-5.63,9.08-5.92a1.31,1.31,0,0,0,1-1.42V91.25C643.85,90.43,643.35,89.74,642.75,89.79Z"/><path class="cls-1" d="M453.76,89.9a7.08,7.08,0,0,1,3.3.72,4.88,4.88,0,0,1,2.15,2,6.11,6.11,0,0,1,.76,3.12,6.18,6.18,0,0,1-.76,3.13,4.87,4.87,0,0,1-2.15,2,7.34,7.34,0,0,1-3.3.69h-3.65V89.9Zm0,10.45a4.72,4.72,0,0,0,3.46-1.19,5.4,5.4,0,0,0,0-6.79,4.57,4.57,0,0,0-3.44-1.22h-2.12v9.2Zm9-9.44a1,1,0,0,1-.74-.3,1,1,0,0,1,0-1.48,1,1,0,0,1,.74-.3.92.92,0,0,1,.7.3,1.06,1.06,0,0,1,0,1.48A.92.92,0,0,1,462.78,90.91Zm.74,1.5v9.2H462v-9.2Zm4.13,1.71A3.59,3.59,0,0,1,469,92.77a4.12,4.12,0,0,1,2.06-.52,4.36,4.36,0,0,1,2.24.59,4.17,4.17,0,0,1,1.56,1.66,5.15,5.15,0,0,1,.57,2.47,5.31,5.31,0,0,1-.57,2.49,4.25,4.25,0,0,1-1.58,1.7,4.2,4.2,0,0,1-2.22.6,4.14,4.14,0,0,1-2.1-.52,3.56,3.56,0,0,1-1.34-1.33v1.7h-1.53V89.18h1.53ZM473.9,97a3.72,3.72,0,0,0-.42-1.81A2.85,2.85,0,0,0,472.33,94a3.18,3.18,0,0,0-1.56-.4,3,3,0,0,0-2.7,1.61,3.74,3.74,0,0,0-.42,1.8,3.83,3.83,0,0,0,.42,1.83,3,3,0,0,0,2.7,1.6,3.08,3.08,0,0,0,1.56-.41,2.93,2.93,0,0,0,1.15-1.19A3.86,3.86,0,0,0,473.9,97Zm11.73-4.56v9.2H484.1v-1.36a3.05,3.05,0,0,1-1.22,1.11,3.76,3.76,0,0,1-1.71.38,4.23,4.23,0,0,1-1.94-.43,3.4,3.4,0,0,1-1.36-1.35,4.48,4.48,0,0,1-.48-2.16V92.41h1.51V97.6a2.94,2.94,0,0,0,.69,2.09,2.44,2.44,0,0,0,1.88.73,2.54,2.54,0,0,0,1.93-.76,3.11,3.11,0,0,0,.7-2.2v-5Zm3.41-1.5a1,1,0,0,1-.74-.3,1.09,1.09,0,0,1,0-1.48,1,1,0,0,1,.74-.3,1,1,0,0,1,.72.3,1.06,1.06,0,0,1,0,1.48A1,1,0,0,1,489,90.91Zm.75,12.7a2.33,2.33,0,0,1-.62,1.8,2.59,2.59,0,0,1-1.81.57h-.89v-1.3h.64a1.25,1.25,0,0,0,.89-.25,1.18,1.18,0,0,0,.26-.86V92.41h1.53Zm2-6.64a5.15,5.15,0,0,1,.57-2.47,4.17,4.17,0,0,1,1.56-1.66,4.38,4.38,0,0,1,2.24-.59,4.19,4.19,0,0,1,2.1.52,3.53,3.53,0,0,1,1.32,1.31V92.41h1.55v9.2H499.6V99.9a3.65,3.65,0,0,1-1.36,1.34,4,4,0,0,1-2.08.52,4.2,4.2,0,0,1-2.22-.6,4.28,4.28,0,0,1-1.56-1.7A5.31,5.31,0,0,1,491.81,97Zm7.79,0a3.72,3.72,0,0,0-.42-1.81A2.88,2.88,0,0,0,498,94a3,3,0,0,0-1.56-.42,3.18,3.18,0,0,0-1.56.4,2.93,2.93,0,0,0-1.13,1.18,3.72,3.72,0,0,0-.42,1.81,3.86,3.86,0,0,0,.42,1.85,3,3,0,0,0,1.13,1.19,3.17,3.17,0,0,0,3.12,0,3,3,0,0,0,1.14-1.19A3.83,3.83,0,0,0,499.6,97Zm17-.34c0,.3,0,.6-.05.93H509.2a2.87,2.87,0,0,0,3,2.89,2.79,2.79,0,0,0,1.65-.46,2.48,2.48,0,0,0,.94-1.24h1.64a4,4,0,0,1-1.48,2.17,4.45,4.45,0,0,1-2.75.82,4.71,4.71,0,0,1-2.35-.59,4.15,4.15,0,0,1-1.61-1.66,5.16,5.16,0,0,1-.59-2.52,5.24,5.24,0,0,1,.57-2.5,4,4,0,0,1,1.59-1.65,4.81,4.81,0,0,1,2.39-.59,4.54,4.54,0,0,1,2.32.58,3.88,3.88,0,0,1,1.54,1.57A4.52,4.52,0,0,1,516.61,96.65ZM515,96.34a2.75,2.75,0,0,0-.39-1.5,2.52,2.52,0,0,0-1.06-1,3.17,3.17,0,0,0-1.46-.33,2.83,2.83,0,0,0-2,.74,3,3,0,0,0-.92,2Zm5.12-7.16v12.43h-1.53V89.18Zm9,4.48v5.43a1.28,1.28,0,0,0,.29,1,1.43,1.43,0,0,0,1,.27h1.12v1.29h-1.38a2.75,2.75,0,0,1-1.91-.59,2.49,2.49,0,0,1-.64-1.93V93.66h-1.19V92.41h1.19V90.09h1.53v2.32h2.4v1.25Zm5.78.24A3,3,0,0,1,536,92.67a3.66,3.66,0,0,1,1.84-.43v1.58h-.41c-1.71,0-2.57.93-2.57,2.78v5h-1.53v-9.2h1.53ZM539.05,97a5.15,5.15,0,0,1,.57-2.47,4.17,4.17,0,0,1,1.56-1.66,4.38,4.38,0,0,1,2.24-.59,4.19,4.19,0,0,1,2.1.52,3.53,3.53,0,0,1,1.32,1.31V92.41h1.55v9.2h-1.55V99.9a3.65,3.65,0,0,1-1.36,1.34,4,4,0,0,1-2.08.52,4.2,4.2,0,0,1-2.22-.6,4.28,4.28,0,0,1-1.56-1.7A5.31,5.31,0,0,1,539.05,97Zm7.79,0a3.72,3.72,0,0,0-.42-1.81A2.88,2.88,0,0,0,545.28,94a3,3,0,0,0-1.56-.42,3.18,3.18,0,0,0-1.56.4A2.93,2.93,0,0,0,541,95.16a3.72,3.72,0,0,0-.42,1.81,3.86,3.86,0,0,0,.42,1.85,3,3,0,0,0,1.13,1.19,3.17,3.17,0,0,0,3.12,0,3,3,0,0,0,1.14-1.19A3.83,3.83,0,0,0,546.84,97Zm5.27,3.36h4.52v1.26h-6.26v-1.26l4.46-6.7H550.4V92.41h6.2v1.24Zm10.52,1.41a4.77,4.77,0,0,1-2.35-.59,4.18,4.18,0,0,1-1.65-1.66A5.27,5.27,0,0,1,558,97a4.94,4.94,0,0,1,.61-2.49,4.19,4.19,0,0,1,1.68-1.66,5,5,0,0,1,4.73,0,4.14,4.14,0,0,1,1.67,1.65,5.32,5.32,0,0,1,0,5,4.24,4.24,0,0,1-1.7,1.66A4.88,4.88,0,0,1,562.63,101.76Zm0-1.34a3.18,3.18,0,0,0,1.54-.39,2.88,2.88,0,0,0,1.16-1.16,3.66,3.66,0,0,0,.46-1.88,3.76,3.76,0,0,0-.44-1.88A2.72,2.72,0,0,0,564.21,94a3.11,3.11,0,0,0-1.53-.39,3.16,3.16,0,0,0-1.55.39A2.66,2.66,0,0,0,560,95.11,3.87,3.87,0,0,0,559.6,97a4.07,4.07,0,0,0,.41,1.9,2.89,2.89,0,0,0,1.11,1.16A3.21,3.21,0,0,0,562.63,100.42Z"/><path class="cls-15" d="M401.23,639.56H488a19.13,19.13,0,0,1,19.13,19.13h0A19.13,19.13,0,0,1,488,677.81H401.23a19.12,19.12,0,0,1-19.13-19.12h0A19.12,19.12,0,0,1,401.23,639.56Z"/><path class="cls-1" d="M413.53,663.35l-1.91-3.46h-.53v3.46h-2.24v-9.17h3.75a4.1,4.1,0,0,1,1.84.38,2.55,2.55,0,0,1,1.15,1,2.83,2.83,0,0,1,.38,1.47,2.69,2.69,0,0,1-.52,1.63,2.75,2.75,0,0,1-1.52,1l2.12,3.63Zm-2.44-5h1.38a1.27,1.27,0,0,0,.92-.3,1.16,1.16,0,0,0,.31-.85,1.11,1.11,0,0,0-.31-.82,1.23,1.23,0,0,0-.92-.31h-1.38Zm13.62,1.28a4.93,4.93,0,0,1,0,.65h-5.05a1.58,1.58,0,0,0,.43,1,1.39,1.39,0,0,0,.95.35,1.17,1.17,0,0,0,1.16-.71h2.38a3.28,3.28,0,0,1-.66,1.3,3.35,3.35,0,0,1-1.19.9,3.83,3.83,0,0,1-1.61.33,4,4,0,0,1-1.91-.46,3.28,3.28,0,0,1-1.3-1.31,4,4,0,0,1-.47-2,4.2,4.2,0,0,1,.45-2,3.3,3.3,0,0,1,1.31-1.31,4,4,0,0,1,1.92-.45,3.84,3.84,0,0,1,1.88.44,3.13,3.13,0,0,1,1.28,1.27A3.74,3.74,0,0,1,424.71,659.59Zm-2.28-.59a1.11,1.11,0,0,0-.4-.91,1.41,1.41,0,0,0-1-.34,1.35,1.35,0,0,0-1.42,1.25Zm5.05-3.7a1.4,1.4,0,0,1-1-.34,1.15,1.15,0,0,1-.36-.86,1.13,1.13,0,0,1,.36-.86,1.36,1.36,0,0,1,1-.35,1.27,1.27,0,0,1,.94.35,1.12,1.12,0,0,1,.38.86,1.13,1.13,0,0,1-.38.86A1.31,1.31,0,0,1,427.48,655.3Zm1.11.76v7.29h-2.23v-7.29Zm6.53-.08a2.63,2.63,0,0,1,2,.84,3.22,3.22,0,0,1,.77,2.27v4.26h-2.22v-4a1.59,1.59,0,0,0-.38-1.13,1.34,1.34,0,0,0-1-.41,1.33,1.33,0,0,0-1,.41,1.59,1.59,0,0,0-.38,1.13v4h-2.23v-7.29h2.23v1a2.3,2.3,0,0,1,.92-.76A2.85,2.85,0,0,1,435.12,656Zm5.95-.68a1.38,1.38,0,0,1-1-.34,1.15,1.15,0,0,1-.36-.86,1.13,1.13,0,0,1,.36-.86,1.35,1.35,0,0,1,1-.35,1.27,1.27,0,0,1,.94.35,1.12,1.12,0,0,1,.38.86,1.13,1.13,0,0,1-.38.86A1.31,1.31,0,0,1,441.07,655.3Zm1.11.76v7.29H440v-7.29Zm1.64,3.65a4.09,4.09,0,0,1,.46-2,3.25,3.25,0,0,1,1.29-1.31,4,4,0,0,1,1.91-.45,3.6,3.6,0,0,1,2.29.72,3.37,3.37,0,0,1,1.21,2H448.6a1.15,1.15,0,0,0-1.16-.84,1.17,1.17,0,0,0-1,.49,2.18,2.18,0,0,0-.37,1.36,2.26,2.26,0,0,0,.37,1.37,1.18,1.18,0,0,0,1,.47,1.15,1.15,0,0,0,1.16-.84H451a3.4,3.4,0,0,1-1.21,2,3.59,3.59,0,0,1-2.29.74,4,4,0,0,1-1.91-.46,3.25,3.25,0,0,1-1.29-1.31A4.05,4.05,0,0,1,443.82,659.71Zm9.94-4.41a1.36,1.36,0,0,1-1-.34,1.12,1.12,0,0,1-.37-.86,1.11,1.11,0,0,1,.37-.86,1.32,1.32,0,0,1,1-.35,1.3,1.3,0,0,1,.95.35,1.11,1.11,0,0,1,.37.86,1.12,1.12,0,0,1-.37.86A1.33,1.33,0,0,1,453.76,655.3Zm1.12.76v7.29h-2.24v-7.29Zm1.64,3.63a4.53,4.53,0,0,1,.41-2,3.25,3.25,0,0,1,1.17-1.31,3.05,3.05,0,0,1,1.63-.45,2.8,2.8,0,0,1,1.35.31,2.31,2.31,0,0,1,.9.82v-1h2.23v7.29H462v-1a2.45,2.45,0,0,1-.92.82,2.74,2.74,0,0,1-1.34.32,3,3,0,0,1-1.62-.46,3.41,3.41,0,0,1-1.17-1.32A4.65,4.65,0,0,1,456.52,659.69Zm5.46,0a1.82,1.82,0,0,0-.47-1.32,1.48,1.48,0,0,0-1.13-.49,1.49,1.49,0,0,0-1.13.49,1.77,1.77,0,0,0-.46,1.3,1.9,1.9,0,0,0,.46,1.34,1.52,1.52,0,0,0,1.13.48,1.5,1.5,0,0,0,1.13-.48A1.85,1.85,0,0,0,462,659.71Zm6.55-2.43a2.84,2.84,0,0,1,1-.94,2.45,2.45,0,0,1,1.3-.36v2.37h-.61a1.85,1.85,0,0,0-1.25.36,1.59,1.59,0,0,0-.42,1.26v3.38h-2.24v-7.29h2.24Z"/><path class="cls-15" d="M550.53,639.56h86.78a19.13,19.13,0,0,1,19.13,19.13h0a19.13,19.13,0,0,1-19.13,19.12H550.53a19.12,19.12,0,0,1-19.13-19.12h0A19.12,19.12,0,0,1,550.53,639.56Z"/><path class="cls-1" d="M575.16,656v1.85h3v1.73h-3v2h3.38v1.79h-5.62v-9.17h5.62V656Zm9.74,0a2.63,2.63,0,0,1,2,.84,3.22,3.22,0,0,1,.77,2.27v4.26h-2.22v-4a1.59,1.59,0,0,0-.38-1.13,1.36,1.36,0,0,0-1-.41,1.33,1.33,0,0,0-1,.41,1.59,1.59,0,0,0-.38,1.13v4h-2.23v-7.29h2.23v1a2.34,2.34,0,0,1,.91-.76A2.92,2.92,0,0,1,584.9,656Zm8.1,5.28,1.58-5.2H597l-2.58,7.29h-2.76L589,656.06h2.39Zm6.49-6a1.36,1.36,0,0,1-1-.34,1.12,1.12,0,0,1-.37-.86,1.11,1.11,0,0,1,.37-.86,1.32,1.32,0,0,1,1-.35,1.26,1.26,0,0,1,.94.35,1.08,1.08,0,0,1,.38.86,1.1,1.1,0,0,1-.38.86A1.29,1.29,0,0,1,599.49,655.3Zm1.11.76v7.29h-2.23v-7.29Zm1.64,3.63a4.39,4.39,0,0,1,.42-2,3.25,3.25,0,0,1,1.17-1.31,3,3,0,0,1,1.63-.45,2.73,2.73,0,0,1,1.34.31,2.27,2.27,0,0,1,.91.82v-1h2.23v7.29h-2.23v-1a2.45,2.45,0,0,1-.92.82,2.74,2.74,0,0,1-1.34.32,3,3,0,0,1-1.62-.46,3.41,3.41,0,0,1-1.17-1.32A4.51,4.51,0,0,1,602.24,659.69Zm5.47,0a1.82,1.82,0,0,0-.47-1.32,1.48,1.48,0,0,0-1.13-.49,1.53,1.53,0,0,0-1.14.49,1.8,1.8,0,0,0-.45,1.3A1.94,1.94,0,0,0,605,661a1.56,1.56,0,0,0,1.14.48,1.5,1.5,0,0,0,1.13-.48A1.85,1.85,0,0,0,607.71,659.71Zm6.55-2.43a2.75,2.75,0,0,1,1-.94,2.42,2.42,0,0,1,1.3-.36v2.37h-.61a1.89,1.89,0,0,0-1.26.36,1.59,1.59,0,0,0-.41,1.26v3.38H612v-7.29h2.24Z"/><rect class="cls-2" x="389.1" y="228.51" width="250.08" height="239.81"/></g><path class="cls-16" d="M511.77,490q-65,0-129.93.08c-3,0-3.57-.6-3.57-3.57q.15-124.93,0-249.86c0-3,.6-3.57,3.57-3.57q130.43.15,260.86,0c3,0,3.57.6,3.57,3.57q-.15,124.92,0,249.86c0,3-.6,3.58-3.57,3.57Q577.24,489.92,511.77,490Z"/><path class="cls-17" d="M534.42,258.07c1.76.07,3.58-.09,3.77,1.79s-1.58,2.11-3.06,2.13-3.06-.33-3.19-2.19C531.81,257.77,533.59,258.33,534.42,258.07Z"/><path class="cls-18" d="M437.1,337.21c.1-1.54.35-3.14,2.25-3.23s1.76,1.61,1.62,2.83c-.17,1.59-.39,3.64-2.51,3.56C436.64,340.29,437.24,338.43,437.1,337.21Z"/><path class="cls-19" d="M437.08,364.09c.18-1.43-.37-3.2,1.63-3.22s2.28,1.58,2.32,3.18c0,1.37-.09,2.95-1.76,3.05C437.16,367.21,437.31,365.32,437.08,364.09Z"/><path class="cls-19" d="M387.3,351c-.11,1.45-.07,3.28-2.05,3.19s-1.87-1.89-1.85-3.36.62-3.06,2.44-2.91S387.16,349.79,387.3,351Z"/><path class="cls-18" d="M529.37,259.84c-.25,1.79-1.45,2.14-2.82,2.16s-3.22.12-3.4-1.82c-.15-1.69,1.35-2,2.71-2.05S528.78,258.19,529.37,259.84Z"/><path class="cls-18" d="M517,263c-1.35-.08-3,.16-2.92-1.38,0-2.12,2-2.33,3.62-2.48,1.39-.13,2.88.32,2.63,2.06C520,263.16,518.17,262.9,517,263Z"/><path class="cls-20" d="M438.3,352c1.8.65,1.79,2.13,1.72,3.6s-.49,2.83-2.14,2.55c-1.83-.31-1.76-2-1.7-3.51S436.66,352.11,438.3,352Z"/><path class="cls-20" d="M556.2,261.74c-.09,1.58-1.05,2.35-2.24,2.1-1.47-.31-3.53-.18-4-2-.43-1.61,1.06-1.72,2.21-1.71C553.74,260.08,555.45,259.93,556.2,261.74Z"/><path class="cls-17" d="M491.8,353.76c0,1.39-.05,2.8-2,2.76s-1.92-1.5-1.9-2.85-.26-2.95,1.78-2.81C491.38,351,491.69,352.37,491.8,353.76Z"/><path class="cls-19" d="M523.52,432.23c-.55,1.82-2,2-3.55,2-1.34,0-2.33-.54-2.16-2.05.26-2.19,2.05-1.74,3.46-1.79S523.62,430.59,523.52,432.23Z"/><path class="cls-20" d="M535.27,370.23c-.84,1.35-.26,3.91-2.84,3.9a1.5,1.5,0,0,1-1.31-2.16c.71-1.46.2-4,2.8-4C535,368,535.52,369,535.27,370.23Z"/><path class="cls-19" d="M440.06,345.89c-.09,1.5,0,3.23-2,3.33-1.41.06-1.86-1.2-1.83-2.43,0-1.48.21-3.29,1.85-3.59S439.93,344.58,440.06,345.89Z"/><path class="cls-21" d="M428.87,448.73c-.16,1.47-.79,2.36-1.9,2.08a5.17,5.17,0,0,1-3.42-3.24,1.46,1.46,0,0,1,1.53-2C427.09,445.78,427.77,447.68,428.87,448.73Z"/><path class="cls-22" d="M581.34,271.42c-.22,1.36-1.13,1.72-2.15,1.31-1.47-.58-3.3-.94-3.54-3a1.3,1.3,0,0,1,1.83-1.52C579.16,268.79,581,269.27,581.34,271.42Z"/><path class="cls-21" d="M541,428.46c-.09,2.3-2.34,1.71-3.65,2.36a1.53,1.53,0,0,1-2.28-1.15c-.29-2.44,2-2.08,3.37-2.73S540.6,427,541,428.46Z"/><path class="cls-21" d="M583.27,385.5c-.84,1.25-.19,3.69-2.76,3.88-.9.06-1.85-.41-1.55-1.34.5-1.61.27-3.82,2.54-4.36C582.71,383.4,583.32,384.1,583.27,385.5Z"/><path class="cls-23" d="M597.68,285c.32-1.24,1.08-2.07,2.12-1.61a5.09,5.09,0,0,1,3.21,3.45,1.44,1.44,0,0,1-1.78,1.73A5.5,5.5,0,0,1,597.68,285Z"/><path class="cls-21" d="M506.51,320.89a5.78,5.78,0,0,1-3.64,3.5,1.39,1.39,0,0,1-1.71-1.34c.07-2.06,1.74-3.12,3.32-3.87C505.44,318.72,506.28,319.61,506.51,320.89Z"/><path class="cls-21" d="M461.92,408.64a5.4,5.4,0,0,1,3.67,3.48A1.45,1.45,0,0,1,464,414c-1.73-.27-2.77-1.72-3.5-3.15C459.91,409.75,460.77,409,461.92,408.64Z"/><path class="cls-21" d="M455.81,401.67a5.51,5.51,0,0,1,3.78,3.55A1.46,1.46,0,0,1,458,407.1c-1.74-.27-2.74-1.76-3.47-3.19C453.92,402.82,454.88,402.18,455.81,401.67Z"/><path class="cls-20" d="M519,382.54c-1.28-.23-3.18.34-2.94-1.65.26-2.21,2.62-1.29,4-1.91a1.51,1.51,0,0,1,2.23,1.62C522.07,382.54,520.32,382.36,519,382.54Z"/><path class="cls-23" d="M578.58,391.78c1.15.36,1.93,1.09,1.49,2.19-.63,1.61-1.06,3.75-3.3,3.75-1,0-1.47-1.36-1.06-2.36C576.31,393.91,576.59,392.09,578.58,391.78Z"/><path class="cls-18" d="M514.41,432.47c-.6,1.83-2.09,1.77-3.56,1.71s-2.14-.7-2-2.11c.16-1.84,1.59-1.75,2.88-1.71S514.26,430.82,514.41,432.47Z"/><path class="cls-19" d="M585.41,360.18c0,1.21-.21,2.47-1.82,2.24-1.88-.28-2.05-1.84-2.05-3.36,0-1.2.18-2.46,1.8-2.23C585.22,357.11,585.36,358.67,585.41,360.18Z"/><path class="cls-23" d="M532.41,359.23c2,.78,2.24,2.62,2.65,4.35a1.24,1.24,0,0,1-1.26,1.66c-2.23-.27-2.51-2.33-3-4A1.58,1.58,0,0,1,532.41,359.23Z"/><path class="cls-21" d="M458.88,295.72a4,4,0,0,1-3.33,3,1.19,1.19,0,0,1-1.34-1.57c.57-1.65,1.26-3.54,3.24-3.79C458.37,293.25,459,294.45,458.88,295.72Z"/><path class="cls-20" d="M549.3,425.22c-.3,1.95-2.1,2.26-3.54,2.8a1.36,1.36,0,0,1-2-1.37c.1-2,2-2.45,3.42-3C548.23,423.27,549,424,549.3,425.22Z"/><path class="cls-23" d="M490.67,270.84c-1.13,0-1.82-.54-1.69-1.46.31-2.19,2.16-2.75,3.92-3a1.46,1.46,0,0,1,1.54,2C493.82,270.07,492,270.35,490.67,270.84Z"/><path class="cls-24" d="M553.65,315c1.22.53,3.06.73,3.51,2.57a1.43,1.43,0,0,1-1.69,1.78c-1.71-.35-3.61-.87-3.72-3.13C551.7,315.33,552.44,314.86,553.65,315Z"/><path class="cls-22" d="M626.44,319.19a6.2,6.2,0,0,1,2.37,4.45c.15,1.18-1.34,1.78-2.06,1.48-1.91-.79-1.86-2.88-2.13-4.57C624.5,319.83,625.32,319.15,626.44,319.19Z"/><path class="cls-24" d="M603.23,450.07c-1.18,0-1.85-.54-1.68-1.45a4.69,4.69,0,0,1,3.34-3.73,1.64,1.64,0,0,1,1.81,1.79A5.14,5.14,0,0,1,603.23,450.07Z"/><path class="cls-23" d="M542.42,480.05c1,.15,2.74-.4,2.68,1.18-.08,2.12-2.34,1.84-3.74,2.36s-2.41-.23-2.3-1.59C539.23,480.05,541,480.18,542.42,480.05Z"/><path class="cls-19" d="M533,485.07c-1.21-.16-3.17.37-3-1.55.22-2.42,2.68-1.12,4.05-1.72,1.09-.48,2.21-.06,2.21,1.11C536.29,484.94,534.55,485,533,485.07Z"/><path class="cls-24" d="M397.68,411c-.07-1.13.48-1.68,1.46-1.48,2,.4,2.46,2.14,2.76,3.72a1.47,1.47,0,0,1-1.85,1.71C398,414.47,398.43,412.3,397.68,411Z"/><path class="cls-24" d="M499.47,267c-1.15,0-2.6,0-2.37-1.64.27-1.87,2.28-1.51,3.52-2.06a1.35,1.35,0,0,1,2,1.34C502.53,266.57,501,266.88,499.47,267Z"/><path class="cls-22" d="M488.5,425.92c-.17,1.68-1,2.41-2,2.23-1.57-.26-3.4-.54-3.94-2.42-.21-.74.38-1.93,1.27-1.7A32.54,32.54,0,0,1,488.5,425.92Z"/><path class="cls-24" d="M587.27,277.67c-1.52-.77-3.11-1.69-3.52-3.62-.17-.83.64-1.81,1.49-1.31,1.47.86,3.65,1.17,3.81,3.4C589.12,277,588.37,277.57,587.27,277.67Z"/><path class="cls-24" d="M498.11,325.81c.94.09,2.08.41,2,1.23a4.38,4.38,0,0,1-3.54,3.57,1.21,1.21,0,0,1-1.53-1.42A4.13,4.13,0,0,1,498.11,325.81Z"/><path class="cls-22" d="M468,285.66c-1-.23-1.81-.8-1.64-1.66a3.58,3.58,0,0,1,3.89-3c.86,0,1.75.56,1.2,1.57A5.71,5.71,0,0,1,468,285.66Z"/><path class="cls-22" d="M573.41,332c2.08.36,2.44,2.42,3.32,3.86.55.9-.46,1.67-1.27,1.51a4.75,4.75,0,0,1-3.59-3.63C571.63,332.86,572.46,332.29,573.41,332Z"/><path class="cls-22" d="M635.77,353.81c2,.59,1.32,2.3,1.39,3.63.05,1-.25,2.15-1.55,2-2-.28-1.65-2.21-1.94-3.49S634.41,353.91,635.77,353.81Z"/><path class="cls-21" d="M505.63,431.33c-.14,1.75-1.11,1.9-2.13,1.89-1.72,0-3.43-.19-3.53-2.43a1.26,1.26,0,0,1,1.67-1.29C503.13,429.88,504.84,430,505.63,431.33Z"/><path class="cls-22" d="M496.64,373.26c-1.79-.64-2.41-2.47-3.14-4-.35-.74.65-1.67,1.51-1.33a4.92,4.92,0,0,1,3.43,3.82C498.54,372.54,497.75,373.16,496.64,373.26Z"/><path class="cls-22" d="M390.19,378.54c-.13,1.58-.58,2.74-2.06,2.51-1.67-.26-1.72-1.76-1.75-3.1,0-1,0-2.22,1.3-2.27C389.76,375.61,389.5,377.65,390.19,378.54Z"/><path class="cls-21" d="M507.5,264.67c-1.15.08-2.3-.12-2-1.45.41-1.63,1.94-2.12,3.51-2.15,1.14,0,2.7-.07,2.45,1.56C511.15,264.87,508.64,263.62,507.5,264.67Z"/><path class="cls-24" d="M635.22,392.06c-.12,1.53-.37,3.06-2.27,3.24a1.33,1.33,0,0,1-1.45-1.91c.56-1.34.11-3.63,2.47-3.61C635.27,389.8,635.17,391.08,635.22,392.06Z"/><path class="cls-22" d="M480.31,422.58c-.11,1.1-.72,1.67-1.59,1.63a5.2,5.2,0,0,1-4.29-2.76c-.52-.94.63-2,1.63-1.73A8.48,8.48,0,0,1,480.31,422.58Z"/><path class="cls-23" d="M583.43,380.39c-1.75-.11-1.93-1.05-1.93-2.09,0-1.73.18-3.42,2.41-3.55a1.23,1.23,0,0,1,1.31,1.63C584.79,377.85,584.77,379.61,583.43,380.39Z"/><path class="cls-21" d="M544.38,262.11c-1.25-.3-3.28.6-3.39-1.64-.08-1.56,1.48-1.43,2.59-1.42,1.45,0,3.32-.16,3.47,1.76C547.17,262.44,545.46,261.94,544.38,262.11Z"/><path class="cls-22" d="M583.47,350.85c0,1.26.13,2.74-1.55,2.58-1.95-.19-1.55-2.26-2.13-3.48-.45-1-.07-2.12,1.25-2.07C582.93,347.93,583.35,349.39,583.47,350.85Z"/><path class="cls-21" d="M600.25,453.05a4.24,4.24,0,0,1-3.37,3c-.9.15-2-.47-1.8-1.24a4.45,4.45,0,0,1,3.7-3.49C599.72,451.19,600.25,451.89,600.25,453.05Z"/><path class="cls-24" d="M593.35,458.73c-.28,2.09-2.06,2.69-3.81,3.13-.81.2-1.83-.55-1.43-1.43a6.15,6.15,0,0,1,3.84-3.57C592.71,456.65,593.23,457.7,593.35,458.73Z"/><path class="cls-22" d="M457.83,470c-.05,1.48-.66,2.15-1.56,1.85-1.67-.57-3.47-1.26-4-3.17a1.19,1.19,0,0,1,1.52-1.4A8.37,8.37,0,0,1,457.83,470Z"/><path class="cls-24" d="M465.82,474.12c0,1.13-.47,1.88-1.45,1.49-1.59-.64-3.69-.79-4.16-2.92a1.17,1.17,0,0,1,1.51-1.39C463.46,471.7,465.23,472.22,465.82,474.12Z"/><path class="cls-21" d="M445.67,318.38c-.74,1.33-.31,3.47-2.32,4a1.45,1.45,0,0,1-1.89-1.65c.25-1.61.73-3.33,2.68-3.77C445.11,316.74,445.69,317.27,445.67,318.38Z"/><path class="cls-21" d="M497.5,485.07c-1.23-.2-2.88.13-3-1.71-.05-1.2.64-2.36,2.14-1.77s3.71.1,3.6,2.4C500.2,485.55,498.5,484.85,497.5,485.07Z"/><path class="cls-22" d="M562,266c-1.22-.41-2.93-.46-3.23-2.25-.2-1.26.86-1.73,1.9-1.57,1.57.24,3.47.4,3.63,2.48C564.43,265.88,563.2,266,562,266Z"/><path class="cls-24" d="M506.93,486.09c-1.68-.18-3.6.07-3.5-2,.07-1.57,1.76-1.06,2.79-1,1.2,0,3-.52,3.21,1.29C509.71,486.45,507.75,485.72,506.93,486.09Z"/><path class="cls-24" d="M629.53,327.78c2.18.22,1.59,2.33,2,3.74.36,1.16-.31,2-1.5,1.81-1.89-.36-1.66-2.14-2-3.53C627.88,328.74,627.76,327.79,629.53,327.78Z"/><path class="cls-22" d="M634.21,339.05c0,1.13.14,2.63-1.54,2.46-2-.19-1.59-2.22-2-3.48a1.45,1.45,0,0,1,1.6-1.9C634,336.26,634.07,337.72,634.21,339.05Z"/><path class="cls-21" d="M577.93,339.8c2,.29,2.12,2.2,2.82,3.57a1.22,1.22,0,0,1-.88,1.89c-2.27.27-2.41-1.81-3.08-3.18C576.29,341.08,576.6,340.16,577.93,339.8Z"/><path class="cls-22" d="M636.14,348.12c0,1.07,0,2.3-1.23,2.32-2.37,0-1.78-2.29-2.38-3.58a1.28,1.28,0,0,1,1.31-1.94C635.64,345.15,635.68,346.89,636.14,348.12Z"/><path class="cls-24" d="M526.91,355.64c.9.16,2.4-.3,2.33,1.11-.11,2.24-2.44,1.85-3.82,2.49-1,.48-2.26-.14-2-1.3C523.82,356.39,525.25,355.66,526.91,355.64Z"/><path class="cls-24" d="M493.59,363.54c-.19,1-.79,1.9-1.6,1.63-1.84-.61-2.1-2.35-2.09-4,0-1,.52-2.25,1.71-1.75C493.35,360.14,492.93,362.22,493.59,363.54Z"/><path class="cls-24" d="M441.38,375.47c-1.78-.29-2.26-1.58-2.29-3.17,0-1.14-.06-2.59,1.55-2.44,2.09.2,1.22,2.33,1.83,3.52S442.77,375.27,441.38,375.47Z"/><path class="cls-25" d="M449.89,465.31c0,1.23-.59,1.83-1.53,1.67a5.26,5.26,0,0,1-3.81-2.76c-.45-.85.56-1.79,1.26-1.7A5.69,5.69,0,0,1,449.89,465.31Z"/><path class="cls-26" d="M392.09,387.31c.12,1.36-.37,2.15-1.27,2-2-.32-2.23-2.1-2.43-3.69-.13-1,.28-2.11,1.55-1.87C392.13,384.16,391,386.61,392.09,387.31Z"/><path class="cls-22" d="M448.19,392.42c-2.17-.08-2.67-1.74-3-3.34-.2-1,.31-2.29,1.5-1.92,1.67.52,2.05,2.44,2.82,3.82C450.1,392,449,392.26,448.19,392.42Z"/><path class="cls-24" d="M395,395.94c.24,1.46-.05,2.45-1.33,2.27-1.77-.25-2-1.9-2.3-3.3-.19-1-.05-2.18,1.2-2.21C395,392.62,393.83,395.33,395,395.94Z"/><path class="cls-21" d="M574.14,399.81a1.45,1.45,0,0,1,1.35,1.79,3.69,3.69,0,0,1-2.85,3.51c-1.12.25-1.83-.63-1.47-1.82A5.43,5.43,0,0,1,574.14,399.81Z"/><path class="cls-22" d="M628,412.84c-1.44.17-1.76-.6-1.76-1.45,0-1.67.07-3.41,2.18-3.87a1.25,1.25,0,0,1,1.64,1.31A5.49,5.49,0,0,1,628,412.84Z"/><path class="cls-22" d="M411.06,428.29c.12,1.19-.42,1.95-1.32,1.81-1.87-.28-2.49-2.05-3.12-3.48a1.37,1.37,0,0,1,1.57-1.86C409.85,425.26,410.37,427,411.06,428.29Z"/><path class="cls-24" d="M618,432.45a5.41,5.41,0,0,1-3.55,3.48c-.8.2-1.21-.72-1-1.29.55-1.64.78-3.7,3-3.95C617.29,430.59,617.91,431.34,618,432.45Z"/><path class="cls-25" d="M612.27,439.68a4.12,4.12,0,0,1-2.85,3.4c-.84.32-1.88-.09-1.68-1.06.35-1.75,1.14-3.5,3-4.06C611.6,437.71,612.11,438.63,612.27,439.68Z"/><path class="cls-24" d="M478.61,277.1c-.6,1.66-2.07,2.31-3.67,2.59-.87.16-1.78-.69-1.6-1.4.49-1.87,2.16-2.68,3.9-3C478,275.22,478.6,276.07,478.61,277.1Z"/><path class="cls-25" d="M463,287.08c1.22-.12,1.94.42,1.83,1.32a3.74,3.74,0,0,1-3.1,3.32,1.22,1.22,0,0,1-1.6-1.32A4,4,0,0,1,463,287.08Z"/><path class="cls-25" d="M583,466.91c-1.64.14-2.43-.38-2.3-1.27.27-1.88,2.1-2.43,3.47-3.1.94-.46,2.31.66,1.83,1.5C585.23,465.34,583.73,466.22,583,466.91Z"/><path class="cls-24" d="M613.53,301.69c-1.94-.61-2.54-2.12-2.91-3.68a1.39,1.39,0,0,1,1.35-1.67c1.85.19,2.43,2,3,3.35C615.42,300.71,614.39,301.33,613.53,301.69Z"/><path class="cls-24" d="M578.28,469.07a5.27,5.27,0,0,1-4.3,2.4,1.22,1.22,0,0,1-1.07-1.78c.76-1.62,2.38-2.18,4-2.41C577.79,467.16,578.39,467.82,578.28,469.07Z"/><path class="cls-21" d="M528.37,310.74c1.06.2,2.72-.41,2.77,1.22s-1.57,1.79-2.9,1.83-3-.09-3-1.72C525.31,310.16,527.25,311.05,528.37,310.74Z"/><path class="cls-21" d="M568.2,471.31c1.18-.14,2.12.08,2.09,1.07-.06,2.39-2.3,2.42-3.84,3.06a1.19,1.19,0,0,1-1.58-1.32C565.06,472,567.2,472.16,568.2,471.31Z"/><path class="cls-24" d="M479.54,478.05c1.6.07,3,.45,3.2,2.35a1.25,1.25,0,0,1-1.56,1.42c-1.57-.36-3.51-.65-3.83-2.55C477.12,477.94,478.57,478.08,479.54,478.05Z"/><path class="cls-23" d="M488.26,480.07c1.5.09,3.18.12,3.2,2.15a1.51,1.51,0,0,1-2.09,1.42c-1.23-.49-3.3-.11-3.33-2.22C486,480.13,487.25,480.1,488.26,480.07Z"/><path class="cls-25" d="M624.83,315c.3,1.21-.33,1.76-1.25,1.67-2.05-.19-2.47-2-2.93-3.53a1.43,1.43,0,0,1,1.58-1.9C624.07,311.7,624,313.78,624.83,315Z"/><path class="cls-24" d="M518.75,315.6c-1.12.09-1.94-.34-1.84-1.25.23-2.07,2-2.22,3.6-2.44,1-.15,2.16.25,1.93,1.48C522.05,315.44,519.85,314.84,518.75,315.6Z"/><path class="cls-22" d="M592.93,278c1.54.41,3,1.22,3.15,3.11a1.41,1.41,0,0,1-1.63,1.47,4.33,4.33,0,0,1-3.39-3.2C590.85,278.65,591.84,278.07,592.93,278Z"/><path class="cls-24" d="M567.43,325a5.78,5.78,0,0,1,3.67,3.22,1.47,1.47,0,0,1-1.35,2.1c-2,0-2.37-2-3.06-3.34A1.54,1.54,0,0,1,567.43,325Z"/><path class="cls-24" d="M406,420.81c.13,1-.31,2-1.17,1.84-1.88-.26-2.44-2-3.08-3.53a1.1,1.1,0,0,1,1.09-1.68C405,417.5,405.22,419.45,406,420.81Z"/><path class="cls-24" d="M564.35,322.5c0,1.09-.68,2-1.46,1.6-1.43-.66-3.17-1.28-3.3-3.3-.06-.9.35-1.87,1.35-1.54A5.69,5.69,0,0,1,564.35,322.5Z"/><path class="cls-26" d="M564.24,415.16c-.27,1.94-1.94,2.43-3.43,2.95a1.25,1.25,0,0,1-1.67-1.25,4.7,4.7,0,0,1,2.9-3.09C563.18,413.26,563.81,414.13,564.24,415.16Z"/><path class="cls-25" d="M469,414.62a5.17,5.17,0,0,1,3.34,3.14c.29.79-.68,1.59-1.54,1.34-1.53-.44-3.3-.9-3.51-2.88C467.21,415.38,468,414.8,469,414.62Z"/><path class="cls-22" d="M624.17,421.23c-1.37-.25-2-.88-1.68-1.77.52-1.63.74-3.67,3.07-3.81.7,0,1.33.82,1.05,1.33C625.79,418.45,625.53,420.34,624.17,421.23Z"/><path class="cls-21" d="M629.29,402.13c.32-1.3.39-3.12,2.4-3.5a1.22,1.22,0,0,1,1.36,1.57c-.33,1.59-.73,3.35-2.52,3.85C629.6,404.31,629.28,403.29,629.29,402.13Z"/><path class="cls-21" d="M553.3,479c-.18,1.73-1.66,2-2.8,2.47-1.34.6-2.41,0-2.52-1.37s1.13-1.93,2.35-2C551.39,478.05,552.69,477.56,553.3,479Z"/><path class="cls-22" d="M635.42,362.88c1.48-.09,1.85.84,1.82,1.89,0,1.36.71,3.29-1.48,3.59-1.23.17-1.5-1.1-1.46-2.13C634.35,365,633.81,363.5,635.42,362.88Z"/><path class="cls-21" d="M527,379.88c-1.32.28-2.06-.39-2-1.16.1-1.9,1.57-2.73,3.22-3.1.84-.19,1.86.35,1.82,1.2C530,378.79,528.1,379.16,527,379.88Z"/><path class="cls-25" d="M494.77,335.17c-.35,1.31-.51,2.92-2.19,3.33a1.24,1.24,0,0,1-1.54-1.73c.44-1.27.27-3.14,2-3.55C494.1,333,494.62,334,494.77,335.17Z"/><path class="cls-25" d="M566.82,412.29c-1-.29-1.94-.74-1.55-1.6.73-1.6,1.88-3,3.86-3.19.74-.06,1.38.69,1.06,1.23C569.35,410.18,568.78,412,566.82,412.29Z"/><path class="cls-21" d="M636.33,383.31c-.2,1.34.15,2.85-1.41,2.95-2,.13-1.63-1.58-1.64-2.77s-.22-2.54,1.33-2.66C636.66,380.68,636,382.48,636.33,383.31Z"/><path class="cls-21" d="M442.56,378.62c2.25.18,2.34,2,2.81,3.5.37,1.14-.13,2.2-1.24,2-1.83-.38-1.9-2.39-2.57-3.8C441.1,379.33,441.72,378.83,442.56,378.62Z"/><path class="cls-25" d="M496.72,429.38c-.16,1.36-.78,2-1.69,1.7-1.46-.5-3.54-.21-4-2.28a1.2,1.2,0,0,1,1.61-1.33C494.17,427.88,495.91,428,496.72,429.38Z"/><path class="cls-22" d="M620.73,307.36c-.35.92-1,1.58-1.83,1.36-1.91-.47-2.72-2.09-3.15-3.8-.19-.73.68-1.11,1.31-1C618.94,304.38,619.91,305.83,620.73,307.36Z"/><path class="cls-24" d="M530.39,429.33c1.19.05,2.32.33,2,1.64-.55,2.14-2.78,1.24-4.18,1.89-.84.39-1.61-.47-1.29-1.44C527.46,429.74,529.07,429.63,530.39,429.33Z"/><path class="cls-27" d="M515.64,483c1.1.12,2.67-.25,2.76,1.34.12,2.06-1.68,1.59-2.89,1.64s-2.61.13-2.54-1.54S514.53,483.14,515.64,483Z"/><path class="cls-25" d="M485.78,272.12a3.81,3.81,0,0,1-3.56,2.69c-1,0-1.37-.85-1.14-1.77.43-1.7,1.94-2.21,3.35-2.59C485.42,270.18,485.87,271,485.78,272.12Z"/><path class="cls-26" d="M387.33,360.75c-.1,1.18,0,2.71-1.63,2.5-1.89-.24-1.3-2-1.36-3.21,0-1,0-2.24,1.35-2.22C387.71,357.86,387.15,359.59,387.33,360.75Z"/><path class="cls-24" d="M635.63,377.35c-1.83-.46-1.33-2-1.36-3.22,0-1,0-2.24,1.31-2.26,2,0,1.62,1.68,1.65,2.9S637.33,377.18,635.63,377.35Z"/><path class="cls-26" d="M491.87,344.34c-.18,1.23.33,3-1.61,3.05-1.62,0-1.43-1.53-1.39-2.65s-.3-2.57,1.32-2.78S491.75,343.22,491.87,344.34Z"/><path class="cls-25" d="M583.79,365.81c1.74.11,1.7,1.39,1.66,2.52s.41,2.95-1.6,3c-1.31,0-1.39-1.24-1.35-2.23C582.55,367.86,582,366.34,583.79,365.81Z"/><path class="cls-26" d="M453.85,398.32c.13,1.1-.25,1.94-1.18,1.9-2.06-.1-2.23-2.08-2.92-3.44-.57-1.14.19-2.18,1.23-1.91C452.63,395.31,453.1,397.11,453.85,398.32Z"/><path class="cls-24" d="M558.65,478.87c-1,.07-1.89-.13-1.87-1.14.07-2.18,1.94-2.3,3.47-2.61.77-.16,1.9,0,1.84,1C562,478.25,559.88,478.13,558.65,478.87Z"/><path class="cls-27" d="M605.92,289.44a6.21,6.21,0,0,1,3.26,3.44c.31.87-.15,1.9-1.11,1.66a5.25,5.25,0,0,1-3.41-3.28C604.29,290.38,605,289.78,605.92,289.44Z"/><path class="cls-26" d="M511.77,314.93c1-.06,1.83.22,1.81,1.22,0,1.91-1.73,2.17-3.06,2.55-1,.29-2.25-.28-2-1.39C508.77,315.69,510.51,315.44,511.77,314.93Z"/><path class="cls-26" d="M546.64,315.62c-1.09-.63-3-.22-3.51-1.89a1.38,1.38,0,0,1,1.89-1.54c1.26.44,3.25.1,3.44,2.13C548.55,315.25,547.78,315.74,546.64,315.62Z"/><path class="cls-28" d="M540.16,311.78a1.79,1.79,0,0,1-1.9,1.92c-1.24.05-2.86.6-3.35-1.16-.37-1.31.72-1.73,1.78-1.69S539.37,310.29,540.16,311.78Z"/><path class="cls-28" d="M573.11,267.2c-.29.93-.83,1.82-1.69,1.5-1.38-.5-3.59-.05-3.7-2.38a1.21,1.21,0,0,1,1.78-1.08C570.77,265.75,572.51,265.54,573.11,267.2Z"/><path class="cls-26" d="M447.16,313.68c-1.44.07-2.13-.49-2-1.39.3-1.55.61-3.37,2.47-3.77.74-.16,1.37.84,1.29,1.75A4.84,4.84,0,0,1,447.16,313.68Z"/><path class="cls-22" d="M452.24,301c1,.11,1.71.54,1.34,1.56-.49,1.37-1,2.87-2.65,3.23-.95.21-1.82-.33-1.55-1.25C449.83,303,450.37,301.31,452.24,301Z"/><path class="cls-26" d="M470.73,475.14c1.21.71,3.38.43,3.47,2.61.05.92-1.08,1.33-1.87.94-1.25-.64-3.26-.21-3.68-2C468.36,475.5,469.53,475.17,470.73,475.14Z"/><path class="cls-24" d="M501.35,374.58a3.67,3.67,0,0,1,3.17,2.94c.15.81-.59,1.73-1.48,1.28-1.38-.69-3.21-1.12-3.59-2.89C499.3,375.19,500.27,374.63,501.35,374.58Z"/><path class="cls-20" d="M387.3,343.09c0,1.22-.11,2.47-1.74,2.4s-1.73-1.12-1.72-2.45.4-2,1.54-2.13C387,340.69,387.29,341.81,387.3,343.09Z"/><path class="cls-29" d="M512.71,380.78c-.22,1.13-.83,1.7-1.75,1.46-1.35-.36-3.11-.51-3-2.53.06-1,1-1.24,1.85-1C511.06,379.05,512.38,379.39,512.71,380.78Z"/><path class="cls-26" d="M416.56,435.16c.12,1.36-.5,2-1.38,1.88-1.63-.17-2.48-1.56-3.27-2.76a1.15,1.15,0,0,1,1-1.75C414.9,432.46,415.44,434.39,416.56,435.16Z"/><path class="cls-27" d="M440.51,330.65c-1.33-.22-1.48-1.22-1.35-2.24.17-1.4.74-2.63,2.44-2.52,1,.06,1.38.87.95,1.77C442,328.75,442.38,330.48,440.51,330.65Z"/><path class="cls-27" d="M396.32,406.21a3.68,3.68,0,0,1-1.86-3.54,1.17,1.17,0,0,1,1.77-1c1.37.57,1.73,1.95,1.86,3.23C398.19,405.76,397.55,406.36,396.32,406.21Z"/><path class="cls-25" d="M435,454.72c-.07,1.32-.63,2.11-1.51,1.83a4.94,4.94,0,0,1-3-3c-.33-.87.42-1.91,1.19-1.75C433.27,452.15,434.14,453.66,435,454.72Z"/><path class="cls-26" d="M553.7,423.23c-1,.09-2-.1-1.75-1.14a3.46,3.46,0,0,1,3.17-2.68c.88-.12,1.88.4,1.78,1.27C556.69,422.46,554.86,422.54,553.7,423.23Z"/><path class="cls-25" d="M622.83,424.89c-1,1.3-1.3,3.17-3,3.76-.81.3-1.59-.65-1.34-1.55.41-1.39.8-3,2.42-3.5C621.9,423.29,622.42,424,622.83,424.89Z"/><path class="cls-27" d="M442.45,460c.08,1.2-.35,1.8-1,1.83a4.15,4.15,0,0,1-4-2.31c-.43-.83.39-2,1.09-1.75A21.78,21.78,0,0,1,442.45,460Z"/><path class="cls-29" d="M419.32,439.46a4.06,4.06,0,0,1,2.71,3c.18.89-.28,1.76-1.3,1.4a4.76,4.76,0,0,1-3-3C417.49,440,418.3,439.53,419.32,439.46Z"/><path class="cls-30" d="M387.12,371.42c-1.51,0-1.76-1-1.76-2s-.29-2.48,1.32-2.66c1.29-.15,1.54.92,1.58,1.94S388.43,371,387.12,371.42Z"/><path class="cls-28" d="M526.57,484.62c-.36,1.53-1.6,1.35-2.71,1.34s-2.08-.29-1.93-1.57c.19-1.59,1.57-1.34,2.67-1.34S526.54,483.31,526.57,484.62Z"/></svg>