<svg id="f283e205-2e6f-4b06-98b6-549633ff931e" xmlns="http://www.w3.org/2000/svg" viewBox="0 0 1050 750.9"><defs><style>.cls-1{fill:#3287ca;}.cls-1,.cls-27,.cls-30{opacity:0.1;isolation:isolate;}.cls-2{fill:#bc0448;}.cls-3{fill:#f3f1e5;}.cls-4{fill:#cd5139;}.cls-5{fill:#e8e2d7;}.cls-6{fill:#e8e2d6;}.cls-7{fill:#633750;}.cls-8{fill:#63374f;}.cls-9{fill:#f9ba77;}.cls-10{fill:#e6704d;}.cls-11{fill:#f4f2e7;}.cls-12{fill:#ecb272;}.cls-13{fill:#f1f0e6;}.cls-14{fill:#62364f;}.cls-15{fill:#633650;}.cls-16{fill:#ecb372;}.cls-17{fill:#784553;}.cls-18{fill:#ecb170;}.cls-19{fill:#e87856;}.cls-20{fill:#f8bc78;}.cls-21{fill:#f8bb78;}.cls-22{fill:#4c203a;}.cls-23{fill:#724354;}.cls-24{fill:#ecb273;}.cls-25{fill:#eeb573;}.cls-26{fill:#d4dfec;}.cls-28{fill:#be0449;}.cls-29,.cls-30{fill:#276955;}</style></defs><ellipse class="cls-1" cx="523.56" cy="712.35" rx="525" ry="33"/><path class="cls-2" d="M416.88,635.29c-3.11-1.55-6.4-2.78-9.29-4.7-13.66-9-16.48-18.36-8-32.72,11.34-19.1,12.94-40.92,17.26-62,1.19-5.85,3.4-11.51,3.29-17.64,4.89-1.88,9.58.8,14.42.84,6.88.06,11-3,13.51-9.58,3.28-8.55,4.7-17.52,5.93-26.57.6-7.64,5-11.05,11.67-11.08,5,0,9.84-3.84,14.93-.66,3.24,7.14,3.17,15.27,6,22.6,3.6,9.35,7.13,18.5,17.34,21.76,6.82,19.78,9.73,40.5,12.57,61.2,1.71,12.41,3.66,24.82,3.2,37.48-.38,10.32-4.12,18.16-13.41,22.31-8.57,3.8-17.35,4.85-26.39,2.19-11.11-1.78-22.16-5-33.51-1.73-6.92,1.81-14,1.88-21,1.59C422.28,638.43,419,638.56,416.88,635.29Z"/><path class="cls-2" d="M584,353.4a76.78,76.78,0,0,1,15.1,7.9c3,9.11,1.75,18.56,1.93,27.9.1,5.46-.38,10.94.45,16.38-1.21,12.16,3,23.58,4.4,35.37a99.33,99.33,0,0,1,1.1,15.5c-.24,6,.63,12-1,17.91a12.85,12.85,0,0,1-4.33,7.08c-24.46,11.58-49.14,11.22-74,1.46a16.32,16.32,0,0,1-6.6-4.92,11.57,11.57,0,0,1-1.78-10.47c2-5.25,5.76-4.3,9.79-3.48,12.37,2.49,24.49,7.16,37.39,5.32,2.72-.11,4.44,1.7,6.15,3.6s3.65,4,6.29,2.3c2.91-1.84,3.16-5,2.52-8.26a13.82,13.82,0,0,0-12.34-11.35c-1.45-.16-2.92.16-4.37-.22-9.48-7-19-13.91-29.52-19.17a8.35,8.35,0,0,1-3.79-3.63,24.15,24.15,0,0,0-6.11-13.22,15.92,15.92,0,0,1-.11-10c6.16-8.63,7-18.63,6.22-28.91-.71-9.59-4.67-17.33-12.64-22.37.2-.14.39-.37.61-.42,5.67-1.2,11.86-4.45,16.88-3,5.62,1.59,5.11,10.22,7.79,15.51.83,1.62,1.35,2.55,3.07,2.26,3.4-.5,4.44,2.65,6.15,4.65,3.29,3.84,6,8.22,9,12.26,1.78,2.35,2.93,6.71,5.84,6.32,3.4-.45,3.21-5.25,4.56-8.14,2.73-5.8,2.89-12.63,6.22-18.23,2.71-3.36,1.5-7.37,1.68-11.16C580.7,355.83,579.68,352.37,584,353.4Z"/><path class="cls-2" d="M480.4,472.24c-7.3-.48-14.25,1.79-21.27,3.28-3.9.83-.95,5.85-3.42,7.83-2.69-4.39-6.31-5.08-11.14-4.63-6.82.64-14.12,2.23-20.18-3.32-15-2.91-18.46-6.75-19.49-23.22-1.36-21.63.35-42.83,9.15-62.8,2.54-5.75,5.41-11.24,11.86-13,7.88,2.43,11.84,8,12.27,18,.64,14.65.1,29.19-3.2,43.58-2.28,10-.15,12.08,9.53,11.14,5.34-.51,10.26-1.59,11.82-8.22,4.65-1.09,4.06,8.15,10.06,5.48,3.89-1.73,8.45-2,12.84-1.57a12.06,12.06,0,0,1,7.88,3.14c3.67,5.58,3.73,11.44,1.18,17.51C486.13,468.31,483.7,470.85,480.4,472.24Z"/><path class="cls-3" d="M567.85,469.93c-4.56,4.29-9.93,2.42-14.81,1.61a269.35,269.35,0,0,1-26.62-6.05c-2.83-.78-4.54-.74-5.81,2.11a5.19,5.19,0,0,1-1.63-1.25c-2.92-4-9.08-3.53-10.89-9,1.66-8.51,1.69-8.6-6.4-11.07-2.95-.91-3.49-3.33-4.14-5.89-2.51-14-1.42-28.13-1-42.21.09-3.31.62-6.8,2.94-9.48,2.55-6.85,5.13-13.68,7.64-20.54a15.55,15.55,0,0,1,8.82-9.63c8.09,2.09,11.53,8.83,12.91,16.46,2.07,11.39,2.66,22.94-2.23,33.93,0,3.58,0,7.15.07,10.73-1,2.49-3.52,2.48-5.36,3.56-3.65,2.15-5.78,5-3.5,9.4,2,3.9,5.11,4.37,8.66,2.32,1.9-1.1,3.7-2.53,6.06-2.17,11.36,6.42,23.35,11.75,32.58,21.77C560.59,460.74,566.61,464.86,567.85,469.93Z"/><path class="cls-4" d="M437.64,371c-6.14-.38-12.2-1.09-17.85-4-4.63-2.4-7-6.33-7.3-11.75-.3-5.24,2.49-8.59,6.54-10.34,7.24-3.14,9.53-9.09,9.8-16.74a38.79,38.79,0,0,1,5.9-19.93c6.78-10.6,18.64-14.41,30.69-9.28,4.24,1.8,8.1,3,12.74,1.77a9.89,9.89,0,0,1,11.66,4.61c2.87,4.8.72,9-2.61,12.63-1,1.11-2.52,2.12-2,3.89,2.44,8.63-.09,17.78,2.7,26.43,4.38,13.6.85,19.42-12.52,21.33a42,42,0,0,1-5.15.12,4.43,4.43,0,0,1-1.21-1.9,7.1,7.1,0,0,1,2.94-7.4c5.08-3.93,7.26-9.54,8.47-15.78,1.77-4,2.61-8,.22-12.1-.77-6.52-4.4-8.17-10.24-8.31-9.25-.22-17.44.49-22.95,10.12-1.85,3.21-2.84,5.23-.1,8,9.1,9.19,7.92,16.75,1.18,26.21C445.18,370.74,441.65,372,437.64,371Z"/><path class="cls-5" d="M548.73,350.68c-.63-.4-1.66-.65-1.83-1.21-3.23-10.29-11.76-17.64-14.12-28.32-3.91-17.74,8.27-32.8,24-32.06,2.45.12,4.91,0,7.37,0,13,0,17,9.29,16.51,20.71-.33,7.08-1,14,.7,20.8,1.59,6.42.12,11.72-3.18,16.85-1.91,2.58-2.36,6.71-6.49,6.95C564,353.39,555.71,356.61,548.73,350.68Z"/><path class="cls-6" d="M605.07,456.49c-.22-12.81-3.1-25.2-5.38-37.68-.81-4.45-1.08-8.74.28-13.07.19-12.28,2.13-24.52.76-36.84a3,3,0,0,1,1.48-2.56c7.7,7.44,6.15,18.15,8.37,27.48A76.17,76.17,0,0,1,612.26,414c-.32,9.94,5.32,17.08,11.28,23.42,7.3,7.79,13.43,16.51,19.78,25.09-.14.2-.24.51-.43.59-8.9,4-8.9,4-5.28,13.76a3.49,3.49,0,0,1-2.92,1.09C623.36,473.08,612,468.2,605.07,456.49Z"/><path class="cls-7" d="M424.39,475.4c8.51,1.37,17,2.44,25.57.2,6.76-1.77,5.25,4,5.75,7.75a85.7,85.7,0,0,1-4.2,22.82c-5.13,15.5-8.95,16.92-25.11,14.16a39.06,39.06,0,0,1-6.22-2.13c-11.62-5.83-12.32-9.33-4.89-20.12A54.58,54.58,0,0,0,424.39,475.4Z"/><path class="cls-8" d="M457.14,440.5c.84,7.07-1.91,10.54-8.74,10.27-1.92-.08-3.86.69-5.8.75-11.44.37-12.81-1.23-9.93-13,3.63-14.85,4-29.93,3.46-45.09-.29-7.62-4-13.24-10.22-17l11.75-4c2.06-2.48,4.17-1.59,5.47.54,3.6,5.86,9,10.3,11.56,17A156.38,156.38,0,0,1,459.08,434C459,436.32,458.86,438.69,457.14,440.5Z"/><path class="cls-9" d="M416.88,635.29c9.84,2.17,19.64,1.08,29.44-.41,1.13,2.22,0,4-1,5.77-8.86,14.31-18.16,28.29-27.47,42.27-1.53,2.3-3.13,4.72-6.09,5.24-5.11-.31-10.41,0-14.19-4.76A343.67,343.67,0,0,1,416.88,635.29Z"/><path class="cls-10" d="M640.18,686.47c-2.44,4.45-.69,9.73-2.48,14.37-.64,1.66-.64,4.19-2.66,4-2.61-.26-2.23-3-2.09-5,.21-2.83.66-5.63,1-8.44-2.13-3.12-1.24-6.53-.82-9.88,6.35-50.43,12.83-100.85,18.94-151.31,1.29-10.67,2.13-21.39,3.43-32.05.65-5.35.08-10.48-2.87-15.08-1.37-2.5-2.59-5-.5-7.79,8.34,2,10.43,8.65,10.54,16.56.19,14.2-2.2,28.17-3.84,42.17-4.47,38.14-9.4,76.22-14.12,114.33C643.15,661.05,641.69,673.76,640.18,686.47Z"/><path class="cls-7" d="M486.36,448.55c-2.43-.41-4.58-2.26-7.21-1.68-2.95-3.51-2.32-7.86-2.4-12-.37-18.89,1.07-37.84-1.94-56.62,0-2.45-.47-5.11,2.77-5.76l10.53,7.75c4.76,4,6.54,9.6,7.06,15.78a275.59,275.59,0,0,1,.07,48.41C493.2,448,490.68,450.5,486.36,448.55Z"/><path class="cls-5" d="M580,369.9c-3.06,10.4-5.41,21.09-11.23,31.29l-21.64-28.72c3.15-3.55,5.33-8.35,10.53-9.24,5.5.17,5.57,6.33,8.89,9.14,2.42-3,1.13-8.43,5.71-9.93C576.3,363.18,578.78,365.79,580,369.9Z"/><path class="cls-2" d="M397.55,683.4l14.95,3.44c.76,1.14,1.15,2.22-.53,2.85-3,3.71-3.23,6.92.4,10.72a11.74,11.74,0,0,1,2.88,11.37C409.58,710,403.73,709.23,399,705c-.18-.15-.3-.62-.41-.61-11.57,1.55-5.42-6.64-5.5-11.39Z"/><path class="cls-11" d="M477.58,372.48c-2.8,1.08-1,3.35-1.14,5.1.84,11-1.37,13-10.1,8.25-2.86-1.55-3.28.5-4.72,1.55-2.83,2.07-5.72,4.64-8.91.56-3.83-3.71-7.45-7.64-10-12.46-1.19-2.22-2.32-4-5-3.1,0-.48,0-.95,0-1.43a27.21,27.21,0,0,1,10.34-3.2c3.45.87,5.77,3.73,8.63,5.63,6.6,4.37,7.33,4.22,10.77-3,.52-1.12.88-2.5,2.53-1.91a5.69,5.69,0,0,1,.31,1.23C472,372.51,475.71,369.81,477.58,372.48Z"/><path class="cls-12" d="M652.14,475.29a8.93,8.93,0,0,0,1.49,6c-1,4.59-3.84,7.49-8.13,7.69-4,.19-5.86-3.18-7-6.9-.42-1.81-1.31-3.51-1.35-5.45-.79-.93-1.43-2.2-2.42-2.74-3.18-1.72-4-4.46-3.06-7.8s3.76-3.6,6.5-3.65c1.7,0,3.4,0,5.1,0C648.26,465.19,650.49,470,652.14,475.29Z"/><path class="cls-2" d="M493.89,445.11c-.69-17.24,1.27-34.54-1.34-51.77a44.81,44.81,0,0,0-4.44-13.11l11.37,8.44q-.6,14.81-1.2,29.62c-.33,8.1.49,16.13,1.35,24.15C498.25,444.63,496.78,446.62,493.89,445.11Z"/><path class="cls-12" d="M572.15,363.21c-2.92,3.87-2.09,9.36-5,13.69-4-4.2-5.28-10.14-9.5-13.67q-4.46-6.27-8.92-12.55c7.2,1.3,14.38,2.71,21.69.57,1.61-.47,1.83,1.25,2.22,2.45C574.78,357,574.67,360.18,572.15,363.21Z"/><path class="cls-2" d="M526.62,408.89c.4-7.33.84-14.66,1.18-22,.53-11.58-2.24-21.62-11.86-28.39l2.83-.36c8.43.6,11.77,7.16,13.17,14.43C534.38,385.2,536.5,398.16,526.62,408.89Z"/><path class="cls-13" d="M572.15,363.21l.48-9.51c1.17-2.76,2.56-5.29,5.53-6.23-.22,4.42,3.74,4.14,5.85,5.93-4.19,4.09-.25,9.1-1.32,13.55-.39,1.62,1.2,5.07-2.7,2.94Z"/><path class="cls-2" d="M602.21,366.34a99.48,99.48,0,0,1-2.24,39.4c-2.4-7.28-.77-14.8-1-22.2s.08-14.83.15-22.24C601.16,362.26,601.78,364.24,602.21,366.34Z"/><path class="cls-9" d="M478.83,656.69c.37-6.7.1-13.46,1.71-20.05,8.61,2.26,17,1.18,25.29-1.85q-4.79,22.65-9.55,45.29c-.58,2.77-1,5.58-1.52,8.37-5.23,2.92-10.43,3.44-15.59-.2Z"/><path class="cls-14" d="M566.46,704.07c.51-3.19,1-6.37,1.52-9.56,5.69-3.81,11-1.9,16.13,1.37,4.28,2.13,8.49,4.48,13.21,5.4,1.73,1.78,4,3.06,4.64,5.85.48,2.06.52,3.71-2.15,3.6-9.55-.42-19.14.52-28.66-1.47C568,708.6,567.45,706.38,566.46,704.07Z"/><path class="cls-14" d="M534.07,695.87c5.54,3.42,12.21,4.27,17.3,8.72,1.37,4,1.66,6.8-4,6.24-6-.61-12.18-.25-18.27-.48-12-.47-12.15-.71-11.88-14.2l.48-1.56C523.48,690.76,528.83,692.47,534.07,695.87Z"/><path class="cls-2" d="M479.17,688.25l15.59.2a6.32,6.32,0,0,0,.43,1.12c-2.05,4.84-2.21,8.71,3.32,11.4a10.94,10.94,0,0,1,6.22,9.21c-7.77,2.39-15.53-1-23.22.5-2.9.56-2.57-2.44-2.56-4.42C479,700.26,479.09,694.26,479.17,688.25Z"/><path class="cls-15" d="M495.3,464.4c1.2,12.21,2.74,24.11,11.09,33.87,5.44,6.36,3.72,12.42-3.69,17-6.06,1.74-9.07-2.58-11.65-7a77.49,77.49,0,0,1-10.65-36c.67-3.61,3.92-4.46,6.1-6.46C489.29,464.27,491.93,461.7,495.3,464.4Z"/><path class="cls-2" d="M520.66,488A21.91,21.91,0,0,1,522.07,477c15.76,9.94,33,12.26,50.76,10.32,9.4-1,18.82-2.87,27.54-7.23q.12,5.44.25,10.89c-1.18,3.44-4.18,4.21-6.92,5.16-21.44,7.39-42.86,6.39-64.21-.46C525.63,494.4,522.33,492.24,520.66,488Z"/><path class="cls-12" d="M567.85,469.93c-8.67-8.73-8.67-8.73-2.72-15.43,10.89-2.42,20.68,6.87,18.26,17.44-.62,2.7-1.08,5.9-4.45,6.57s-5.72-.72-7.55-3.63C570.3,473.16,569,471.58,567.85,469.93Z"/><path class="cls-12" d="M532.55,432.73a6.8,6.8,0,0,1-1,1.1c-4,2.76-7.83,7.14-13.13,3-3-2.34-4.71-5.95-3.51-9.64,1.83-5.66,6.74-7,11.82-7.56C533.54,421.5,532.19,427.55,532.55,432.73Z"/><path class="cls-2" d="M452.71,387.94c5.75,2,8.53-1.57,10.62-6.68,3.65,1.45,5.4,7.46,10.3,5.24,3.75-1.71,2.22-5.81,2.81-8.93,2.63,9.08,2.65,18.42,2.64,27.78q0,20.76.07,41.52a42.55,42.55,0,0,0-9.5.87c-10,2.58-10,2.42-12.51-7.24A262.19,262.19,0,0,0,452.71,387.94Z"/><path class="cls-16" d="M495.3,464.4c-2.95.33-5.71,2.08-8.8,1.38,2.67-5.77,1.66-11.5-.14-17.23l7.53-3.44,5.74-2.67c.45,1.16.69,2.92,2.27,2.36,3.32-1.17,6.62-2.72,8.86,1.69s.4,7.95-2.16,11.33c-.58,2.63-2.43,3.18-4.61,3.2Z"/><path class="cls-2" d="M504,461l4.61-3.2c3.14,4.08,9.91,2.06,11.92,8.05C514.46,466.38,508.48,466.59,504,461Z"/><path class="cls-16" d="M469.91,368.43c-1.82,1.83-.61,4.56-1.73,6.6-1.79,3.26-4.18,5.49-7.74,3.19-4.54-2.92-9.61-5.22-12.46-10.47,1.24-3.09,2.86-6.09,3.65-9.31,1.55-6.34-1.21-10.91-5.92-14.61-5-3.92-4.9-6.88.06-10.54.39-.29,1.17-.28,1.29-.61,5.93-15.89,18.89-9.48,29.33-10.16,6.78-.44,4.95,6.09,5.48,10.38a3.13,3.13,0,0,1-2.63,1c-3.07,0-5.31,1.22-5.35,4.79s2.6,4.55,5.4,4.9a4.41,4.41,0,0,1,2.68.92c-.41,7.06-2.6,13.27-8.57,16.94C470.58,363.17,470,365.48,469.91,368.43Z"/><path class="cls-17" d="M482,344.49c-3.47,1.75-6.71,1.64-9.18-1.81a6.69,6.69,0,0,1,0-8c2.46-3.64,5.65-3.63,9.11-1.76C486.12,336.72,484.3,340.6,482,344.49Z"/><path class="cls-12" d="M576,302.52a69.49,69.49,0,0,1,2.16,21.68C577.83,331,575.78,336,568,335c-1.91-.23-3.89.33-5.83.23-11-.57-11.25-.56-13.08-12-.86-5.39-1.19-10.82-3.24-15.95a5.62,5.62,0,0,1,.42-4.46c1.15-1.64,2.76-.08,3.83.68C558.75,309.66,567.18,308.52,576,302.52Z"/><path class="cls-18" d="M545.54,321.44c-1.52,2-1.62,5.71-4.21,5.74-2.26,0-3.21-2.76-3.05-5.34.16-2.77,1.5-4.37,4.18-4C544.36,318,545.25,319.51,545.54,321.44Z"/><path class="cls-19" d="M640.23,480.38c-6.46,2.7-6.09,8.63-6,14.44,0,2.21,1,5.33-2.32,5.45-3,.1-2.89-3.2-3.09-5.3a23.5,23.5,0,0,1,5.64-18l2.74-.36A5.21,5.21,0,0,1,640.23,480.38Z"/><path class="cls-7" d="M520.66,488c16.19,10.7,34.14,11.68,52.35,10.27a74.58,74.58,0,0,0,27.61-7.37c4.37,19.92,5.85,40.31,8.45,60.52,5.67,44,.18,86.67-14.09,128.27-1.56,4.53-3.27,7.33-8,7.08-6.22,3.62-12,2-17.64-1.62-3.11-1.16-4-2.73-3.34-6.8,3.77-21.87,7.61-43.72,9.75-65.9,1.29-13.3-3-25.28-4.81-37.86,1.45-12.31,1.17-24.76,2.26-37.11-1.19,11.39-.32,23-2.54,34.25-3,6.43-2.06,13.58-3.29,20.33-5.54,30.5-15.57,59.64-23.67,89.37-1.22,4.48-4.07,3.56-6.75,4.06-6.48,3.15-12.43,2.44-17.78-2.73-4.66-1.26-6.36-3.3-5-9.26a637.46,637.46,0,0,0,12.51-66c2.44-18.93-1.46-37-4.19-55.34C519.37,530.83,517.27,509.54,520.66,488Z"/><path class="cls-20" d="M569.36,685.18,587,686.8c-1,3-1.93,6.05-2.89,9.08L568,694.51Z"/><path class="cls-21" d="M519.19,682.79c5.79,1.94,11.77,2.43,17.78,2.73q-1.46,5.18-2.9,10.35l-16.33-1.28Q518.48,688.7,519.19,682.79Z"/><path class="cls-22" d="M570.68,571.76a162.42,162.42,0,0,1,2.61-36.37c.15,13.14,1.69,26.36-2.33,39.23C570.87,573.67,570.77,572.72,570.68,571.76Z"/><path class="cls-23" d="M467.24,334.81c3.09,3.69,2.43,6.95-1.21,9.57-3.26,2.37-6.32,1.12-8.27-1.91s-1.79-6.64,1.19-9.06,6.23-3.15,8.36,1.49c-1.34,2-5,.39-5.54,4.33C465.42,340.11,465.38,336,467.24,334.81Z"/><path class="cls-24" d="M482.08,338.87c-.26,2.84-1.86,4.13-4.42,4s-4.28-1.61-4.13-4.37c.17-3,2.13-4.91,4.87-4.61C480.7,334.17,482.34,336,482.08,338.87Z"/><path class="cls-25" d="M467.24,334.81c0,1-.1,2.06-.08,3.09.07,3.64-1.72,5.31-5,5-2.56-.28-4.11-2.1-3.51-4.82.68-3.08,2.5-5,5.87-3.76a23.47,23.47,0,0,0,2.76.63Z"/><ellipse class="cls-1" cx="926.9" cy="717.26" rx="34.6" ry="3.8"/><rect class="cls-26" x="904.4" y="706.56" width="43.8" height="11.5"/><rect class="cls-26" x="897.4" y="669.16" width="57.2" height="40.2"/><rect class="cls-27" x="904.4" y="706.56" width="43.8" height="11.5"/><rect class="cls-27" x="897.4" y="669.16" width="57.2" height="40.2"/><rect class="cls-26" x="907.3" y="706.56" width="43.8" height="11.5"/><rect class="cls-27" x="907.3" y="706.56" width="43.8" height="4.2"/><path class="cls-28" d="M894.06,626.46a31.15,31.15,0,0,1,19.14,6.69A29.38,29.38,0,0,1,924.89,657c.06,5.15-.46,10.29-.06,15.43.39,4.56,1.6,8.75,5.58,11.62a15.54,15.54,0,0,0,5.76,2.13c.32.08.74.15.9.39.26.46-.26.74-.53,1a9.6,9.6,0,0,1-4.83,2.28c-14.73,3.2-30.9-8-33.19-22.93-1-6.8-.41-13.59-.3-20.39a54.72,54.72,0,0,0-.7-12.46A19.51,19.51,0,0,0,894.06,626.46Z"/><path class="cls-28" d="M928.73,664.29c.25-8.45,1.27-15.51,4.31-22.13,4.63-10.09,14.63-15.67,26-15.55,1.39,0,1.33.46.74,1.44-3.52,5.54-4,11.72-3.7,18.06.35,7.21,1.6,14.4.52,21.61-.83,5.55-2.63,10.7-7.56,14-7.77,5.19-17.32,1.39-19.35-7.69A48.4,48.4,0,0,1,928.73,664.29Z"/><path class="cls-28" d="M927.21,646.06c-.52-2.24-1-4.11-1.39-6a17.74,17.74,0,0,0-7.42-11.15c-1.24-.83-1.22-1.58-.69-2.72a22.34,22.34,0,0,1,8.32-9.58,2,2,0,0,1,2.47,0,19,19,0,0,1,7.82,10.18c.25.75.28,1.33-.46,1.8-5.23,3.26-7,8.51-7.94,14.19-.12.69-.26,1.37-.41,2A6.31,6.31,0,0,1,927.21,646.06Z"/><rect class="cls-26" x="900.3" y="669.16" width="57.2" height="40.2"/><path class="cls-29" d="M208.73,686.05a41.7,41.7,0,0,1-.8,7.8c-.1.5-.2,1-.3,1.4-2.8,11.4-10.8,19.7-20.4,20.2h-1c-10.1,0-18.7-8.7-21.5-20.7a3.12,3.12,0,0,1-.2-1,41.7,41.7,0,0,1-.8-7.8c0-16.3,10.1-29.5,22.5-29.5S208.73,669.85,208.73,686.05Z"/><path class="cls-30" d="M208.73,686.05a41.7,41.7,0,0,1-.8,7.8c-.1.5-.2,1-.3,1.4h-1a47.35,47.35,0,0,1-7.4-1,35.63,35.63,0,0,1-6.6,1.5,45.85,45.85,0,0,1-5.1.5h-1.7a44.32,44.32,0,0,1-6.2-.4,42,42,0,0,1-9.7-2.4,51.78,51.78,0,0,1-5.2,1.4,3.12,3.12,0,0,1-.2-1,41.7,41.7,0,0,1-.8-7.8c0-16.3,10.1-29.5,22.5-29.5S208.73,669.85,208.73,686.05Z"/><path class="cls-2" d="M256.73,631.25a46,46,0,0,0-4.9-20.6l-26.5,8.2,23.2-13.7a45.78,45.78,0,0,0-34.4-19.6,53.13,53.13,0,0,0-3.6-4.7l-38,11.8,31.2-18.3a45.62,45.62,0,0,0-64,8.35l-.11.15a47.41,47.41,0,0,0-7.9,15.9l32.5,37.5L129,610.75a45.72,45.72,0,0,0,40.9,80.7,46.62,46.62,0,0,0,29.3.8,45.62,45.62,0,0,0,54.45-34.58c0-.08,0-.15,0-.22a47.15,47.15,0,0,0,1.1-9.9c0-1,0-2-.1-3A46.19,46.19,0,0,0,256.73,631.25Z"/><path class="cls-27" d="M255.93,639.75a120,120,0,0,0-42.3-.5c-15.9,2.6-32.1,8.4-47.7,4.2-9.1-2.5-17-8.2-25.9-11.4a48.81,48.81,0,0,0-26.8-1.6,45.79,45.79,0,0,0,56.7,61.1,46.62,46.62,0,0,0,29.3.8,45.62,45.62,0,0,0,54.45-34.58c0-.08,0-.15,0-.22a47.15,47.15,0,0,0,1.1-9.9c0-1,0-2-.1-3Q255.45,642.22,255.93,639.75Z"/></svg>