<svg id="f283e205-2e6f-4b06-98b6-549633ff931e" xmlns="http://www.w3.org/2000/svg" viewBox="0 0 1050 750.9"><defs><style>.cls-1{fill:#3287ca;}.cls-1,.cls-3,.cls-5{opacity:0.1;}.cls-1,.cls-3,.cls-5,.cls-8{isolation:isolate;}.cls-2,.cls-3{fill:#276955;}.cls-4{fill:#bc0448;}.cls-6{fill:#fff;}.cls-7{fill:#f2f2f2;}.cls-8{opacity:0.03;}.cls-16,.cls-9{fill:#fefefe;}.cls-9{stroke:#000;stroke-miterlimit:10;}.cls-10{fill:#cd1e5f;}.cls-11{fill:#cf2967;}.cls-12{fill:#d52869;}.cls-13{fill:#dd80a2;}.cls-14{fill:#ededed;}.cls-15{fill:#ba90a1;}.cls-17{fill:#fefdfe;}.cls-18{fill:#b70a4b;}.cls-19{fill:#b66080;}.cls-20{fill:#a6657d;}.cls-21{fill:#7d2645;}.cls-22{fill:#f8ddec;}.cls-23{fill:#f8e0ea;}.cls-24{fill:#f9dee9;}.cls-25{fill:#979898;}</style></defs><ellipse class="cls-1" cx="525" cy="717.9" rx="525" ry="33"/><path class="cls-2" d="M967.7,693.4a41.29,41.29,0,0,1-.8,7.8c-.1.5-.2,1-.3,1.4-2.8,11.4-10.8,19.7-20.4,20.2h-1c-10.1,0-18.7-8.7-21.5-20.7a3,3,0,0,1-.2-1,41.29,41.29,0,0,1-.8-7.8c0-16.3,10.1-29.5,22.5-29.5S967.7,677.2,967.7,693.4Z"/><path class="cls-3" d="M967.7,693.4a41.29,41.29,0,0,1-.8,7.8c-.1.5-.2,1-.3,1.4h-1a47,47,0,0,1-7.4-1,35.23,35.23,0,0,1-6.6,1.5,44,44,0,0,1-5.1.5h-1.7a43,43,0,0,1-6.2-.4,41.72,41.72,0,0,1-9.7-2.4,50.09,50.09,0,0,1-5.2,1.4,3,3,0,0,1-.2-1,41.29,41.29,0,0,1-.8-7.8c0-16.3,10.1-29.5,22.5-29.5S967.7,677.2,967.7,693.4Z"/><path class="cls-4" d="M1015.7,638.6a45.93,45.93,0,0,0-4.9-20.6l-26.5,8.2,23.2-13.7a45.77,45.77,0,0,0-34.4-19.6,53.25,53.25,0,0,0-3.6-4.7l-38,11.8,31.2-18.3a45.63,45.63,0,0,0-64.1,8.5,47.41,47.41,0,0,0-7.9,15.9l32.5,37.5L888,618.1a45.72,45.72,0,0,0,40.9,80.7,46.62,46.62,0,0,0,29.3.8,45.61,45.61,0,0,0,54.5-34.8,46.93,46.93,0,0,0,1.1-9.9c0-1,0-2-.1-3A46.09,46.09,0,0,0,1015.7,638.6Z"/><path class="cls-5" d="M1014.9,647.1a120.25,120.25,0,0,0-42.3-.5c-15.9,2.6-32.1,8.4-47.7,4.2-9.1-2.5-17-8.2-25.9-11.4a48.91,48.91,0,0,0-26.8-1.6,45.79,45.79,0,0,0,56.7,61.1,46.62,46.62,0,0,0,29.3.8,45.61,45.61,0,0,0,54.5-34.8,46.93,46.93,0,0,0,1.1-9.9c0-1,0-2-.1-3A49.77,49.77,0,0,0,1014.9,647.1Z"/><path class="cls-4" d="M134.1,683.7l19.1-11.3a45.91,45.91,0,0,0-9.8-11.7L107.3,672l28.3-16.6a46,46,0,0,0-68.1,40.3c0,25.4,20.6,26.3,46,26.3s46-.9,46-26.3a46.44,46.44,0,0,0-3.9-18.7Z"/><path class="cls-5" d="M138.9,708.4a35.44,35.44,0,0,0-6.8-5.3c-3.5-2.3-7.1-4.7-11.2-5.5-3.6-.7-7.3-.1-11-.3a25.35,25.35,0,0,1-16.8-7.7c-2.6-2.7-4.7-6-7.8-8.1-3.4-2.2-7.7-2.7-11.7-2.2-1.2.2-2.3.4-3.5.7a46.13,46.13,0,0,0-2.7,15.6c0,25.4,20.6,26.3,46,26.3,12.3,0,23.5-.2,31.8-3.3l-1.4-2.6A32.79,32.79,0,0,0,138.9,708.4Z"/><path class="cls-6" d="M511,633.5v35.7l28-17.8Z"/><path class="cls-7" d="M261,34.1,245.5,44l9.4-17.1a15.36,15.36,0,0,0-9.4-3.3h-.2c-1.1,0-2.2-.1-3.2-.2l-5.3,3.3,2.3-4.1a18.29,18.29,0,0,1-9.2-7l-9.4,6,6-10.8C220.9,4.1,213.4,0,205.3,0c-9.8,0-18.5,5.8-24.1,14.9a18.17,18.17,0,0,1-16,8.6h-.5c-10.8,0-19.6,12.2-19.6,27.4s8.8,27.4,19.6,27.4a14.58,14.58,0,0,0,6.8-1.7,28.43,28.43,0,0,1,23.7-.5,24.31,24.31,0,0,0,20.1,0,28,28,0,0,1,23.5.5,14.49,14.49,0,0,0,6.7,1.7c10.8,0,19.6-12.3,19.6-27.4A36.26,36.26,0,0,0,261,34.1Z"/><path class="cls-8" d="M231.7,74.2A28.92,28.92,0,0,0,215,76a24.31,24.31,0,0,1-20.1,0,28.07,28.07,0,0,0-23.7.5,14.58,14.58,0,0,1-6.8,1.7c-9.6,0-17.6-9.7-19.2-22.4a19.85,19.85,0,0,0,4.8-5.2c5.6-9.1,14.4-14.9,24.1-14.9s18.4,5.8,24,14.7a18.47,18.47,0,0,0,16,8.7h.2C221.9,59.1,228.5,65.2,231.7,74.2Z"/><path class="cls-7" d="M792,257.2l-7.7,4.9,4.7-8.5a7.94,7.94,0,0,0-4.7-1.7h-.1a8.6,8.6,0,0,1-1.6-.1l-2.7,1.7,1.1-2a8.94,8.94,0,0,1-4.6-3.5l-4.7,3,3-5.4a13.56,13.56,0,0,0-10.5-5.3c-4.9,0-9.2,2.9-12,7.4a9,9,0,0,1-8,4.3h-.3c-5.4,0-9.8,6.1-9.8,13.6s4.4,13.7,9.8,13.7a6.65,6.65,0,0,0,3.4-.9,13.92,13.92,0,0,1,11.8-.2,11.91,11.91,0,0,0,10,0,14.45,14.45,0,0,1,11.7.2,7.73,7.73,0,0,0,3.4.8c5.4,0,9.8-6.1,9.8-13.7A17.24,17.24,0,0,0,792,257.2Z"/><path class="cls-8" d="M777.4,277.1a15.15,15.15,0,0,0-8.4.9,12.43,12.43,0,0,1-10,0,13.92,13.92,0,0,0-11.8.2,6.65,6.65,0,0,1-3.4.9c-4.8,0-8.8-4.8-9.6-11.2a8.48,8.48,0,0,0,2.4-2.6c2.8-4.5,7.2-7.4,12-7.4s9.2,2.9,12,7.3a9.22,9.22,0,0,0,8,4.4h.1C772.5,269.6,775.8,272.7,777.4,277.1Z"/><path class="cls-7" d="M809.1,129.7l12.4,7.9-7.6-13.7a12.72,12.72,0,0,1,7.5-2.7h.2a22.75,22.75,0,0,0,2.6-.2l4.2,2.7-1.8-3.3a14.73,14.73,0,0,0,7.4-5.6l7.5,4.8-4.8-8.7c4.4-5.3,10.4-8.5,16.9-8.5,7.8,0,14.8,4.7,19.3,11.9a14.44,14.44,0,0,0,12.8,6.9h.4c8.7,0,15.7,9.8,15.7,21.9s-7,21.9-15.7,21.9a11.82,11.82,0,0,1-5.5-1.4,22.92,22.92,0,0,0-19-.4,19.65,19.65,0,0,1-16.1,0,22.46,22.46,0,0,0-18.8.4,11.33,11.33,0,0,1-5.4,1.3c-8.7,0-15.7-9.8-15.7-21.9A31,31,0,0,1,809.1,129.7Z"/><path class="cls-8" d="M832.6,161.8a22,22,0,0,1,13.4,1.5,19.65,19.65,0,0,0,16.1,0,22.54,22.54,0,0,1,19,.4,11.82,11.82,0,0,0,5.5,1.4c7.7,0,14.1-7.8,15.4-18a13.5,13.5,0,0,1-3.8-4.1c-4.5-7.3-11.5-11.9-19.3-11.9s-14.8,4.6-19.3,11.8a14.75,14.75,0,0,1-12.8,7h-.2C840.5,149.7,835.1,154.6,832.6,161.8Z"/><path class="cls-9" d="M669.18,256q0,222.45.07,444.89c0,2.34-.56,2.68-2.76,2.68q-141.47-.11-282.93,0c-2.2,0-2.76-.34-2.75-2.68q.1-223.57.06-447.13a1.75,1.75,0,0,1,.91-.32c5-.78,9.77-2.38,14.63-3.65,17.42-4.55,34.9-8.83,52.85-10.64a260.59,260.59,0,0,1,60.51.57c15.32,2,30.12,6.07,44.91,10.33a361.16,361.16,0,0,0,55.22,11.64c10.12,1.27,20.29.68,30.44.76,5,0,10,.21,15-1,4.66-1.1,9.31-2,12.87-5.58A1,1,0,0,1,669.18,256Z"/><path class="cls-4" d="M668.63,256a10.24,10.24,0,0,1-6.07,4.62c-4.08,1.3-8.3,2.54-12.53,2.6-11.74.15-23.5.63-35.23-.25-15.64-1.18-30.89-4.68-46.12-8.25-13.95-3.27-27.45-8.22-41.5-11.1a250,250,0,0,0-53.84-5.15c-27.14.4-53.41,5.86-79.44,12.92-3.14.85-6.27,1.73-9.42,2.58-1,.28-2.08,1-3.13,0a9.81,9.81,0,0,1-.18-3.33q0-90.58,0-181.17c0-1.1.28-2.24-.28-3.3V64.48c.46-1.82,1.93-1.38,3.16-1.38q36.81,0,73.6,0c3.34,0,6.69.36,10-.27q99.51,0,199,0c2.1,0,2.6.47,2.58,2.57-.12,12.79-.06,25.58-.06,38.37-.56,1.06-.27,2.2-.27,3.29q0,72.84,0,145.68C668.88,253.76,669.15,254.9,668.63,256Z"/><path class="cls-10" d="M380.87,66.16c.85.73.56,1.73.56,2.63q0,91.61,0,183.21c0,.66-.07,1.31-.1,2h-.27l-.21-.17Z"/><path class="cls-11" d="M668.63,256q0-74.55,0-149.09c0-1.07-.42-2.26.52-3.19V256Z"/><path class="cls-12" d="M467.64,62.8c-.93.94-2.11.52-3.18.52q-40,.06-80.09,0c-1.29,0-2.62-.18-3.5,1.11-.51-1.92.74-1.69,2-1.69Q425.24,62.82,467.64,62.8Z"/><path class="cls-13" d="M398.79,409c-3.27-1.11-5-3.22-5-6.5q-.09-9.76,0-19.53a6.49,6.49,0,0,1,5-6.49,6.63,6.63,0,0,1,3-.24h247a6.62,6.62,0,0,1,3,.24c3.06,1,4.95,3.15,5,6.21q.13,10,0,20.07c0,3.09-1.81,5.14-5,6.24a6.49,6.49,0,0,1-3,.25h-247A6.49,6.49,0,0,1,398.79,409Z"/><path class="cls-14" d="M524.46,354.61h-124c-5.84,0-8.42-2.63-8.42-8.56,0-5,0-10.08,0-15.12,0-4.73,2.92-7.68,7.62-7.68H649.87c5.29,0,8.08,2.84,8.11,8.15s0,10.46,0,15.68a7.13,7.13,0,0,1-7,7.51c-.75.06-1.5,0-2.24,0Z"/><path class="cls-14" d="M525,309.24H400.47c-5.62,0-8.4-2.75-8.4-8.29V285.56c0-4.55,2.75-7.43,7.29-7.68.65,0,1.3,0,2,0q124,0,247.92-.1c5.14,0,9.23,3.28,8.82,9-.36,4.82-.07,9.7-.08,14.55,0,5-2.91,7.95-7.91,7.95H525Z"/><path class="cls-15" d="M398.79,409H651.85c-1,.85-2.13.54-3.21.54q-123.33,0-246.64,0C400.91,409.49,399.74,409.81,398.79,409Z"/><path class="cls-16" d="M480.42,111.25a41.88,41.88,0,0,1,25.72,8.88c10.34,8.06,15.58,18.78,15.79,31.92.11,6.91-.56,13.81,0,20.71.54,6.12,2.19,11.73,7.54,15.56,2.34,1.67,5,2.19,7.74,2.84.43.1,1,.2,1.21.51.35.62-.34,1-.71,1.32a12.9,12.9,0,0,1-6.47,3.09c-19.75,4.36-41.51-10.63-44.65-30.62-1.43-9.12-.61-18.24-.49-27.37.08-5.6.18-11.19-1-16.71A26.27,26.27,0,0,0,480.42,111.25Z"/><path class="cls-16" d="M527.12,161.86c.3-11.34,1.63-20.82,5.68-29.72,6.17-13.57,19.57-21.1,34.82-21,1.87,0,1.79.61,1,1.93-4.69,7.46-5.32,15.75-4.88,24.26.5,9.67,2.22,19.32.8,29-1.09,7.45-3.48,14.37-10.08,18.84-10.4,7-23.23,1.94-26-10.24A64.09,64.09,0,0,1,527.12,161.86Z"/><path class="cls-17" d="M525,137.39c-.71-3-1.29-5.5-1.9-8-1.51-6.2-4.61-11.38-10-14.93-1.68-1.1-1.65-2.11-.95-3.65a30,30,0,0,1,11.13-12.89,2.69,2.69,0,0,1,3.31,0,25.53,25.53,0,0,1,10.54,13.63c.34,1,.38,1.78-.61,2.41-7,4.41-9.35,11.46-10.59,19.09-.15.92-.34,1.83-.53,2.74C525.37,136.14,525.26,136.49,525,137.39Z"/><path class="cls-18" d="M405.42,337.87c2.67,1.2,1.84,3.57,1.58,5.48s-2.21,1.29-3.45,1.23c-1.4-.07-3.61,1-4-1.18-.33-1.88-1.18-4.33,1.41-5.66A9.88,9.88,0,0,1,405.42,337.87Z"/><path class="cls-19" d="M405.42,337.87a4.31,4.31,0,0,1-4.46-.13c.08-1.16-.21-2.45,1-3.25a2.14,2.14,0,0,1,2.33-.19C405.82,335.11,405.59,336.5,405.42,337.87Z"/><path class="cls-20" d="M399.39,298c-2.42-1.88-1.17-4.47-1-6.63.18-1.76,2.27-1,3.57-1.15a14,14,0,0,1,2.51,0c1.31.11,3.39-.59,3.58,1.15.23,2.16,1.47,4.75-.95,6.63a3.22,3.22,0,0,1-.45-.7,9.8,9.8,0,0,1,0-4.31c-2.89,3-4.68,2.83-7-.5a8.44,8.44,0,0,1,.18,4.82A3.26,3.26,0,0,1,399.39,298Z"/><path class="cls-21" d="M399.39,298v-.67a10,10,0,0,1,7.73,0V298Z"/><path class="cls-22" d="M402.1,336.61c0-.79.18-1.52,1.21-1.5.85,0,1.05.6,1.11,1.31s-.16,1.45-1.2,1.42C402.38,337.82,402.06,337.4,402.1,336.61Z"/><path class="cls-23" d="M407.13,297.3H399.4v-5.62c1.16,1.28,2.3,2.85,3.86,2.86s2.68-1.4,3.87-3.13Z"/><path class="cls-24" d="M400.55,291.37h5.27C403.42,294.31,403.28,294.31,400.55,291.37Z"/><path d="M441.72,419.58h1.43l2.44,4.41.81,1.67h.05c-.07-.81-.18-1.8-.18-2.67v-3.41h1.32v7.84h-1.42L443.73,423l-.81-1.67h-.05c.07.83.18,1.78.18,2.65v3.43h-1.33Z"/><path d="M449.09,424.48a2.81,2.81,0,1,1,2.8,3.09A2.85,2.85,0,0,1,449.09,424.48Zm4.18,0c0-1.18-.52-2-1.38-2s-1.38.78-1.38,2,.51,2,1.38,2S453.27,425.66,453.27,424.48Z"/><path d="M458.6,425.44v-2.81h-.84v-1l.91-.07.16-1.6H460v1.6h1.5v1.1H460v2.81c0,.69.27,1,.83,1a2.14,2.14,0,0,0,.62-.13l.23,1a3.67,3.67,0,0,1-1.2.22C459.1,427.57,458.6,426.71,458.6,425.44Z"/><path d="M462.56,419.72a.79.79,0,0,1,.86-.78.78.78,0,1,1,0,1.56A.8.8,0,0,1,462.56,419.72Zm.16,1.81h1.38v5.89h-1.38Z"/><path d="M465.48,424.48a2.87,2.87,0,0,1,2.71-3.09c1.6,0,2.43,1.15,2.43,2.8a3.9,3.9,0,0,1-.05.67h-3.74a1.67,1.67,0,0,0,1.73,1.64,2.49,2.49,0,0,0,1.37-.43l.47.86a3.64,3.64,0,0,1-2,.64A2.84,2.84,0,0,1,465.48,424.48Zm3.95-.56c0-.91-.4-1.46-1.21-1.46a1.48,1.48,0,0,0-1.41,1.46Z"/><path d="M472,421.53h1.13l.11.8h0a2.73,2.73,0,0,1,1.93-.94c1.26,0,1.81.85,1.81,2.34v3.69h-1.38v-3.51c0-1-.28-1.34-.91-1.34a1.88,1.88,0,0,0-1.35.74v4.11H472Z"/><path d="M478.28,424.48a2.87,2.87,0,0,1,2.72-3.09c1.59,0,2.43,1.15,2.43,2.8a3.75,3.75,0,0,1-.06.67h-3.74a1.68,1.68,0,0,0,1.74,1.64,2.49,2.49,0,0,0,1.36-.43l.47.86a3.64,3.64,0,0,1-2,.64A2.85,2.85,0,0,1,478.28,424.48Zm4-.56c0-.91-.4-1.46-1.2-1.46a1.47,1.47,0,0,0-1.41,1.46Z"/><path d="M484.17,426.75l.64-.88a2.59,2.59,0,0,0,1.63.66c.64,0,.94-.3.94-.71s-.64-.71-1.26-.95c-.78-.29-1.66-.74-1.66-1.72s.83-1.76,2.15-1.76a3.16,3.16,0,0,1,1.95.7l-.63.85a2.21,2.21,0,0,0-1.29-.51c-.59,0-.87.28-.87.65s.59.65,1.23.88c.8.3,1.69.68,1.69,1.78s-.8,1.83-2.29,1.83A3.69,3.69,0,0,1,484.17,426.75Z"/><path d="M492.26,425.23v-3.7h1.38v3.52c0,1,.28,1.33.92,1.33s.86-.24,1.3-.81v-4h1.38v5.89h-1.13l-.1-.86h0a2.41,2.41,0,0,1-1.9,1C492.81,427.57,492.26,426.71,492.26,425.23Z"/><path d="M499,421.53h1.13l.11.8h0a2.77,2.77,0,0,1,1.94-.94c1.26,0,1.81.85,1.81,2.34v3.69h-1.38v-3.51c0-1-.28-1.34-.92-1.34a1.84,1.84,0,0,0-1.34.74v4.11H499Z"/><path d="M505.4,425.84c0-1.26,1.05-1.92,3.47-2.18,0-.63-.28-1.16-1.07-1.16a3.32,3.32,0,0,0-1.66.58l-.51-.92a4.57,4.57,0,0,1,2.42-.77c1.47,0,2.2.91,2.2,2.55v3.48h-1.14l-.1-.65h0a2.86,2.86,0,0,1-1.83.8A1.65,1.65,0,0,1,505.4,425.84Zm3.47,0v-1.33c-1.6.2-2.14.62-2.14,1.22s.36.74.85.74A1.88,1.88,0,0,0,508.87,425.85Z"/><path d="M513.92,424.48a2.91,2.91,0,0,1,3-3.09,2.53,2.53,0,0,1,1.72.66l-.67.9a1.46,1.46,0,0,0-1-.43c-1,0-1.61.78-1.61,2s.65,2,1.57,2a1.87,1.87,0,0,0,1.21-.51l.57.91a3,3,0,0,1-1.93.73A2.8,2.8,0,0,1,513.92,424.48Z"/><path d="M519.79,425.23v-3.7h1.38v3.52c0,1,.28,1.33.91,1.33s.86-.24,1.31-.81v-4h1.38v5.89h-1.13l-.11-.86h0a2.41,2.41,0,0,1-1.9,1C520.34,427.57,519.79,426.71,519.79,425.23Z"/><path d="M526.14,424.48a2.87,2.87,0,0,1,2.71-3.09c1.6,0,2.44,1.15,2.44,2.8a3.75,3.75,0,0,1-.06.67h-3.74a1.67,1.67,0,0,0,1.73,1.64,2.49,2.49,0,0,0,1.37-.43l.47.86a3.64,3.64,0,0,1-2,.64A2.84,2.84,0,0,1,526.14,424.48Zm4-.56c0-.91-.4-1.46-1.21-1.46a1.48,1.48,0,0,0-1.41,1.46Z"/><path d="M532.61,421.53h1.13l.11.8h0a2.73,2.73,0,0,1,1.93-.94c1.26,0,1.81.85,1.81,2.34v3.69h-1.38v-3.51c0-1-.28-1.34-.92-1.34a1.88,1.88,0,0,0-1.34.74v4.11h-1.38Z"/><path d="M539.54,425.44v-2.81h-.84v-1l.91-.07.16-1.6h1.15v1.6h1.5v1.1h-1.5v2.81c0,.69.27,1,.83,1a2.14,2.14,0,0,0,.62-.13l.23,1a3.67,3.67,0,0,1-1.2.22C540,427.57,539.54,426.71,539.54,425.44Z"/><path d="M543.09,425.84c0-1.26,1-1.92,3.47-2.18,0-.63-.28-1.16-1.07-1.16a3.32,3.32,0,0,0-1.66.58l-.51-.92a4.6,4.6,0,0,1,2.42-.77c1.47,0,2.2.91,2.2,2.55v3.48h-1.13l-.11-.65h0a2.86,2.86,0,0,1-1.83.8A1.65,1.65,0,0,1,543.09,425.84Zm3.47,0v-1.33c-1.6.2-2.13.62-2.13,1.22s.35.74.85.74A1.86,1.86,0,0,0,546.56,425.85Z"/><path d="M551.92,421.33a.9.9,0,0,0-1-1,1.7,1.7,0,0,0-1.23.62l-.78-.7a2.89,2.89,0,0,1,2.18-1,1.91,1.91,0,0,1,2.14,2c0,1.53-1.86,2.07-1.7,3.61h-1.21C550.09,423.09,551.92,422.41,551.92,421.33Zm-1.85,5.31a.89.89,0,1,1,.89.93A.9.9,0,0,1,550.07,426.64Z"/><path class="cls-4" d="M557.19,419.58h2.64c1.63,0,2.89.58,2.89,2.33s-1.26,2.45-2.89,2.45h-1.25v3.06h-1.39Zm2.49,3.67c1.08,0,1.66-.45,1.66-1.34s-.58-1.22-1.66-1.22h-1.1v2.56Zm-.11.74,1-.83,2.45,4.26h-1.56Z"/><path class="cls-4" d="M563.66,424.48a2.87,2.87,0,0,1,2.72-3.09c1.59,0,2.43,1.15,2.43,2.8a3.75,3.75,0,0,1-.06.67H565a1.68,1.68,0,0,0,1.74,1.64,2.49,2.49,0,0,0,1.36-.43l.47.86a3.64,3.64,0,0,1-2,.64A2.85,2.85,0,0,1,563.66,424.48Zm4-.56c0-.91-.4-1.46-1.2-1.46a1.47,1.47,0,0,0-1.41,1.46Z"/><path class="cls-4" d="M569.61,428.49a1.5,1.5,0,0,1,.85-1.25v-.05a1.12,1.12,0,0,1-.53-1,1.42,1.42,0,0,1,.65-1.1v-.05a2,2,0,0,1-.78-1.56,2.15,2.15,0,0,1,2.33-2.11,2.78,2.78,0,0,1,.87.14h2.11v1H574a1.51,1.51,0,0,1,.34,1,2,2,0,0,1-2.24,2,2.15,2.15,0,0,1-.8-.16.7.7,0,0,0-.29.57c0,.33.25.53,1,.53h1c1.41,0,2.15.44,2.15,1.45,0,1.16-1.21,2.08-3.14,2.08C570.66,430,569.61,429.53,569.61,428.49Zm4.26-.31c0-.46-.36-.59-1-.59H572a3.56,3.56,0,0,1-.79-.08,1,1,0,0,0-.46.77c0,.54.58.85,1.5.85S573.87,428.69,573.87,428.18Zm-.72-4.68a1,1,0,1,0-2,0,1,1,0,1,0,2,0Z"/><path class="cls-4" d="M576.1,419.72a.85.85,0,1,1,.85.78A.78.78,0,0,1,576.1,419.72Zm.15,1.81h1.39v5.89h-1.39Z"/><path class="cls-4" d="M578.81,426.75l.65-.88a2.56,2.56,0,0,0,1.62.66c.64,0,.95-.3.95-.71s-.64-.71-1.27-.95-1.66-.74-1.66-1.72.83-1.76,2.15-1.76a3.19,3.19,0,0,1,2,.7l-.64.85a2.19,2.19,0,0,0-1.29-.51c-.59,0-.87.28-.87.65s.59.65,1.23.88c.8.3,1.69.68,1.69,1.78s-.8,1.83-2.29,1.83A3.74,3.74,0,0,1,578.81,426.75Z"/><path class="cls-4" d="M584.54,425.44v-2.81h-.84v-1l.91-.07.16-1.6h1.15v1.6h1.5v1.1h-1.5v2.81c0,.69.27,1,.83,1a2.14,2.14,0,0,0,.62-.13l.23,1a3.67,3.67,0,0,1-1.2.22C585,427.57,584.54,426.71,584.54,425.44Z"/><path class="cls-4" d="M588.66,421.53h1.13l.11,1.05h0a2,2,0,0,1,1.67-1.19,1.54,1.54,0,0,1,.67.12l-.24,1.2a2,2,0,0,0-.61-.1c-.47,0-1,.32-1.39,1.22v3.59h-1.38Z"/><path class="cls-4" d="M592.51,425.84c0-1.26,1-1.92,3.46-2.18,0-.63-.27-1.16-1.07-1.16a3.32,3.32,0,0,0-1.65.58l-.51-.92a4.57,4.57,0,0,1,2.42-.77c1.47,0,2.19.91,2.19,2.55v3.48h-1.13l-.1-.65h0a2.86,2.86,0,0,1-1.83.8A1.65,1.65,0,0,1,592.51,425.84Zm3.46,0v-1.33c-1.59.2-2.13.62-2.13,1.22s.36.74.85.74A1.84,1.84,0,0,0,596,425.85Z"/><path class="cls-4" d="M599,425.44v-2.81h-.84v-1l.91-.07.17-1.6h1.14v1.6h1.51v1.1h-1.51v2.81c0,.69.27,1,.84,1a2,2,0,0,0,.61-.13l.24,1a3.68,3.68,0,0,1-1.21.22C599.54,427.57,599,426.71,599,425.44Z"/><path class="cls-4" d="M602.58,424.48a2.87,2.87,0,0,1,2.71-3.09c1.59,0,2.43,1.15,2.43,2.8a3.9,3.9,0,0,1-.05.67h-3.74a1.67,1.67,0,0,0,1.73,1.64,2.49,2.49,0,0,0,1.37-.43l.47.86a3.64,3.64,0,0,1-2,.64A2.84,2.84,0,0,1,602.58,424.48Zm3.95-.56c0-.91-.4-1.46-1.21-1.46a1.48,1.48,0,0,0-1.41,1.46Z"/><path class="cls-16" d="M483.21,388.71h1.41v7.84h-1.41Z"/><path class="cls-16" d="M486.52,390.66h1.15l.11.8h0a2.84,2.84,0,0,1,2-.94c1.28,0,1.84.85,1.84,2.34v3.69h-1.4V393c0-1-.28-1.34-.93-1.34a1.9,1.9,0,0,0-1.36.74v4.11h-1.4Z"/><path class="cls-16" d="M493.17,388.85a.87.87,0,0,1,1.73,0,.87.87,0,0,1-1.73,0Zm.16,1.81h1.4v5.89h-1.4Z"/><path class="cls-16" d="M496.12,393.61a2.93,2.93,0,0,1,3-3.09,2.59,2.59,0,0,1,1.74.66l-.68.9a1.45,1.45,0,0,0-1-.43c-1,0-1.63.78-1.63,2s.66,2,1.59,2a2,2,0,0,0,1.23-.51l.57.91a3,3,0,0,1-1.95.73A2.82,2.82,0,0,1,496.12,393.61Z"/><path class="cls-16" d="M502,388.85a.87.87,0,0,1,1.73,0,.87.87,0,0,1-1.73,0Zm.16,1.81h1.4v5.89h-1.4Z"/><path class="cls-16" d="M505,395c0-1.26,1.06-1.92,3.52-2.18,0-.63-.28-1.16-1.09-1.16a3.43,3.43,0,0,0-1.68.58l-.51-.92a4.65,4.65,0,0,1,2.45-.77c1.49,0,2.23.91,2.23,2.55v3.48h-1.15l-.11-.65h0a2.91,2.91,0,0,1-1.85.8A1.66,1.66,0,0,1,505,395Zm3.52,0v-1.33c-1.62.2-2.16.62-2.16,1.22s.36.74.86.74A1.92,1.92,0,0,0,508.51,395Z"/><path class="cls-16" d="M511.59,390.66h1.15l.1,1h0a2.06,2.06,0,0,1,1.7-1.19,1.59,1.59,0,0,1,.68.12l-.25,1.2a2,2,0,0,0-.61-.1c-.48,0-1,.32-1.41,1.22v3.59h-1.4Z"/><path class="cls-16" d="M518.13,395.55l.82-1a3.12,3.12,0,0,0,2.07.9c.9,0,1.39-.4,1.39-1s-.51-.86-1.24-1.16l-1.08-.46a2.25,2.25,0,0,1-1.61-2.08,2.41,2.41,0,0,1,2.67-2.21,3.51,3.51,0,0,1,2.45,1l-.72.88a2.57,2.57,0,0,0-1.73-.67c-.75,0-1.24.34-1.24.92s.6.84,1.26,1.11l1.07.44a2.18,2.18,0,0,1,1.61,2.12c0,1.27-1.07,2.33-2.86,2.33A4.12,4.12,0,0,1,518.13,395.55Z"/><path class="cls-16" d="M524.78,393.61a2.88,2.88,0,0,1,2.76-3.09c1.61,0,2.46,1.15,2.46,2.8a3,3,0,0,1-.06.67h-3.79a1.7,1.7,0,0,0,1.76,1.64,2.58,2.58,0,0,0,1.39-.43l.48.86a3.74,3.74,0,0,1-2,.64A2.87,2.87,0,0,1,524.78,393.61Zm4-.56c0-.91-.41-1.46-1.22-1.46a1.48,1.48,0,0,0-1.43,1.46Z"/><path class="cls-16" d="M530.75,395.88l.65-.88a2.64,2.64,0,0,0,1.65.66c.65,0,1-.31,1-.71s-.65-.71-1.29-.95-1.67-.74-1.67-1.72.83-1.76,2.17-1.76a3.28,3.28,0,0,1,2,.7l-.65.85a2.27,2.27,0,0,0-1.31-.51c-.6,0-.88.28-.88.65s.6.64,1.25.88c.81.3,1.71.68,1.71,1.78s-.81,1.83-2.32,1.83A3.78,3.78,0,0,1,530.75,395.88Z"/><path class="cls-16" d="M536.42,388.85a.87.87,0,0,1,1.73,0,.87.87,0,0,1-1.73,0Zm.16,1.81H538v5.89h-1.4Z"/><path class="cls-16" d="M539.37,393.61a2.85,2.85,0,1,1,2.84,3.09A2.87,2.87,0,0,1,539.37,393.61Zm4.25,0c0-1.18-.53-2-1.41-2s-1.4.78-1.4,2,.53,2,1.4,2S543.62,394.79,543.62,393.61ZM541.49,389l1.8-2.09,1,.92-2.06,1.85Z"/><path class="cls-16" d="M546.44,390.66h1.15l.11.8h0a2.8,2.8,0,0,1,2-.94c1.27,0,1.83.85,1.83,2.34v3.69h-1.4V393c0-1-.28-1.34-.93-1.34a1.9,1.9,0,0,0-1.36.74v4.11h-1.4Z"/><path class="cls-25" d="M414,338.88c0-2.56,1.63-4.09,3.64-4.09a3.18,3.18,0,0,1,2.29,1l-.75.9a2.11,2.11,0,0,0-1.51-.68c-1.3,0-2.22,1.08-2.22,2.84s.85,2.87,2.18,2.87a2.26,2.26,0,0,0,1.7-.8l.76.87a3.2,3.2,0,0,1-2.51,1.14C415.55,342.92,414,341.48,414,338.88Z"/><path class="cls-25" d="M420.87,339.84a2.85,2.85,0,1,1,2.84,3.08A2.87,2.87,0,0,1,420.87,339.84Zm4.24,0c0-1.18-.52-2-1.4-2s-1.4.79-1.4,2,.53,2,1.4,2S425.11,341,425.11,339.84Z"/><path class="cls-25" d="M427.94,336.89h1.15l.1.79h0a2.84,2.84,0,0,1,2-.94c1.28,0,1.84.86,1.84,2.34v3.7h-1.4v-3.52c0-1-.28-1.33-.93-1.33a1.88,1.88,0,0,0-1.36.73v4.12h-1.4Z"/><path class="cls-25" d="M435,340.79V338h-.86v-1l.93-.06.16-1.61h1.17v1.61h1.52V338h-1.52v2.81c0,.69.27,1,.84,1a1.86,1.86,0,0,0,.63-.13l.23,1a4.06,4.06,0,0,1-1.22.21C435.47,342.92,435,342.06,435,340.79Z"/><path class="cls-25" d="M439.13,336.89h1.15l.11,1.05h0a2,2,0,0,1,1.7-1.2,1.54,1.54,0,0,1,.67.12l-.24,1.2A2,2,0,0,0,442,338c-.48,0-1.05.32-1.41,1.21v3.6h-1.41Z"/><path class="cls-25" d="M443,341.19c0-1.26,1.06-1.91,3.51-2.17,0-.64-.27-1.16-1.08-1.16a3.33,3.33,0,0,0-1.68.58l-.51-.93a4.74,4.74,0,0,1,2.45-.77c1.49,0,2.23.91,2.23,2.55v3.49H446.8l-.11-.66h0a2.86,2.86,0,0,1-1.85.8A1.66,1.66,0,0,1,443,341.19Zm3.51,0v-1.32c-1.62.2-2.16.61-2.16,1.21s.36.75.87.75A1.9,1.9,0,0,0,446.54,341.2Z"/><path class="cls-25" d="M449,342.1l.65-.88a2.66,2.66,0,0,0,1.65.66c.66,0,1-.3,1-.71s-.64-.71-1.28-.95-1.68-.73-1.68-1.72.84-1.76,2.17-1.76a3.26,3.26,0,0,1,2,.71l-.64.85a2.21,2.21,0,0,0-1.31-.52c-.6,0-.89.29-.89.66s.61.64,1.25.87c.81.3,1.71.69,1.71,1.78s-.81,1.83-2.32,1.83A3.76,3.76,0,0,1,449,342.1Z"/><path class="cls-25" d="M454.47,339.84a2.89,2.89,0,0,1,2.75-3.1c1.62,0,2.47,1.15,2.47,2.8a3.66,3.66,0,0,1-.06.67h-3.79a1.69,1.69,0,0,0,1.76,1.64,2.58,2.58,0,0,0,1.39-.43l.47.86a3.74,3.74,0,0,1-2,.64A2.86,2.86,0,0,1,454.47,339.84Zm4-.57c0-.91-.41-1.46-1.23-1.46a1.5,1.5,0,0,0-1.43,1.46Z"/><path class="cls-25" d="M461,336.89h1.15l.1.79h0a2.84,2.84,0,0,1,2-.94c1.28,0,1.84.86,1.84,2.34v3.7h-1.4v-3.52c0-1-.28-1.33-.93-1.33a1.88,1.88,0,0,0-1.36.73v4.12H461ZM463,335c-.3,0-.45.28-.49.8l-.9-.06c0-1.08.48-1.72,1.37-1.72s1.18.89,1.66.89c.3,0,.45-.3.49-.81l.89.06c0,1.08-.47,1.72-1.36,1.72S463.44,335,463,335Z"/><path class="cls-25" d="M467.52,341.19c0-1.26,1.06-1.91,3.51-2.17,0-.64-.28-1.16-1.09-1.16a3.26,3.26,0,0,0-1.67.58l-.52-.93a4.77,4.77,0,0,1,2.45-.77c1.49,0,2.23.91,2.23,2.55v3.49h-1.15l-.11-.66h0a2.88,2.88,0,0,1-1.86.8A1.66,1.66,0,0,1,467.52,341.19Zm3.51,0v-1.32c-1.62.2-2.16.61-2.16,1.21s.36.75.86.75A1.9,1.9,0,0,0,471,341.2Z"/><path class="cls-25" d="M414.56,293.41c0-2.57,1.63-4.09,3.64-4.09a3.18,3.18,0,0,1,2.29,1l-.75.9a2.07,2.07,0,0,0-1.51-.68c-1.29,0-2.22,1.07-2.22,2.84s.85,2.87,2.19,2.87a2.25,2.25,0,0,0,1.7-.81l.75.88a3.19,3.19,0,0,1-2.51,1.14C416.14,297.45,414.56,296,414.56,293.41Z"/><path class="cls-25" d="M421.46,294.36a2.85,2.85,0,1,1,2.84,3.09A2.87,2.87,0,0,1,421.46,294.36Zm4.25,0c0-1.18-.53-2-1.41-2s-1.4.78-1.4,2,.53,2,1.4,2S425.71,295.54,425.71,294.36Z"/><path class="cls-25" d="M428.53,291.41h1.15l.11,1h0a2,2,0,0,1,1.69-1.19,1.56,1.56,0,0,1,.68.12l-.24,1.2a2,2,0,0,0-.62-.1c-.47,0-1,.32-1.41,1.22v3.59h-1.4Z"/><path class="cls-25" d="M433.07,291.41h1.14l.11,1h0a2.06,2.06,0,0,1,1.7-1.19,1.54,1.54,0,0,1,.67.12l-.24,1.2a2,2,0,0,0-.61-.1c-.48,0-1.05.32-1.41,1.22v3.59h-1.4Z"/><path class="cls-25" d="M437.08,294.36a2.88,2.88,0,0,1,2.76-3.09c1.61,0,2.46,1.15,2.46,2.8a3,3,0,0,1-.06.67h-3.79a1.7,1.7,0,0,0,1.76,1.64,2.58,2.58,0,0,0,1.39-.43l.48.86a3.74,3.74,0,0,1-2.05.64A2.87,2.87,0,0,1,437.08,294.36Zm4-.56c0-.91-.41-1.46-1.22-1.46a1.48,1.48,0,0,0-1.43,1.46Z"/><path class="cls-25" d="M443.25,294.36a2.85,2.85,0,1,1,2.84,3.09A2.87,2.87,0,0,1,443.25,294.36Zm4.24,0c0-1.18-.53-2-1.4-2s-1.4.78-1.4,2,.52,2,1.4,2S447.49,295.54,447.49,294.36Z"/></svg>